%TF.GenerationSoftware,KiCad,Pcbnew,(7.0.0)*%
%TF.CreationDate,2023-05-17T11:18:48+02:00*%
%TF.ProjectId,CircuiteriaESP32,43697263-7569-4746-9572-696145535033,rev?*%
%TF.SameCoordinates,Original*%
%TF.FileFunction,Profile,NP*%
%FSLAX46Y46*%
G04 Gerber Fmt 4.6, Leading zero omitted, Abs format (unit mm)*
G04 Created by KiCad (PCBNEW (7.0.0)) date 2023-05-17 11:18:48*
%MOMM*%
%LPD*%
G01*
G04 APERTURE LIST*
%ADD10C,0.100000*%
%ADD11C,0.150000*%
%ADD12C,0.300000*%
%ADD13C,0.400000*%
%TA.AperFunction,Profile*%
%ADD14C,0.100000*%
%TD*%
G04 APERTURE END LIST*
D10*
D11*
X177002200Y-166007200D02*
X285002200Y-166007200D01*
X285002200Y-198007200D01*
X177002200Y-198007200D01*
X177002200Y-166007200D01*
D10*
D11*
X10000000Y-10000000D02*
X287002200Y-10000000D01*
X287002200Y-200007200D01*
X10000000Y-200007200D01*
X10000000Y-10000000D01*
D10*
D11*
X12000000Y-12000000D02*
X285002200Y-12000000D01*
X285002200Y-198007200D01*
X12000000Y-198007200D01*
X12000000Y-12000000D01*
D10*
D11*
X60000000Y-12000000D02*
X60000000Y-10000000D01*
D10*
D11*
X110000000Y-12000000D02*
X110000000Y-10000000D01*
D10*
D11*
X160000000Y-12000000D02*
X160000000Y-10000000D01*
D10*
D11*
X210000000Y-12000000D02*
X210000000Y-10000000D01*
D10*
D11*
X260000000Y-12000000D02*
X260000000Y-10000000D01*
D10*
D11*
X35990476Y-11477595D02*
X35247619Y-11477595D01*
X35619047Y-11477595D02*
X35619047Y-10177595D01*
X35619047Y-10177595D02*
X35495238Y-10363309D01*
X35495238Y-10363309D02*
X35371428Y-10487119D01*
X35371428Y-10487119D02*
X35247619Y-10549023D01*
D10*
D11*
X85247619Y-10301404D02*
X85309523Y-10239500D01*
X85309523Y-10239500D02*
X85433333Y-10177595D01*
X85433333Y-10177595D02*
X85742857Y-10177595D01*
X85742857Y-10177595D02*
X85866666Y-10239500D01*
X85866666Y-10239500D02*
X85928571Y-10301404D01*
X85928571Y-10301404D02*
X85990476Y-10425214D01*
X85990476Y-10425214D02*
X85990476Y-10549023D01*
X85990476Y-10549023D02*
X85928571Y-10734738D01*
X85928571Y-10734738D02*
X85185714Y-11477595D01*
X85185714Y-11477595D02*
X85990476Y-11477595D01*
D10*
D11*
X135185714Y-10177595D02*
X135990476Y-10177595D01*
X135990476Y-10177595D02*
X135557142Y-10672833D01*
X135557142Y-10672833D02*
X135742857Y-10672833D01*
X135742857Y-10672833D02*
X135866666Y-10734738D01*
X135866666Y-10734738D02*
X135928571Y-10796642D01*
X135928571Y-10796642D02*
X135990476Y-10920452D01*
X135990476Y-10920452D02*
X135990476Y-11229976D01*
X135990476Y-11229976D02*
X135928571Y-11353785D01*
X135928571Y-11353785D02*
X135866666Y-11415690D01*
X135866666Y-11415690D02*
X135742857Y-11477595D01*
X135742857Y-11477595D02*
X135371428Y-11477595D01*
X135371428Y-11477595D02*
X135247619Y-11415690D01*
X135247619Y-11415690D02*
X135185714Y-11353785D01*
D10*
D11*
X185866666Y-10610928D02*
X185866666Y-11477595D01*
X185557142Y-10115690D02*
X185247619Y-11044261D01*
X185247619Y-11044261D02*
X186052380Y-11044261D01*
D10*
D11*
X235928571Y-10177595D02*
X235309523Y-10177595D01*
X235309523Y-10177595D02*
X235247619Y-10796642D01*
X235247619Y-10796642D02*
X235309523Y-10734738D01*
X235309523Y-10734738D02*
X235433333Y-10672833D01*
X235433333Y-10672833D02*
X235742857Y-10672833D01*
X235742857Y-10672833D02*
X235866666Y-10734738D01*
X235866666Y-10734738D02*
X235928571Y-10796642D01*
X235928571Y-10796642D02*
X235990476Y-10920452D01*
X235990476Y-10920452D02*
X235990476Y-11229976D01*
X235990476Y-11229976D02*
X235928571Y-11353785D01*
X235928571Y-11353785D02*
X235866666Y-11415690D01*
X235866666Y-11415690D02*
X235742857Y-11477595D01*
X235742857Y-11477595D02*
X235433333Y-11477595D01*
X235433333Y-11477595D02*
X235309523Y-11415690D01*
X235309523Y-11415690D02*
X235247619Y-11353785D01*
D10*
D11*
X285866666Y-10177595D02*
X285619047Y-10177595D01*
X285619047Y-10177595D02*
X285495238Y-10239500D01*
X285495238Y-10239500D02*
X285433333Y-10301404D01*
X285433333Y-10301404D02*
X285309523Y-10487119D01*
X285309523Y-10487119D02*
X285247619Y-10734738D01*
X285247619Y-10734738D02*
X285247619Y-11229976D01*
X285247619Y-11229976D02*
X285309523Y-11353785D01*
X285309523Y-11353785D02*
X285371428Y-11415690D01*
X285371428Y-11415690D02*
X285495238Y-11477595D01*
X285495238Y-11477595D02*
X285742857Y-11477595D01*
X285742857Y-11477595D02*
X285866666Y-11415690D01*
X285866666Y-11415690D02*
X285928571Y-11353785D01*
X285928571Y-11353785D02*
X285990476Y-11229976D01*
X285990476Y-11229976D02*
X285990476Y-10920452D01*
X285990476Y-10920452D02*
X285928571Y-10796642D01*
X285928571Y-10796642D02*
X285866666Y-10734738D01*
X285866666Y-10734738D02*
X285742857Y-10672833D01*
X285742857Y-10672833D02*
X285495238Y-10672833D01*
X285495238Y-10672833D02*
X285371428Y-10734738D01*
X285371428Y-10734738D02*
X285309523Y-10796642D01*
X285309523Y-10796642D02*
X285247619Y-10920452D01*
D10*
D11*
X60000000Y-198007200D02*
X60000000Y-200007200D01*
D10*
D11*
X110000000Y-198007200D02*
X110000000Y-200007200D01*
D10*
D11*
X160000000Y-198007200D02*
X160000000Y-200007200D01*
D10*
D11*
X210000000Y-198007200D02*
X210000000Y-200007200D01*
D10*
D11*
X260000000Y-198007200D02*
X260000000Y-200007200D01*
D10*
D11*
X35990476Y-199484795D02*
X35247619Y-199484795D01*
X35619047Y-199484795D02*
X35619047Y-198184795D01*
X35619047Y-198184795D02*
X35495238Y-198370509D01*
X35495238Y-198370509D02*
X35371428Y-198494319D01*
X35371428Y-198494319D02*
X35247619Y-198556223D01*
D10*
D11*
X85247619Y-198308604D02*
X85309523Y-198246700D01*
X85309523Y-198246700D02*
X85433333Y-198184795D01*
X85433333Y-198184795D02*
X85742857Y-198184795D01*
X85742857Y-198184795D02*
X85866666Y-198246700D01*
X85866666Y-198246700D02*
X85928571Y-198308604D01*
X85928571Y-198308604D02*
X85990476Y-198432414D01*
X85990476Y-198432414D02*
X85990476Y-198556223D01*
X85990476Y-198556223D02*
X85928571Y-198741938D01*
X85928571Y-198741938D02*
X85185714Y-199484795D01*
X85185714Y-199484795D02*
X85990476Y-199484795D01*
D10*
D11*
X135185714Y-198184795D02*
X135990476Y-198184795D01*
X135990476Y-198184795D02*
X135557142Y-198680033D01*
X135557142Y-198680033D02*
X135742857Y-198680033D01*
X135742857Y-198680033D02*
X135866666Y-198741938D01*
X135866666Y-198741938D02*
X135928571Y-198803842D01*
X135928571Y-198803842D02*
X135990476Y-198927652D01*
X135990476Y-198927652D02*
X135990476Y-199237176D01*
X135990476Y-199237176D02*
X135928571Y-199360985D01*
X135928571Y-199360985D02*
X135866666Y-199422890D01*
X135866666Y-199422890D02*
X135742857Y-199484795D01*
X135742857Y-199484795D02*
X135371428Y-199484795D01*
X135371428Y-199484795D02*
X135247619Y-199422890D01*
X135247619Y-199422890D02*
X135185714Y-199360985D01*
D10*
D11*
X185866666Y-198618128D02*
X185866666Y-199484795D01*
X185557142Y-198122890D02*
X185247619Y-199051461D01*
X185247619Y-199051461D02*
X186052380Y-199051461D01*
D10*
D11*
X235928571Y-198184795D02*
X235309523Y-198184795D01*
X235309523Y-198184795D02*
X235247619Y-198803842D01*
X235247619Y-198803842D02*
X235309523Y-198741938D01*
X235309523Y-198741938D02*
X235433333Y-198680033D01*
X235433333Y-198680033D02*
X235742857Y-198680033D01*
X235742857Y-198680033D02*
X235866666Y-198741938D01*
X235866666Y-198741938D02*
X235928571Y-198803842D01*
X235928571Y-198803842D02*
X235990476Y-198927652D01*
X235990476Y-198927652D02*
X235990476Y-199237176D01*
X235990476Y-199237176D02*
X235928571Y-199360985D01*
X235928571Y-199360985D02*
X235866666Y-199422890D01*
X235866666Y-199422890D02*
X235742857Y-199484795D01*
X235742857Y-199484795D02*
X235433333Y-199484795D01*
X235433333Y-199484795D02*
X235309523Y-199422890D01*
X235309523Y-199422890D02*
X235247619Y-199360985D01*
D10*
D11*
X285866666Y-198184795D02*
X285619047Y-198184795D01*
X285619047Y-198184795D02*
X285495238Y-198246700D01*
X285495238Y-198246700D02*
X285433333Y-198308604D01*
X285433333Y-198308604D02*
X285309523Y-198494319D01*
X285309523Y-198494319D02*
X285247619Y-198741938D01*
X285247619Y-198741938D02*
X285247619Y-199237176D01*
X285247619Y-199237176D02*
X285309523Y-199360985D01*
X285309523Y-199360985D02*
X285371428Y-199422890D01*
X285371428Y-199422890D02*
X285495238Y-199484795D01*
X285495238Y-199484795D02*
X285742857Y-199484795D01*
X285742857Y-199484795D02*
X285866666Y-199422890D01*
X285866666Y-199422890D02*
X285928571Y-199360985D01*
X285928571Y-199360985D02*
X285990476Y-199237176D01*
X285990476Y-199237176D02*
X285990476Y-198927652D01*
X285990476Y-198927652D02*
X285928571Y-198803842D01*
X285928571Y-198803842D02*
X285866666Y-198741938D01*
X285866666Y-198741938D02*
X285742857Y-198680033D01*
X285742857Y-198680033D02*
X285495238Y-198680033D01*
X285495238Y-198680033D02*
X285371428Y-198741938D01*
X285371428Y-198741938D02*
X285309523Y-198803842D01*
X285309523Y-198803842D02*
X285247619Y-198927652D01*
D10*
D11*
X10000000Y-60000000D02*
X12000000Y-60000000D01*
D10*
D11*
X10000000Y-110000000D02*
X12000000Y-110000000D01*
D10*
D11*
X10000000Y-160000000D02*
X12000000Y-160000000D01*
D10*
D11*
X10690476Y-35106166D02*
X11309523Y-35106166D01*
X10566666Y-35477595D02*
X10999999Y-34177595D01*
X10999999Y-34177595D02*
X11433333Y-35477595D01*
D10*
D11*
X11092857Y-84796642D02*
X11278571Y-84858547D01*
X11278571Y-84858547D02*
X11340476Y-84920452D01*
X11340476Y-84920452D02*
X11402380Y-85044261D01*
X11402380Y-85044261D02*
X11402380Y-85229976D01*
X11402380Y-85229976D02*
X11340476Y-85353785D01*
X11340476Y-85353785D02*
X11278571Y-85415690D01*
X11278571Y-85415690D02*
X11154761Y-85477595D01*
X11154761Y-85477595D02*
X10659523Y-85477595D01*
X10659523Y-85477595D02*
X10659523Y-84177595D01*
X10659523Y-84177595D02*
X11092857Y-84177595D01*
X11092857Y-84177595D02*
X11216666Y-84239500D01*
X11216666Y-84239500D02*
X11278571Y-84301404D01*
X11278571Y-84301404D02*
X11340476Y-84425214D01*
X11340476Y-84425214D02*
X11340476Y-84549023D01*
X11340476Y-84549023D02*
X11278571Y-84672833D01*
X11278571Y-84672833D02*
X11216666Y-84734738D01*
X11216666Y-84734738D02*
X11092857Y-84796642D01*
X11092857Y-84796642D02*
X10659523Y-84796642D01*
D10*
D11*
X11402380Y-135353785D02*
X11340476Y-135415690D01*
X11340476Y-135415690D02*
X11154761Y-135477595D01*
X11154761Y-135477595D02*
X11030952Y-135477595D01*
X11030952Y-135477595D02*
X10845238Y-135415690D01*
X10845238Y-135415690D02*
X10721428Y-135291880D01*
X10721428Y-135291880D02*
X10659523Y-135168071D01*
X10659523Y-135168071D02*
X10597619Y-134920452D01*
X10597619Y-134920452D02*
X10597619Y-134734738D01*
X10597619Y-134734738D02*
X10659523Y-134487119D01*
X10659523Y-134487119D02*
X10721428Y-134363309D01*
X10721428Y-134363309D02*
X10845238Y-134239500D01*
X10845238Y-134239500D02*
X11030952Y-134177595D01*
X11030952Y-134177595D02*
X11154761Y-134177595D01*
X11154761Y-134177595D02*
X11340476Y-134239500D01*
X11340476Y-134239500D02*
X11402380Y-134301404D01*
D10*
D11*
X10659523Y-185477595D02*
X10659523Y-184177595D01*
X10659523Y-184177595D02*
X10969047Y-184177595D01*
X10969047Y-184177595D02*
X11154761Y-184239500D01*
X11154761Y-184239500D02*
X11278571Y-184363309D01*
X11278571Y-184363309D02*
X11340476Y-184487119D01*
X11340476Y-184487119D02*
X11402380Y-184734738D01*
X11402380Y-184734738D02*
X11402380Y-184920452D01*
X11402380Y-184920452D02*
X11340476Y-185168071D01*
X11340476Y-185168071D02*
X11278571Y-185291880D01*
X11278571Y-185291880D02*
X11154761Y-185415690D01*
X11154761Y-185415690D02*
X10969047Y-185477595D01*
X10969047Y-185477595D02*
X10659523Y-185477595D01*
D10*
D11*
X287002200Y-60000000D02*
X285002200Y-60000000D01*
D10*
D11*
X287002200Y-110000000D02*
X285002200Y-110000000D01*
D10*
D11*
X287002200Y-160000000D02*
X285002200Y-160000000D01*
D10*
D11*
X285692676Y-35106166D02*
X286311723Y-35106166D01*
X285568866Y-35477595D02*
X286002199Y-34177595D01*
X286002199Y-34177595D02*
X286435533Y-35477595D01*
D10*
D11*
X286095057Y-84796642D02*
X286280771Y-84858547D01*
X286280771Y-84858547D02*
X286342676Y-84920452D01*
X286342676Y-84920452D02*
X286404580Y-85044261D01*
X286404580Y-85044261D02*
X286404580Y-85229976D01*
X286404580Y-85229976D02*
X286342676Y-85353785D01*
X286342676Y-85353785D02*
X286280771Y-85415690D01*
X286280771Y-85415690D02*
X286156961Y-85477595D01*
X286156961Y-85477595D02*
X285661723Y-85477595D01*
X285661723Y-85477595D02*
X285661723Y-84177595D01*
X285661723Y-84177595D02*
X286095057Y-84177595D01*
X286095057Y-84177595D02*
X286218866Y-84239500D01*
X286218866Y-84239500D02*
X286280771Y-84301404D01*
X286280771Y-84301404D02*
X286342676Y-84425214D01*
X286342676Y-84425214D02*
X286342676Y-84549023D01*
X286342676Y-84549023D02*
X286280771Y-84672833D01*
X286280771Y-84672833D02*
X286218866Y-84734738D01*
X286218866Y-84734738D02*
X286095057Y-84796642D01*
X286095057Y-84796642D02*
X285661723Y-84796642D01*
D10*
D11*
X286404580Y-135353785D02*
X286342676Y-135415690D01*
X286342676Y-135415690D02*
X286156961Y-135477595D01*
X286156961Y-135477595D02*
X286033152Y-135477595D01*
X286033152Y-135477595D02*
X285847438Y-135415690D01*
X285847438Y-135415690D02*
X285723628Y-135291880D01*
X285723628Y-135291880D02*
X285661723Y-135168071D01*
X285661723Y-135168071D02*
X285599819Y-134920452D01*
X285599819Y-134920452D02*
X285599819Y-134734738D01*
X285599819Y-134734738D02*
X285661723Y-134487119D01*
X285661723Y-134487119D02*
X285723628Y-134363309D01*
X285723628Y-134363309D02*
X285847438Y-134239500D01*
X285847438Y-134239500D02*
X286033152Y-134177595D01*
X286033152Y-134177595D02*
X286156961Y-134177595D01*
X286156961Y-134177595D02*
X286342676Y-134239500D01*
X286342676Y-134239500D02*
X286404580Y-134301404D01*
D10*
D11*
X285661723Y-185477595D02*
X285661723Y-184177595D01*
X285661723Y-184177595D02*
X285971247Y-184177595D01*
X285971247Y-184177595D02*
X286156961Y-184239500D01*
X286156961Y-184239500D02*
X286280771Y-184363309D01*
X286280771Y-184363309D02*
X286342676Y-184487119D01*
X286342676Y-184487119D02*
X286404580Y-184734738D01*
X286404580Y-184734738D02*
X286404580Y-184920452D01*
X286404580Y-184920452D02*
X286342676Y-185168071D01*
X286342676Y-185168071D02*
X286280771Y-185291880D01*
X286280771Y-185291880D02*
X286156961Y-185415690D01*
X286156961Y-185415690D02*
X285971247Y-185477595D01*
X285971247Y-185477595D02*
X285661723Y-185477595D01*
D10*
D11*
X200359342Y-193658271D02*
X200359342Y-192158271D01*
X200359342Y-192158271D02*
X200716485Y-192158271D01*
X200716485Y-192158271D02*
X200930771Y-192229700D01*
X200930771Y-192229700D02*
X201073628Y-192372557D01*
X201073628Y-192372557D02*
X201145057Y-192515414D01*
X201145057Y-192515414D02*
X201216485Y-192801128D01*
X201216485Y-192801128D02*
X201216485Y-193015414D01*
X201216485Y-193015414D02*
X201145057Y-193301128D01*
X201145057Y-193301128D02*
X201073628Y-193443985D01*
X201073628Y-193443985D02*
X200930771Y-193586842D01*
X200930771Y-193586842D02*
X200716485Y-193658271D01*
X200716485Y-193658271D02*
X200359342Y-193658271D01*
X202502200Y-193658271D02*
X202502200Y-192872557D01*
X202502200Y-192872557D02*
X202430771Y-192729700D01*
X202430771Y-192729700D02*
X202287914Y-192658271D01*
X202287914Y-192658271D02*
X202002200Y-192658271D01*
X202002200Y-192658271D02*
X201859342Y-192729700D01*
X202502200Y-193586842D02*
X202359342Y-193658271D01*
X202359342Y-193658271D02*
X202002200Y-193658271D01*
X202002200Y-193658271D02*
X201859342Y-193586842D01*
X201859342Y-193586842D02*
X201787914Y-193443985D01*
X201787914Y-193443985D02*
X201787914Y-193301128D01*
X201787914Y-193301128D02*
X201859342Y-193158271D01*
X201859342Y-193158271D02*
X202002200Y-193086842D01*
X202002200Y-193086842D02*
X202359342Y-193086842D01*
X202359342Y-193086842D02*
X202502200Y-193015414D01*
X203002200Y-192658271D02*
X203573628Y-192658271D01*
X203216485Y-192158271D02*
X203216485Y-193443985D01*
X203216485Y-193443985D02*
X203287914Y-193586842D01*
X203287914Y-193586842D02*
X203430771Y-193658271D01*
X203430771Y-193658271D02*
X203573628Y-193658271D01*
X204645057Y-193586842D02*
X204502200Y-193658271D01*
X204502200Y-193658271D02*
X204216486Y-193658271D01*
X204216486Y-193658271D02*
X204073628Y-193586842D01*
X204073628Y-193586842D02*
X204002200Y-193443985D01*
X204002200Y-193443985D02*
X204002200Y-192872557D01*
X204002200Y-192872557D02*
X204073628Y-192729700D01*
X204073628Y-192729700D02*
X204216486Y-192658271D01*
X204216486Y-192658271D02*
X204502200Y-192658271D01*
X204502200Y-192658271D02*
X204645057Y-192729700D01*
X204645057Y-192729700D02*
X204716486Y-192872557D01*
X204716486Y-192872557D02*
X204716486Y-193015414D01*
X204716486Y-193015414D02*
X204002200Y-193158271D01*
X205359342Y-193515414D02*
X205430771Y-193586842D01*
X205430771Y-193586842D02*
X205359342Y-193658271D01*
X205359342Y-193658271D02*
X205287914Y-193586842D01*
X205287914Y-193586842D02*
X205359342Y-193515414D01*
X205359342Y-193515414D02*
X205359342Y-193658271D01*
X205359342Y-192729700D02*
X205430771Y-192801128D01*
X205430771Y-192801128D02*
X205359342Y-192872557D01*
X205359342Y-192872557D02*
X205287914Y-192801128D01*
X205287914Y-192801128D02*
X205359342Y-192729700D01*
X205359342Y-192729700D02*
X205359342Y-192872557D01*
D10*
D11*
X177002200Y-194507200D02*
X285002200Y-194507200D01*
D10*
D11*
X178359342Y-196458271D02*
X178359342Y-194958271D01*
X179216485Y-196458271D02*
X178573628Y-195601128D01*
X179216485Y-194958271D02*
X178359342Y-195815414D01*
X179859342Y-196458271D02*
X179859342Y-195458271D01*
X179859342Y-194958271D02*
X179787914Y-195029700D01*
X179787914Y-195029700D02*
X179859342Y-195101128D01*
X179859342Y-195101128D02*
X179930771Y-195029700D01*
X179930771Y-195029700D02*
X179859342Y-194958271D01*
X179859342Y-194958271D02*
X179859342Y-195101128D01*
X181430771Y-196315414D02*
X181359343Y-196386842D01*
X181359343Y-196386842D02*
X181145057Y-196458271D01*
X181145057Y-196458271D02*
X181002200Y-196458271D01*
X181002200Y-196458271D02*
X180787914Y-196386842D01*
X180787914Y-196386842D02*
X180645057Y-196243985D01*
X180645057Y-196243985D02*
X180573628Y-196101128D01*
X180573628Y-196101128D02*
X180502200Y-195815414D01*
X180502200Y-195815414D02*
X180502200Y-195601128D01*
X180502200Y-195601128D02*
X180573628Y-195315414D01*
X180573628Y-195315414D02*
X180645057Y-195172557D01*
X180645057Y-195172557D02*
X180787914Y-195029700D01*
X180787914Y-195029700D02*
X181002200Y-194958271D01*
X181002200Y-194958271D02*
X181145057Y-194958271D01*
X181145057Y-194958271D02*
X181359343Y-195029700D01*
X181359343Y-195029700D02*
X181430771Y-195101128D01*
X182716486Y-196458271D02*
X182716486Y-195672557D01*
X182716486Y-195672557D02*
X182645057Y-195529700D01*
X182645057Y-195529700D02*
X182502200Y-195458271D01*
X182502200Y-195458271D02*
X182216486Y-195458271D01*
X182216486Y-195458271D02*
X182073628Y-195529700D01*
X182716486Y-196386842D02*
X182573628Y-196458271D01*
X182573628Y-196458271D02*
X182216486Y-196458271D01*
X182216486Y-196458271D02*
X182073628Y-196386842D01*
X182073628Y-196386842D02*
X182002200Y-196243985D01*
X182002200Y-196243985D02*
X182002200Y-196101128D01*
X182002200Y-196101128D02*
X182073628Y-195958271D01*
X182073628Y-195958271D02*
X182216486Y-195886842D01*
X182216486Y-195886842D02*
X182573628Y-195886842D01*
X182573628Y-195886842D02*
X182716486Y-195815414D01*
X184073629Y-196458271D02*
X184073629Y-194958271D01*
X184073629Y-196386842D02*
X183930771Y-196458271D01*
X183930771Y-196458271D02*
X183645057Y-196458271D01*
X183645057Y-196458271D02*
X183502200Y-196386842D01*
X183502200Y-196386842D02*
X183430771Y-196315414D01*
X183430771Y-196315414D02*
X183359343Y-196172557D01*
X183359343Y-196172557D02*
X183359343Y-195743985D01*
X183359343Y-195743985D02*
X183430771Y-195601128D01*
X183430771Y-195601128D02*
X183502200Y-195529700D01*
X183502200Y-195529700D02*
X183645057Y-195458271D01*
X183645057Y-195458271D02*
X183930771Y-195458271D01*
X183930771Y-195458271D02*
X184073629Y-195529700D01*
X185687914Y-195672557D02*
X186187914Y-195672557D01*
X186402200Y-196458271D02*
X185687914Y-196458271D01*
X185687914Y-196458271D02*
X185687914Y-194958271D01*
X185687914Y-194958271D02*
X186402200Y-194958271D01*
X187045057Y-196315414D02*
X187116486Y-196386842D01*
X187116486Y-196386842D02*
X187045057Y-196458271D01*
X187045057Y-196458271D02*
X186973629Y-196386842D01*
X186973629Y-196386842D02*
X187045057Y-196315414D01*
X187045057Y-196315414D02*
X187045057Y-196458271D01*
X187759343Y-196458271D02*
X187759343Y-194958271D01*
X187759343Y-194958271D02*
X188116486Y-194958271D01*
X188116486Y-194958271D02*
X188330772Y-195029700D01*
X188330772Y-195029700D02*
X188473629Y-195172557D01*
X188473629Y-195172557D02*
X188545058Y-195315414D01*
X188545058Y-195315414D02*
X188616486Y-195601128D01*
X188616486Y-195601128D02*
X188616486Y-195815414D01*
X188616486Y-195815414D02*
X188545058Y-196101128D01*
X188545058Y-196101128D02*
X188473629Y-196243985D01*
X188473629Y-196243985D02*
X188330772Y-196386842D01*
X188330772Y-196386842D02*
X188116486Y-196458271D01*
X188116486Y-196458271D02*
X187759343Y-196458271D01*
X189259343Y-196315414D02*
X189330772Y-196386842D01*
X189330772Y-196386842D02*
X189259343Y-196458271D01*
X189259343Y-196458271D02*
X189187915Y-196386842D01*
X189187915Y-196386842D02*
X189259343Y-196315414D01*
X189259343Y-196315414D02*
X189259343Y-196458271D01*
X189902201Y-196029700D02*
X190616487Y-196029700D01*
X189759344Y-196458271D02*
X190259344Y-194958271D01*
X190259344Y-194958271D02*
X190759344Y-196458271D01*
X191259343Y-196315414D02*
X191330772Y-196386842D01*
X191330772Y-196386842D02*
X191259343Y-196458271D01*
X191259343Y-196458271D02*
X191187915Y-196386842D01*
X191187915Y-196386842D02*
X191259343Y-196315414D01*
X191259343Y-196315414D02*
X191259343Y-196458271D01*
X193773629Y-195458271D02*
X193773629Y-196958271D01*
X193773629Y-195529700D02*
X193916487Y-195458271D01*
X193916487Y-195458271D02*
X194202201Y-195458271D01*
X194202201Y-195458271D02*
X194345058Y-195529700D01*
X194345058Y-195529700D02*
X194416487Y-195601128D01*
X194416487Y-195601128D02*
X194487915Y-195743985D01*
X194487915Y-195743985D02*
X194487915Y-196172557D01*
X194487915Y-196172557D02*
X194416487Y-196315414D01*
X194416487Y-196315414D02*
X194345058Y-196386842D01*
X194345058Y-196386842D02*
X194202201Y-196458271D01*
X194202201Y-196458271D02*
X193916487Y-196458271D01*
X193916487Y-196458271D02*
X193773629Y-196386842D01*
X195773630Y-196386842D02*
X195630772Y-196458271D01*
X195630772Y-196458271D02*
X195345058Y-196458271D01*
X195345058Y-196458271D02*
X195202201Y-196386842D01*
X195202201Y-196386842D02*
X195130772Y-196315414D01*
X195130772Y-196315414D02*
X195059344Y-196172557D01*
X195059344Y-196172557D02*
X195059344Y-195743985D01*
X195059344Y-195743985D02*
X195130772Y-195601128D01*
X195130772Y-195601128D02*
X195202201Y-195529700D01*
X195202201Y-195529700D02*
X195345058Y-195458271D01*
X195345058Y-195458271D02*
X195630772Y-195458271D01*
X195630772Y-195458271D02*
X195773630Y-195529700D01*
X196416486Y-196458271D02*
X196416486Y-194958271D01*
X196416486Y-195529700D02*
X196559344Y-195458271D01*
X196559344Y-195458271D02*
X196845058Y-195458271D01*
X196845058Y-195458271D02*
X196987915Y-195529700D01*
X196987915Y-195529700D02*
X197059344Y-195601128D01*
X197059344Y-195601128D02*
X197130772Y-195743985D01*
X197130772Y-195743985D02*
X197130772Y-196172557D01*
X197130772Y-196172557D02*
X197059344Y-196315414D01*
X197059344Y-196315414D02*
X196987915Y-196386842D01*
X196987915Y-196386842D02*
X196845058Y-196458271D01*
X196845058Y-196458271D02*
X196559344Y-196458271D01*
X196559344Y-196458271D02*
X196416486Y-196386842D01*
X197773629Y-195458271D02*
X197773629Y-196458271D01*
X197773629Y-195601128D02*
X197845058Y-195529700D01*
X197845058Y-195529700D02*
X197987915Y-195458271D01*
X197987915Y-195458271D02*
X198202201Y-195458271D01*
X198202201Y-195458271D02*
X198345058Y-195529700D01*
X198345058Y-195529700D02*
X198416487Y-195672557D01*
X198416487Y-195672557D02*
X198416487Y-196458271D01*
X199702201Y-196386842D02*
X199559344Y-196458271D01*
X199559344Y-196458271D02*
X199273630Y-196458271D01*
X199273630Y-196458271D02*
X199130772Y-196386842D01*
X199130772Y-196386842D02*
X199059344Y-196243985D01*
X199059344Y-196243985D02*
X199059344Y-195672557D01*
X199059344Y-195672557D02*
X199130772Y-195529700D01*
X199130772Y-195529700D02*
X199273630Y-195458271D01*
X199273630Y-195458271D02*
X199559344Y-195458271D01*
X199559344Y-195458271D02*
X199702201Y-195529700D01*
X199702201Y-195529700D02*
X199773630Y-195672557D01*
X199773630Y-195672557D02*
X199773630Y-195815414D01*
X199773630Y-195815414D02*
X199059344Y-195958271D01*
X200273629Y-195458271D02*
X200559344Y-196458271D01*
X200559344Y-196458271D02*
X200845058Y-195743985D01*
X200845058Y-195743985D02*
X201130772Y-196458271D01*
X201130772Y-196458271D02*
X201416486Y-195458271D01*
X203316487Y-197029700D02*
X203245058Y-196958271D01*
X203245058Y-196958271D02*
X203102201Y-196743985D01*
X203102201Y-196743985D02*
X203030773Y-196601128D01*
X203030773Y-196601128D02*
X202959344Y-196386842D01*
X202959344Y-196386842D02*
X202887915Y-196029700D01*
X202887915Y-196029700D02*
X202887915Y-195743985D01*
X202887915Y-195743985D02*
X202959344Y-195386842D01*
X202959344Y-195386842D02*
X203030773Y-195172557D01*
X203030773Y-195172557D02*
X203102201Y-195029700D01*
X203102201Y-195029700D02*
X203245058Y-194815414D01*
X203245058Y-194815414D02*
X203316487Y-194743985D01*
X203745058Y-194958271D02*
X204745058Y-194958271D01*
X204745058Y-194958271D02*
X204102201Y-196458271D01*
X205316486Y-196315414D02*
X205387915Y-196386842D01*
X205387915Y-196386842D02*
X205316486Y-196458271D01*
X205316486Y-196458271D02*
X205245058Y-196386842D01*
X205245058Y-196386842D02*
X205316486Y-196315414D01*
X205316486Y-196315414D02*
X205316486Y-196458271D01*
X206316487Y-194958271D02*
X206459344Y-194958271D01*
X206459344Y-194958271D02*
X206602201Y-195029700D01*
X206602201Y-195029700D02*
X206673630Y-195101128D01*
X206673630Y-195101128D02*
X206745058Y-195243985D01*
X206745058Y-195243985D02*
X206816487Y-195529700D01*
X206816487Y-195529700D02*
X206816487Y-195886842D01*
X206816487Y-195886842D02*
X206745058Y-196172557D01*
X206745058Y-196172557D02*
X206673630Y-196315414D01*
X206673630Y-196315414D02*
X206602201Y-196386842D01*
X206602201Y-196386842D02*
X206459344Y-196458271D01*
X206459344Y-196458271D02*
X206316487Y-196458271D01*
X206316487Y-196458271D02*
X206173630Y-196386842D01*
X206173630Y-196386842D02*
X206102201Y-196315414D01*
X206102201Y-196315414D02*
X206030772Y-196172557D01*
X206030772Y-196172557D02*
X205959344Y-195886842D01*
X205959344Y-195886842D02*
X205959344Y-195529700D01*
X205959344Y-195529700D02*
X206030772Y-195243985D01*
X206030772Y-195243985D02*
X206102201Y-195101128D01*
X206102201Y-195101128D02*
X206173630Y-195029700D01*
X206173630Y-195029700D02*
X206316487Y-194958271D01*
X207459343Y-196315414D02*
X207530772Y-196386842D01*
X207530772Y-196386842D02*
X207459343Y-196458271D01*
X207459343Y-196458271D02*
X207387915Y-196386842D01*
X207387915Y-196386842D02*
X207459343Y-196315414D01*
X207459343Y-196315414D02*
X207459343Y-196458271D01*
X208459344Y-194958271D02*
X208602201Y-194958271D01*
X208602201Y-194958271D02*
X208745058Y-195029700D01*
X208745058Y-195029700D02*
X208816487Y-195101128D01*
X208816487Y-195101128D02*
X208887915Y-195243985D01*
X208887915Y-195243985D02*
X208959344Y-195529700D01*
X208959344Y-195529700D02*
X208959344Y-195886842D01*
X208959344Y-195886842D02*
X208887915Y-196172557D01*
X208887915Y-196172557D02*
X208816487Y-196315414D01*
X208816487Y-196315414D02*
X208745058Y-196386842D01*
X208745058Y-196386842D02*
X208602201Y-196458271D01*
X208602201Y-196458271D02*
X208459344Y-196458271D01*
X208459344Y-196458271D02*
X208316487Y-196386842D01*
X208316487Y-196386842D02*
X208245058Y-196315414D01*
X208245058Y-196315414D02*
X208173629Y-196172557D01*
X208173629Y-196172557D02*
X208102201Y-195886842D01*
X208102201Y-195886842D02*
X208102201Y-195529700D01*
X208102201Y-195529700D02*
X208173629Y-195243985D01*
X208173629Y-195243985D02*
X208245058Y-195101128D01*
X208245058Y-195101128D02*
X208316487Y-195029700D01*
X208316487Y-195029700D02*
X208459344Y-194958271D01*
X209459343Y-197029700D02*
X209530772Y-196958271D01*
X209530772Y-196958271D02*
X209673629Y-196743985D01*
X209673629Y-196743985D02*
X209745058Y-196601128D01*
X209745058Y-196601128D02*
X209816486Y-196386842D01*
X209816486Y-196386842D02*
X209887915Y-196029700D01*
X209887915Y-196029700D02*
X209887915Y-195743985D01*
X209887915Y-195743985D02*
X209816486Y-195386842D01*
X209816486Y-195386842D02*
X209745058Y-195172557D01*
X209745058Y-195172557D02*
X209673629Y-195029700D01*
X209673629Y-195029700D02*
X209530772Y-194815414D01*
X209530772Y-194815414D02*
X209459343Y-194743985D01*
D10*
D11*
X177002200Y-191507200D02*
X285002200Y-191507200D01*
D10*
D12*
X264216485Y-193658271D02*
X263716485Y-192943985D01*
X263359342Y-193658271D02*
X263359342Y-192158271D01*
X263359342Y-192158271D02*
X263930771Y-192158271D01*
X263930771Y-192158271D02*
X264073628Y-192229700D01*
X264073628Y-192229700D02*
X264145057Y-192301128D01*
X264145057Y-192301128D02*
X264216485Y-192443985D01*
X264216485Y-192443985D02*
X264216485Y-192658271D01*
X264216485Y-192658271D02*
X264145057Y-192801128D01*
X264145057Y-192801128D02*
X264073628Y-192872557D01*
X264073628Y-192872557D02*
X263930771Y-192943985D01*
X263930771Y-192943985D02*
X263359342Y-192943985D01*
X265430771Y-193586842D02*
X265287914Y-193658271D01*
X265287914Y-193658271D02*
X265002200Y-193658271D01*
X265002200Y-193658271D02*
X264859342Y-193586842D01*
X264859342Y-193586842D02*
X264787914Y-193443985D01*
X264787914Y-193443985D02*
X264787914Y-192872557D01*
X264787914Y-192872557D02*
X264859342Y-192729700D01*
X264859342Y-192729700D02*
X265002200Y-192658271D01*
X265002200Y-192658271D02*
X265287914Y-192658271D01*
X265287914Y-192658271D02*
X265430771Y-192729700D01*
X265430771Y-192729700D02*
X265502200Y-192872557D01*
X265502200Y-192872557D02*
X265502200Y-193015414D01*
X265502200Y-193015414D02*
X264787914Y-193158271D01*
X266002199Y-192658271D02*
X266359342Y-193658271D01*
X266359342Y-193658271D02*
X266716485Y-192658271D01*
X267287913Y-193515414D02*
X267359342Y-193586842D01*
X267359342Y-193586842D02*
X267287913Y-193658271D01*
X267287913Y-193658271D02*
X267216485Y-193586842D01*
X267216485Y-193586842D02*
X267287913Y-193515414D01*
X267287913Y-193515414D02*
X267287913Y-193658271D01*
X267287913Y-192729700D02*
X267359342Y-192801128D01*
X267359342Y-192801128D02*
X267287913Y-192872557D01*
X267287913Y-192872557D02*
X267216485Y-192801128D01*
X267216485Y-192801128D02*
X267287913Y-192729700D01*
X267287913Y-192729700D02*
X267287913Y-192872557D01*
D10*
D11*
X178287914Y-193586842D02*
X178502200Y-193658271D01*
X178502200Y-193658271D02*
X178859342Y-193658271D01*
X178859342Y-193658271D02*
X179002200Y-193586842D01*
X179002200Y-193586842D02*
X179073628Y-193515414D01*
X179073628Y-193515414D02*
X179145057Y-193372557D01*
X179145057Y-193372557D02*
X179145057Y-193229700D01*
X179145057Y-193229700D02*
X179073628Y-193086842D01*
X179073628Y-193086842D02*
X179002200Y-193015414D01*
X179002200Y-193015414D02*
X178859342Y-192943985D01*
X178859342Y-192943985D02*
X178573628Y-192872557D01*
X178573628Y-192872557D02*
X178430771Y-192801128D01*
X178430771Y-192801128D02*
X178359342Y-192729700D01*
X178359342Y-192729700D02*
X178287914Y-192586842D01*
X178287914Y-192586842D02*
X178287914Y-192443985D01*
X178287914Y-192443985D02*
X178359342Y-192301128D01*
X178359342Y-192301128D02*
X178430771Y-192229700D01*
X178430771Y-192229700D02*
X178573628Y-192158271D01*
X178573628Y-192158271D02*
X178930771Y-192158271D01*
X178930771Y-192158271D02*
X179145057Y-192229700D01*
X179787913Y-193658271D02*
X179787913Y-192658271D01*
X179787913Y-192158271D02*
X179716485Y-192229700D01*
X179716485Y-192229700D02*
X179787913Y-192301128D01*
X179787913Y-192301128D02*
X179859342Y-192229700D01*
X179859342Y-192229700D02*
X179787913Y-192158271D01*
X179787913Y-192158271D02*
X179787913Y-192301128D01*
X180359342Y-192658271D02*
X181145057Y-192658271D01*
X181145057Y-192658271D02*
X180359342Y-193658271D01*
X180359342Y-193658271D02*
X181145057Y-193658271D01*
X182287914Y-193586842D02*
X182145057Y-193658271D01*
X182145057Y-193658271D02*
X181859343Y-193658271D01*
X181859343Y-193658271D02*
X181716485Y-193586842D01*
X181716485Y-193586842D02*
X181645057Y-193443985D01*
X181645057Y-193443985D02*
X181645057Y-192872557D01*
X181645057Y-192872557D02*
X181716485Y-192729700D01*
X181716485Y-192729700D02*
X181859343Y-192658271D01*
X181859343Y-192658271D02*
X182145057Y-192658271D01*
X182145057Y-192658271D02*
X182287914Y-192729700D01*
X182287914Y-192729700D02*
X182359343Y-192872557D01*
X182359343Y-192872557D02*
X182359343Y-193015414D01*
X182359343Y-193015414D02*
X181645057Y-193158271D01*
X183002199Y-193515414D02*
X183073628Y-193586842D01*
X183073628Y-193586842D02*
X183002199Y-193658271D01*
X183002199Y-193658271D02*
X182930771Y-193586842D01*
X182930771Y-193586842D02*
X183002199Y-193515414D01*
X183002199Y-193515414D02*
X183002199Y-193658271D01*
X183002199Y-192729700D02*
X183073628Y-192801128D01*
X183073628Y-192801128D02*
X183002199Y-192872557D01*
X183002199Y-192872557D02*
X182930771Y-192801128D01*
X182930771Y-192801128D02*
X183002199Y-192729700D01*
X183002199Y-192729700D02*
X183002199Y-192872557D01*
X184545057Y-193229700D02*
X185259343Y-193229700D01*
X184402200Y-193658271D02*
X184902200Y-192158271D01*
X184902200Y-192158271D02*
X185402200Y-193658271D01*
X186545057Y-192658271D02*
X186545057Y-193658271D01*
X186187914Y-192086842D02*
X185830771Y-193158271D01*
X185830771Y-193158271D02*
X186759342Y-193158271D01*
D10*
D11*
X263359342Y-196458271D02*
X263359342Y-194958271D01*
X264716486Y-196458271D02*
X264716486Y-194958271D01*
X264716486Y-196386842D02*
X264573628Y-196458271D01*
X264573628Y-196458271D02*
X264287914Y-196458271D01*
X264287914Y-196458271D02*
X264145057Y-196386842D01*
X264145057Y-196386842D02*
X264073628Y-196315414D01*
X264073628Y-196315414D02*
X264002200Y-196172557D01*
X264002200Y-196172557D02*
X264002200Y-195743985D01*
X264002200Y-195743985D02*
X264073628Y-195601128D01*
X264073628Y-195601128D02*
X264145057Y-195529700D01*
X264145057Y-195529700D02*
X264287914Y-195458271D01*
X264287914Y-195458271D02*
X264573628Y-195458271D01*
X264573628Y-195458271D02*
X264716486Y-195529700D01*
X265430771Y-196315414D02*
X265502200Y-196386842D01*
X265502200Y-196386842D02*
X265430771Y-196458271D01*
X265430771Y-196458271D02*
X265359343Y-196386842D01*
X265359343Y-196386842D02*
X265430771Y-196315414D01*
X265430771Y-196315414D02*
X265430771Y-196458271D01*
X265430771Y-195529700D02*
X265502200Y-195601128D01*
X265502200Y-195601128D02*
X265430771Y-195672557D01*
X265430771Y-195672557D02*
X265359343Y-195601128D01*
X265359343Y-195601128D02*
X265430771Y-195529700D01*
X265430771Y-195529700D02*
X265430771Y-195672557D01*
X267830772Y-196458271D02*
X266973629Y-196458271D01*
X267402200Y-196458271D02*
X267402200Y-194958271D01*
X267402200Y-194958271D02*
X267259343Y-195172557D01*
X267259343Y-195172557D02*
X267116486Y-195315414D01*
X267116486Y-195315414D02*
X266973629Y-195386842D01*
X269545057Y-194886842D02*
X268259343Y-196815414D01*
X270830772Y-196458271D02*
X269973629Y-196458271D01*
X270402200Y-196458271D02*
X270402200Y-194958271D01*
X270402200Y-194958271D02*
X270259343Y-195172557D01*
X270259343Y-195172557D02*
X270116486Y-195315414D01*
X270116486Y-195315414D02*
X269973629Y-195386842D01*
D10*
D11*
X177002200Y-187507200D02*
X285002200Y-187507200D01*
D10*
D13*
X178454580Y-188041961D02*
X179597438Y-188041961D01*
X178776009Y-190041961D02*
X179026009Y-188041961D01*
X180014105Y-190041961D02*
X180180771Y-188708628D01*
X180264105Y-188041961D02*
X180156962Y-188137200D01*
X180156962Y-188137200D02*
X180240295Y-188232438D01*
X180240295Y-188232438D02*
X180347438Y-188137200D01*
X180347438Y-188137200D02*
X180264105Y-188041961D01*
X180264105Y-188041961D02*
X180240295Y-188232438D01*
X180847438Y-188708628D02*
X181609343Y-188708628D01*
X181216486Y-188041961D02*
X181002200Y-189756247D01*
X181002200Y-189756247D02*
X181073629Y-189946723D01*
X181073629Y-189946723D02*
X181252200Y-190041961D01*
X181252200Y-190041961D02*
X181442676Y-190041961D01*
X182395057Y-190041961D02*
X182216486Y-189946723D01*
X182216486Y-189946723D02*
X182145057Y-189756247D01*
X182145057Y-189756247D02*
X182359343Y-188041961D01*
X183930771Y-189946723D02*
X183728390Y-190041961D01*
X183728390Y-190041961D02*
X183347438Y-190041961D01*
X183347438Y-190041961D02*
X183168867Y-189946723D01*
X183168867Y-189946723D02*
X183097438Y-189756247D01*
X183097438Y-189756247D02*
X183192676Y-188994342D01*
X183192676Y-188994342D02*
X183311724Y-188803866D01*
X183311724Y-188803866D02*
X183514105Y-188708628D01*
X183514105Y-188708628D02*
X183895057Y-188708628D01*
X183895057Y-188708628D02*
X184073628Y-188803866D01*
X184073628Y-188803866D02*
X184145057Y-188994342D01*
X184145057Y-188994342D02*
X184121247Y-189184819D01*
X184121247Y-189184819D02*
X183145057Y-189375295D01*
X184895057Y-189851485D02*
X184978391Y-189946723D01*
X184978391Y-189946723D02*
X184871248Y-190041961D01*
X184871248Y-190041961D02*
X184787914Y-189946723D01*
X184787914Y-189946723D02*
X184895057Y-189851485D01*
X184895057Y-189851485D02*
X184871248Y-190041961D01*
X185026010Y-188803866D02*
X185109343Y-188899104D01*
X185109343Y-188899104D02*
X185002200Y-188994342D01*
X185002200Y-188994342D02*
X184918867Y-188899104D01*
X184918867Y-188899104D02*
X185026010Y-188803866D01*
X185026010Y-188803866D02*
X185002200Y-188994342D01*
D10*
D11*
X178859342Y-185472557D02*
X178359342Y-185472557D01*
X178359342Y-186258271D02*
X178359342Y-184758271D01*
X178359342Y-184758271D02*
X179073628Y-184758271D01*
X179645056Y-186258271D02*
X179645056Y-185258271D01*
X179645056Y-184758271D02*
X179573628Y-184829700D01*
X179573628Y-184829700D02*
X179645056Y-184901128D01*
X179645056Y-184901128D02*
X179716485Y-184829700D01*
X179716485Y-184829700D02*
X179645056Y-184758271D01*
X179645056Y-184758271D02*
X179645056Y-184901128D01*
X180573628Y-186258271D02*
X180430771Y-186186842D01*
X180430771Y-186186842D02*
X180359342Y-186043985D01*
X180359342Y-186043985D02*
X180359342Y-184758271D01*
X181716485Y-186186842D02*
X181573628Y-186258271D01*
X181573628Y-186258271D02*
X181287914Y-186258271D01*
X181287914Y-186258271D02*
X181145056Y-186186842D01*
X181145056Y-186186842D02*
X181073628Y-186043985D01*
X181073628Y-186043985D02*
X181073628Y-185472557D01*
X181073628Y-185472557D02*
X181145056Y-185329700D01*
X181145056Y-185329700D02*
X181287914Y-185258271D01*
X181287914Y-185258271D02*
X181573628Y-185258271D01*
X181573628Y-185258271D02*
X181716485Y-185329700D01*
X181716485Y-185329700D02*
X181787914Y-185472557D01*
X181787914Y-185472557D02*
X181787914Y-185615414D01*
X181787914Y-185615414D02*
X181073628Y-185758271D01*
X182430770Y-186115414D02*
X182502199Y-186186842D01*
X182502199Y-186186842D02*
X182430770Y-186258271D01*
X182430770Y-186258271D02*
X182359342Y-186186842D01*
X182359342Y-186186842D02*
X182430770Y-186115414D01*
X182430770Y-186115414D02*
X182430770Y-186258271D01*
X182430770Y-185329700D02*
X182502199Y-185401128D01*
X182502199Y-185401128D02*
X182430770Y-185472557D01*
X182430770Y-185472557D02*
X182359342Y-185401128D01*
X182359342Y-185401128D02*
X182430770Y-185329700D01*
X182430770Y-185329700D02*
X182430770Y-185472557D01*
X184902199Y-186115414D02*
X184830771Y-186186842D01*
X184830771Y-186186842D02*
X184616485Y-186258271D01*
X184616485Y-186258271D02*
X184473628Y-186258271D01*
X184473628Y-186258271D02*
X184259342Y-186186842D01*
X184259342Y-186186842D02*
X184116485Y-186043985D01*
X184116485Y-186043985D02*
X184045056Y-185901128D01*
X184045056Y-185901128D02*
X183973628Y-185615414D01*
X183973628Y-185615414D02*
X183973628Y-185401128D01*
X183973628Y-185401128D02*
X184045056Y-185115414D01*
X184045056Y-185115414D02*
X184116485Y-184972557D01*
X184116485Y-184972557D02*
X184259342Y-184829700D01*
X184259342Y-184829700D02*
X184473628Y-184758271D01*
X184473628Y-184758271D02*
X184616485Y-184758271D01*
X184616485Y-184758271D02*
X184830771Y-184829700D01*
X184830771Y-184829700D02*
X184902199Y-184901128D01*
X185545056Y-186258271D02*
X185545056Y-185258271D01*
X185545056Y-184758271D02*
X185473628Y-184829700D01*
X185473628Y-184829700D02*
X185545056Y-184901128D01*
X185545056Y-184901128D02*
X185616485Y-184829700D01*
X185616485Y-184829700D02*
X185545056Y-184758271D01*
X185545056Y-184758271D02*
X185545056Y-184901128D01*
X186259342Y-186258271D02*
X186259342Y-185258271D01*
X186259342Y-185543985D02*
X186330771Y-185401128D01*
X186330771Y-185401128D02*
X186402200Y-185329700D01*
X186402200Y-185329700D02*
X186545057Y-185258271D01*
X186545057Y-185258271D02*
X186687914Y-185258271D01*
X187830771Y-186186842D02*
X187687913Y-186258271D01*
X187687913Y-186258271D02*
X187402199Y-186258271D01*
X187402199Y-186258271D02*
X187259342Y-186186842D01*
X187259342Y-186186842D02*
X187187913Y-186115414D01*
X187187913Y-186115414D02*
X187116485Y-185972557D01*
X187116485Y-185972557D02*
X187116485Y-185543985D01*
X187116485Y-185543985D02*
X187187913Y-185401128D01*
X187187913Y-185401128D02*
X187259342Y-185329700D01*
X187259342Y-185329700D02*
X187402199Y-185258271D01*
X187402199Y-185258271D02*
X187687913Y-185258271D01*
X187687913Y-185258271D02*
X187830771Y-185329700D01*
X189116485Y-185258271D02*
X189116485Y-186258271D01*
X188473627Y-185258271D02*
X188473627Y-186043985D01*
X188473627Y-186043985D02*
X188545056Y-186186842D01*
X188545056Y-186186842D02*
X188687913Y-186258271D01*
X188687913Y-186258271D02*
X188902199Y-186258271D01*
X188902199Y-186258271D02*
X189045056Y-186186842D01*
X189045056Y-186186842D02*
X189116485Y-186115414D01*
X189830770Y-186258271D02*
X189830770Y-185258271D01*
X189830770Y-184758271D02*
X189759342Y-184829700D01*
X189759342Y-184829700D02*
X189830770Y-184901128D01*
X189830770Y-184901128D02*
X189902199Y-184829700D01*
X189902199Y-184829700D02*
X189830770Y-184758271D01*
X189830770Y-184758271D02*
X189830770Y-184901128D01*
X190330771Y-185258271D02*
X190902199Y-185258271D01*
X190545056Y-184758271D02*
X190545056Y-186043985D01*
X190545056Y-186043985D02*
X190616485Y-186186842D01*
X190616485Y-186186842D02*
X190759342Y-186258271D01*
X190759342Y-186258271D02*
X190902199Y-186258271D01*
X191973628Y-186186842D02*
X191830771Y-186258271D01*
X191830771Y-186258271D02*
X191545057Y-186258271D01*
X191545057Y-186258271D02*
X191402199Y-186186842D01*
X191402199Y-186186842D02*
X191330771Y-186043985D01*
X191330771Y-186043985D02*
X191330771Y-185472557D01*
X191330771Y-185472557D02*
X191402199Y-185329700D01*
X191402199Y-185329700D02*
X191545057Y-185258271D01*
X191545057Y-185258271D02*
X191830771Y-185258271D01*
X191830771Y-185258271D02*
X191973628Y-185329700D01*
X191973628Y-185329700D02*
X192045057Y-185472557D01*
X192045057Y-185472557D02*
X192045057Y-185615414D01*
X192045057Y-185615414D02*
X191330771Y-185758271D01*
X192687913Y-186258271D02*
X192687913Y-185258271D01*
X192687913Y-185543985D02*
X192759342Y-185401128D01*
X192759342Y-185401128D02*
X192830771Y-185329700D01*
X192830771Y-185329700D02*
X192973628Y-185258271D01*
X192973628Y-185258271D02*
X193116485Y-185258271D01*
X193616484Y-186258271D02*
X193616484Y-185258271D01*
X193616484Y-184758271D02*
X193545056Y-184829700D01*
X193545056Y-184829700D02*
X193616484Y-184901128D01*
X193616484Y-184901128D02*
X193687913Y-184829700D01*
X193687913Y-184829700D02*
X193616484Y-184758271D01*
X193616484Y-184758271D02*
X193616484Y-184901128D01*
X194973628Y-186258271D02*
X194973628Y-185472557D01*
X194973628Y-185472557D02*
X194902199Y-185329700D01*
X194902199Y-185329700D02*
X194759342Y-185258271D01*
X194759342Y-185258271D02*
X194473628Y-185258271D01*
X194473628Y-185258271D02*
X194330770Y-185329700D01*
X194973628Y-186186842D02*
X194830770Y-186258271D01*
X194830770Y-186258271D02*
X194473628Y-186258271D01*
X194473628Y-186258271D02*
X194330770Y-186186842D01*
X194330770Y-186186842D02*
X194259342Y-186043985D01*
X194259342Y-186043985D02*
X194259342Y-185901128D01*
X194259342Y-185901128D02*
X194330770Y-185758271D01*
X194330770Y-185758271D02*
X194473628Y-185686842D01*
X194473628Y-185686842D02*
X194830770Y-185686842D01*
X194830770Y-185686842D02*
X194973628Y-185615414D01*
X195687913Y-185472557D02*
X196187913Y-185472557D01*
X196402199Y-186258271D02*
X195687913Y-186258271D01*
X195687913Y-186258271D02*
X195687913Y-184758271D01*
X195687913Y-184758271D02*
X196402199Y-184758271D01*
X196973628Y-186186842D02*
X197187914Y-186258271D01*
X197187914Y-186258271D02*
X197545056Y-186258271D01*
X197545056Y-186258271D02*
X197687914Y-186186842D01*
X197687914Y-186186842D02*
X197759342Y-186115414D01*
X197759342Y-186115414D02*
X197830771Y-185972557D01*
X197830771Y-185972557D02*
X197830771Y-185829700D01*
X197830771Y-185829700D02*
X197759342Y-185686842D01*
X197759342Y-185686842D02*
X197687914Y-185615414D01*
X197687914Y-185615414D02*
X197545056Y-185543985D01*
X197545056Y-185543985D02*
X197259342Y-185472557D01*
X197259342Y-185472557D02*
X197116485Y-185401128D01*
X197116485Y-185401128D02*
X197045056Y-185329700D01*
X197045056Y-185329700D02*
X196973628Y-185186842D01*
X196973628Y-185186842D02*
X196973628Y-185043985D01*
X196973628Y-185043985D02*
X197045056Y-184901128D01*
X197045056Y-184901128D02*
X197116485Y-184829700D01*
X197116485Y-184829700D02*
X197259342Y-184758271D01*
X197259342Y-184758271D02*
X197616485Y-184758271D01*
X197616485Y-184758271D02*
X197830771Y-184829700D01*
X198473627Y-186258271D02*
X198473627Y-184758271D01*
X198473627Y-184758271D02*
X199045056Y-184758271D01*
X199045056Y-184758271D02*
X199187913Y-184829700D01*
X199187913Y-184829700D02*
X199259342Y-184901128D01*
X199259342Y-184901128D02*
X199330770Y-185043985D01*
X199330770Y-185043985D02*
X199330770Y-185258271D01*
X199330770Y-185258271D02*
X199259342Y-185401128D01*
X199259342Y-185401128D02*
X199187913Y-185472557D01*
X199187913Y-185472557D02*
X199045056Y-185543985D01*
X199045056Y-185543985D02*
X198473627Y-185543985D01*
X199830770Y-184758271D02*
X200759342Y-184758271D01*
X200759342Y-184758271D02*
X200259342Y-185329700D01*
X200259342Y-185329700D02*
X200473627Y-185329700D01*
X200473627Y-185329700D02*
X200616485Y-185401128D01*
X200616485Y-185401128D02*
X200687913Y-185472557D01*
X200687913Y-185472557D02*
X200759342Y-185615414D01*
X200759342Y-185615414D02*
X200759342Y-185972557D01*
X200759342Y-185972557D02*
X200687913Y-186115414D01*
X200687913Y-186115414D02*
X200616485Y-186186842D01*
X200616485Y-186186842D02*
X200473627Y-186258271D01*
X200473627Y-186258271D02*
X200045056Y-186258271D01*
X200045056Y-186258271D02*
X199902199Y-186186842D01*
X199902199Y-186186842D02*
X199830770Y-186115414D01*
X201330770Y-184901128D02*
X201402198Y-184829700D01*
X201402198Y-184829700D02*
X201545056Y-184758271D01*
X201545056Y-184758271D02*
X201902198Y-184758271D01*
X201902198Y-184758271D02*
X202045056Y-184829700D01*
X202045056Y-184829700D02*
X202116484Y-184901128D01*
X202116484Y-184901128D02*
X202187913Y-185043985D01*
X202187913Y-185043985D02*
X202187913Y-185186842D01*
X202187913Y-185186842D02*
X202116484Y-185401128D01*
X202116484Y-185401128D02*
X201259341Y-186258271D01*
X201259341Y-186258271D02*
X202187913Y-186258271D01*
X202830769Y-186115414D02*
X202902198Y-186186842D01*
X202902198Y-186186842D02*
X202830769Y-186258271D01*
X202830769Y-186258271D02*
X202759341Y-186186842D01*
X202759341Y-186186842D02*
X202830769Y-186115414D01*
X202830769Y-186115414D02*
X202830769Y-186258271D01*
X203545055Y-186258271D02*
X203545055Y-184758271D01*
X203687913Y-185686842D02*
X204116484Y-186258271D01*
X204116484Y-185258271D02*
X203545055Y-185829700D01*
X204759341Y-186258271D02*
X204759341Y-185258271D01*
X204759341Y-184758271D02*
X204687913Y-184829700D01*
X204687913Y-184829700D02*
X204759341Y-184901128D01*
X204759341Y-184901128D02*
X204830770Y-184829700D01*
X204830770Y-184829700D02*
X204759341Y-184758271D01*
X204759341Y-184758271D02*
X204759341Y-184901128D01*
X206116485Y-186186842D02*
X205973627Y-186258271D01*
X205973627Y-186258271D02*
X205687913Y-186258271D01*
X205687913Y-186258271D02*
X205545056Y-186186842D01*
X205545056Y-186186842D02*
X205473627Y-186115414D01*
X205473627Y-186115414D02*
X205402199Y-185972557D01*
X205402199Y-185972557D02*
X205402199Y-185543985D01*
X205402199Y-185543985D02*
X205473627Y-185401128D01*
X205473627Y-185401128D02*
X205545056Y-185329700D01*
X205545056Y-185329700D02*
X205687913Y-185258271D01*
X205687913Y-185258271D02*
X205973627Y-185258271D01*
X205973627Y-185258271D02*
X206116485Y-185329700D01*
X207402199Y-186258271D02*
X207402199Y-185472557D01*
X207402199Y-185472557D02*
X207330770Y-185329700D01*
X207330770Y-185329700D02*
X207187913Y-185258271D01*
X207187913Y-185258271D02*
X206902199Y-185258271D01*
X206902199Y-185258271D02*
X206759341Y-185329700D01*
X207402199Y-186186842D02*
X207259341Y-186258271D01*
X207259341Y-186258271D02*
X206902199Y-186258271D01*
X206902199Y-186258271D02*
X206759341Y-186186842D01*
X206759341Y-186186842D02*
X206687913Y-186043985D01*
X206687913Y-186043985D02*
X206687913Y-185901128D01*
X206687913Y-185901128D02*
X206759341Y-185758271D01*
X206759341Y-185758271D02*
X206902199Y-185686842D01*
X206902199Y-185686842D02*
X207259341Y-185686842D01*
X207259341Y-185686842D02*
X207402199Y-185615414D01*
X208759342Y-186258271D02*
X208759342Y-184758271D01*
X208759342Y-186186842D02*
X208616484Y-186258271D01*
X208616484Y-186258271D02*
X208330770Y-186258271D01*
X208330770Y-186258271D02*
X208187913Y-186186842D01*
X208187913Y-186186842D02*
X208116484Y-186115414D01*
X208116484Y-186115414D02*
X208045056Y-185972557D01*
X208045056Y-185972557D02*
X208045056Y-185543985D01*
X208045056Y-185543985D02*
X208116484Y-185401128D01*
X208116484Y-185401128D02*
X208187913Y-185329700D01*
X208187913Y-185329700D02*
X208330770Y-185258271D01*
X208330770Y-185258271D02*
X208616484Y-185258271D01*
X208616484Y-185258271D02*
X208759342Y-185329700D01*
X209116485Y-186401128D02*
X210259342Y-186401128D01*
X210616484Y-185258271D02*
X210616484Y-186758271D01*
X210616484Y-185329700D02*
X210759342Y-185258271D01*
X210759342Y-185258271D02*
X211045056Y-185258271D01*
X211045056Y-185258271D02*
X211187913Y-185329700D01*
X211187913Y-185329700D02*
X211259342Y-185401128D01*
X211259342Y-185401128D02*
X211330770Y-185543985D01*
X211330770Y-185543985D02*
X211330770Y-185972557D01*
X211330770Y-185972557D02*
X211259342Y-186115414D01*
X211259342Y-186115414D02*
X211187913Y-186186842D01*
X211187913Y-186186842D02*
X211045056Y-186258271D01*
X211045056Y-186258271D02*
X210759342Y-186258271D01*
X210759342Y-186258271D02*
X210616484Y-186186842D01*
X212616485Y-186186842D02*
X212473627Y-186258271D01*
X212473627Y-186258271D02*
X212187913Y-186258271D01*
X212187913Y-186258271D02*
X212045056Y-186186842D01*
X212045056Y-186186842D02*
X211973627Y-186115414D01*
X211973627Y-186115414D02*
X211902199Y-185972557D01*
X211902199Y-185972557D02*
X211902199Y-185543985D01*
X211902199Y-185543985D02*
X211973627Y-185401128D01*
X211973627Y-185401128D02*
X212045056Y-185329700D01*
X212045056Y-185329700D02*
X212187913Y-185258271D01*
X212187913Y-185258271D02*
X212473627Y-185258271D01*
X212473627Y-185258271D02*
X212616485Y-185329700D01*
X213259341Y-186258271D02*
X213259341Y-184758271D01*
X213259341Y-185329700D02*
X213402199Y-185258271D01*
X213402199Y-185258271D02*
X213687913Y-185258271D01*
X213687913Y-185258271D02*
X213830770Y-185329700D01*
X213830770Y-185329700D02*
X213902199Y-185401128D01*
X213902199Y-185401128D02*
X213973627Y-185543985D01*
X213973627Y-185543985D02*
X213973627Y-185972557D01*
X213973627Y-185972557D02*
X213902199Y-186115414D01*
X213902199Y-186115414D02*
X213830770Y-186186842D01*
X213830770Y-186186842D02*
X213687913Y-186258271D01*
X213687913Y-186258271D02*
X213402199Y-186258271D01*
X213402199Y-186258271D02*
X213259341Y-186186842D01*
D10*
D11*
X177002200Y-181507200D02*
X285002200Y-181507200D01*
D10*
D11*
X178287914Y-183486842D02*
X178502200Y-183558271D01*
X178502200Y-183558271D02*
X178859342Y-183558271D01*
X178859342Y-183558271D02*
X179002200Y-183486842D01*
X179002200Y-183486842D02*
X179073628Y-183415414D01*
X179073628Y-183415414D02*
X179145057Y-183272557D01*
X179145057Y-183272557D02*
X179145057Y-183129700D01*
X179145057Y-183129700D02*
X179073628Y-182986842D01*
X179073628Y-182986842D02*
X179002200Y-182915414D01*
X179002200Y-182915414D02*
X178859342Y-182843985D01*
X178859342Y-182843985D02*
X178573628Y-182772557D01*
X178573628Y-182772557D02*
X178430771Y-182701128D01*
X178430771Y-182701128D02*
X178359342Y-182629700D01*
X178359342Y-182629700D02*
X178287914Y-182486842D01*
X178287914Y-182486842D02*
X178287914Y-182343985D01*
X178287914Y-182343985D02*
X178359342Y-182201128D01*
X178359342Y-182201128D02*
X178430771Y-182129700D01*
X178430771Y-182129700D02*
X178573628Y-182058271D01*
X178573628Y-182058271D02*
X178930771Y-182058271D01*
X178930771Y-182058271D02*
X179145057Y-182129700D01*
X179787913Y-183558271D02*
X179787913Y-182058271D01*
X180430771Y-183558271D02*
X180430771Y-182772557D01*
X180430771Y-182772557D02*
X180359342Y-182629700D01*
X180359342Y-182629700D02*
X180216485Y-182558271D01*
X180216485Y-182558271D02*
X180002199Y-182558271D01*
X180002199Y-182558271D02*
X179859342Y-182629700D01*
X179859342Y-182629700D02*
X179787913Y-182701128D01*
X181716485Y-183486842D02*
X181573628Y-183558271D01*
X181573628Y-183558271D02*
X181287914Y-183558271D01*
X181287914Y-183558271D02*
X181145056Y-183486842D01*
X181145056Y-183486842D02*
X181073628Y-183343985D01*
X181073628Y-183343985D02*
X181073628Y-182772557D01*
X181073628Y-182772557D02*
X181145056Y-182629700D01*
X181145056Y-182629700D02*
X181287914Y-182558271D01*
X181287914Y-182558271D02*
X181573628Y-182558271D01*
X181573628Y-182558271D02*
X181716485Y-182629700D01*
X181716485Y-182629700D02*
X181787914Y-182772557D01*
X181787914Y-182772557D02*
X181787914Y-182915414D01*
X181787914Y-182915414D02*
X181073628Y-183058271D01*
X183002199Y-183486842D02*
X182859342Y-183558271D01*
X182859342Y-183558271D02*
X182573628Y-183558271D01*
X182573628Y-183558271D02*
X182430770Y-183486842D01*
X182430770Y-183486842D02*
X182359342Y-183343985D01*
X182359342Y-183343985D02*
X182359342Y-182772557D01*
X182359342Y-182772557D02*
X182430770Y-182629700D01*
X182430770Y-182629700D02*
X182573628Y-182558271D01*
X182573628Y-182558271D02*
X182859342Y-182558271D01*
X182859342Y-182558271D02*
X183002199Y-182629700D01*
X183002199Y-182629700D02*
X183073628Y-182772557D01*
X183073628Y-182772557D02*
X183073628Y-182915414D01*
X183073628Y-182915414D02*
X182359342Y-183058271D01*
X183502199Y-182558271D02*
X184073627Y-182558271D01*
X183716484Y-182058271D02*
X183716484Y-183343985D01*
X183716484Y-183343985D02*
X183787913Y-183486842D01*
X183787913Y-183486842D02*
X183930770Y-183558271D01*
X183930770Y-183558271D02*
X184073627Y-183558271D01*
X184573627Y-183415414D02*
X184645056Y-183486842D01*
X184645056Y-183486842D02*
X184573627Y-183558271D01*
X184573627Y-183558271D02*
X184502199Y-183486842D01*
X184502199Y-183486842D02*
X184573627Y-183415414D01*
X184573627Y-183415414D02*
X184573627Y-183558271D01*
X184573627Y-182629700D02*
X184645056Y-182701128D01*
X184645056Y-182701128D02*
X184573627Y-182772557D01*
X184573627Y-182772557D02*
X184502199Y-182701128D01*
X184502199Y-182701128D02*
X184573627Y-182629700D01*
X184573627Y-182629700D02*
X184573627Y-182772557D01*
D10*
D12*
D10*
D11*
D10*
D11*
D10*
D11*
D10*
D11*
D10*
D11*
X197002200Y-191507200D02*
X197002200Y-194507200D01*
D10*
D11*
X261002200Y-191507200D02*
X261002200Y-198007200D01*
D14*
X75250000Y-125000000D02*
X135250000Y-125000000D01*
X135250000Y-125000000D02*
X135250000Y-185000000D01*
X135250000Y-185000000D02*
X75250000Y-185000000D01*
X75250000Y-185000000D02*
X75250000Y-125000000D01*
M02*
