%TF.GenerationSoftware,KiCad,Pcbnew,(7.0.0)*%
%TF.CreationDate,2023-05-11T10:59:04+02:00*%
%TF.ProjectId,CircuiteriaESP32,43697263-7569-4746-9572-696145535033,rev?*%
%TF.SameCoordinates,Original*%
%TF.FileFunction,Legend,Top*%
%TF.FilePolarity,Positive*%
%FSLAX46Y46*%
G04 Gerber Fmt 4.6, Leading zero omitted, Abs format (unit mm)*
G04 Created by KiCad (PCBNEW (7.0.0)) date 2023-05-11 10:59:04*
%MOMM*%
%LPD*%
G01*
G04 APERTURE LIST*
%ADD10C,0.100000*%
%ADD11C,0.150000*%
%ADD12C,0.300000*%
%ADD13C,0.400000*%
%ADD14C,0.120000*%
G04 APERTURE END LIST*
D10*
D11*
X177002200Y-166007200D02*
X285002200Y-166007200D01*
X285002200Y-198007200D01*
X177002200Y-198007200D01*
X177002200Y-166007200D01*
D10*
D11*
X10000000Y-10000000D02*
X287002200Y-10000000D01*
X287002200Y-200007200D01*
X10000000Y-200007200D01*
X10000000Y-10000000D01*
D10*
D11*
X12000000Y-12000000D02*
X285002200Y-12000000D01*
X285002200Y-198007200D01*
X12000000Y-198007200D01*
X12000000Y-12000000D01*
D10*
D11*
X60000000Y-12000000D02*
X60000000Y-10000000D01*
D10*
D11*
X110000000Y-12000000D02*
X110000000Y-10000000D01*
D10*
D11*
X160000000Y-12000000D02*
X160000000Y-10000000D01*
D10*
D11*
X210000000Y-12000000D02*
X210000000Y-10000000D01*
D10*
D11*
X260000000Y-12000000D02*
X260000000Y-10000000D01*
D10*
D11*
X35990476Y-11477595D02*
X35247619Y-11477595D01*
X35619047Y-11477595D02*
X35619047Y-10177595D01*
X35619047Y-10177595D02*
X35495238Y-10363309D01*
X35495238Y-10363309D02*
X35371428Y-10487119D01*
X35371428Y-10487119D02*
X35247619Y-10549023D01*
D10*
D11*
X85247619Y-10301404D02*
X85309523Y-10239500D01*
X85309523Y-10239500D02*
X85433333Y-10177595D01*
X85433333Y-10177595D02*
X85742857Y-10177595D01*
X85742857Y-10177595D02*
X85866666Y-10239500D01*
X85866666Y-10239500D02*
X85928571Y-10301404D01*
X85928571Y-10301404D02*
X85990476Y-10425214D01*
X85990476Y-10425214D02*
X85990476Y-10549023D01*
X85990476Y-10549023D02*
X85928571Y-10734738D01*
X85928571Y-10734738D02*
X85185714Y-11477595D01*
X85185714Y-11477595D02*
X85990476Y-11477595D01*
D10*
D11*
X135185714Y-10177595D02*
X135990476Y-10177595D01*
X135990476Y-10177595D02*
X135557142Y-10672833D01*
X135557142Y-10672833D02*
X135742857Y-10672833D01*
X135742857Y-10672833D02*
X135866666Y-10734738D01*
X135866666Y-10734738D02*
X135928571Y-10796642D01*
X135928571Y-10796642D02*
X135990476Y-10920452D01*
X135990476Y-10920452D02*
X135990476Y-11229976D01*
X135990476Y-11229976D02*
X135928571Y-11353785D01*
X135928571Y-11353785D02*
X135866666Y-11415690D01*
X135866666Y-11415690D02*
X135742857Y-11477595D01*
X135742857Y-11477595D02*
X135371428Y-11477595D01*
X135371428Y-11477595D02*
X135247619Y-11415690D01*
X135247619Y-11415690D02*
X135185714Y-11353785D01*
D10*
D11*
X185866666Y-10610928D02*
X185866666Y-11477595D01*
X185557142Y-10115690D02*
X185247619Y-11044261D01*
X185247619Y-11044261D02*
X186052380Y-11044261D01*
D10*
D11*
X235928571Y-10177595D02*
X235309523Y-10177595D01*
X235309523Y-10177595D02*
X235247619Y-10796642D01*
X235247619Y-10796642D02*
X235309523Y-10734738D01*
X235309523Y-10734738D02*
X235433333Y-10672833D01*
X235433333Y-10672833D02*
X235742857Y-10672833D01*
X235742857Y-10672833D02*
X235866666Y-10734738D01*
X235866666Y-10734738D02*
X235928571Y-10796642D01*
X235928571Y-10796642D02*
X235990476Y-10920452D01*
X235990476Y-10920452D02*
X235990476Y-11229976D01*
X235990476Y-11229976D02*
X235928571Y-11353785D01*
X235928571Y-11353785D02*
X235866666Y-11415690D01*
X235866666Y-11415690D02*
X235742857Y-11477595D01*
X235742857Y-11477595D02*
X235433333Y-11477595D01*
X235433333Y-11477595D02*
X235309523Y-11415690D01*
X235309523Y-11415690D02*
X235247619Y-11353785D01*
D10*
D11*
X285866666Y-10177595D02*
X285619047Y-10177595D01*
X285619047Y-10177595D02*
X285495238Y-10239500D01*
X285495238Y-10239500D02*
X285433333Y-10301404D01*
X285433333Y-10301404D02*
X285309523Y-10487119D01*
X285309523Y-10487119D02*
X285247619Y-10734738D01*
X285247619Y-10734738D02*
X285247619Y-11229976D01*
X285247619Y-11229976D02*
X285309523Y-11353785D01*
X285309523Y-11353785D02*
X285371428Y-11415690D01*
X285371428Y-11415690D02*
X285495238Y-11477595D01*
X285495238Y-11477595D02*
X285742857Y-11477595D01*
X285742857Y-11477595D02*
X285866666Y-11415690D01*
X285866666Y-11415690D02*
X285928571Y-11353785D01*
X285928571Y-11353785D02*
X285990476Y-11229976D01*
X285990476Y-11229976D02*
X285990476Y-10920452D01*
X285990476Y-10920452D02*
X285928571Y-10796642D01*
X285928571Y-10796642D02*
X285866666Y-10734738D01*
X285866666Y-10734738D02*
X285742857Y-10672833D01*
X285742857Y-10672833D02*
X285495238Y-10672833D01*
X285495238Y-10672833D02*
X285371428Y-10734738D01*
X285371428Y-10734738D02*
X285309523Y-10796642D01*
X285309523Y-10796642D02*
X285247619Y-10920452D01*
D10*
D11*
X60000000Y-198007200D02*
X60000000Y-200007200D01*
D10*
D11*
X110000000Y-198007200D02*
X110000000Y-200007200D01*
D10*
D11*
X160000000Y-198007200D02*
X160000000Y-200007200D01*
D10*
D11*
X210000000Y-198007200D02*
X210000000Y-200007200D01*
D10*
D11*
X260000000Y-198007200D02*
X260000000Y-200007200D01*
D10*
D11*
X35990476Y-199484795D02*
X35247619Y-199484795D01*
X35619047Y-199484795D02*
X35619047Y-198184795D01*
X35619047Y-198184795D02*
X35495238Y-198370509D01*
X35495238Y-198370509D02*
X35371428Y-198494319D01*
X35371428Y-198494319D02*
X35247619Y-198556223D01*
D10*
D11*
X85247619Y-198308604D02*
X85309523Y-198246700D01*
X85309523Y-198246700D02*
X85433333Y-198184795D01*
X85433333Y-198184795D02*
X85742857Y-198184795D01*
X85742857Y-198184795D02*
X85866666Y-198246700D01*
X85866666Y-198246700D02*
X85928571Y-198308604D01*
X85928571Y-198308604D02*
X85990476Y-198432414D01*
X85990476Y-198432414D02*
X85990476Y-198556223D01*
X85990476Y-198556223D02*
X85928571Y-198741938D01*
X85928571Y-198741938D02*
X85185714Y-199484795D01*
X85185714Y-199484795D02*
X85990476Y-199484795D01*
D10*
D11*
X135185714Y-198184795D02*
X135990476Y-198184795D01*
X135990476Y-198184795D02*
X135557142Y-198680033D01*
X135557142Y-198680033D02*
X135742857Y-198680033D01*
X135742857Y-198680033D02*
X135866666Y-198741938D01*
X135866666Y-198741938D02*
X135928571Y-198803842D01*
X135928571Y-198803842D02*
X135990476Y-198927652D01*
X135990476Y-198927652D02*
X135990476Y-199237176D01*
X135990476Y-199237176D02*
X135928571Y-199360985D01*
X135928571Y-199360985D02*
X135866666Y-199422890D01*
X135866666Y-199422890D02*
X135742857Y-199484795D01*
X135742857Y-199484795D02*
X135371428Y-199484795D01*
X135371428Y-199484795D02*
X135247619Y-199422890D01*
X135247619Y-199422890D02*
X135185714Y-199360985D01*
D10*
D11*
X185866666Y-198618128D02*
X185866666Y-199484795D01*
X185557142Y-198122890D02*
X185247619Y-199051461D01*
X185247619Y-199051461D02*
X186052380Y-199051461D01*
D10*
D11*
X235928571Y-198184795D02*
X235309523Y-198184795D01*
X235309523Y-198184795D02*
X235247619Y-198803842D01*
X235247619Y-198803842D02*
X235309523Y-198741938D01*
X235309523Y-198741938D02*
X235433333Y-198680033D01*
X235433333Y-198680033D02*
X235742857Y-198680033D01*
X235742857Y-198680033D02*
X235866666Y-198741938D01*
X235866666Y-198741938D02*
X235928571Y-198803842D01*
X235928571Y-198803842D02*
X235990476Y-198927652D01*
X235990476Y-198927652D02*
X235990476Y-199237176D01*
X235990476Y-199237176D02*
X235928571Y-199360985D01*
X235928571Y-199360985D02*
X235866666Y-199422890D01*
X235866666Y-199422890D02*
X235742857Y-199484795D01*
X235742857Y-199484795D02*
X235433333Y-199484795D01*
X235433333Y-199484795D02*
X235309523Y-199422890D01*
X235309523Y-199422890D02*
X235247619Y-199360985D01*
D10*
D11*
X285866666Y-198184795D02*
X285619047Y-198184795D01*
X285619047Y-198184795D02*
X285495238Y-198246700D01*
X285495238Y-198246700D02*
X285433333Y-198308604D01*
X285433333Y-198308604D02*
X285309523Y-198494319D01*
X285309523Y-198494319D02*
X285247619Y-198741938D01*
X285247619Y-198741938D02*
X285247619Y-199237176D01*
X285247619Y-199237176D02*
X285309523Y-199360985D01*
X285309523Y-199360985D02*
X285371428Y-199422890D01*
X285371428Y-199422890D02*
X285495238Y-199484795D01*
X285495238Y-199484795D02*
X285742857Y-199484795D01*
X285742857Y-199484795D02*
X285866666Y-199422890D01*
X285866666Y-199422890D02*
X285928571Y-199360985D01*
X285928571Y-199360985D02*
X285990476Y-199237176D01*
X285990476Y-199237176D02*
X285990476Y-198927652D01*
X285990476Y-198927652D02*
X285928571Y-198803842D01*
X285928571Y-198803842D02*
X285866666Y-198741938D01*
X285866666Y-198741938D02*
X285742857Y-198680033D01*
X285742857Y-198680033D02*
X285495238Y-198680033D01*
X285495238Y-198680033D02*
X285371428Y-198741938D01*
X285371428Y-198741938D02*
X285309523Y-198803842D01*
X285309523Y-198803842D02*
X285247619Y-198927652D01*
D10*
D11*
X10000000Y-60000000D02*
X12000000Y-60000000D01*
D10*
D11*
X10000000Y-110000000D02*
X12000000Y-110000000D01*
D10*
D11*
X10000000Y-160000000D02*
X12000000Y-160000000D01*
D10*
D11*
X10690476Y-35106166D02*
X11309523Y-35106166D01*
X10566666Y-35477595D02*
X10999999Y-34177595D01*
X10999999Y-34177595D02*
X11433333Y-35477595D01*
D10*
D11*
X11092857Y-84796642D02*
X11278571Y-84858547D01*
X11278571Y-84858547D02*
X11340476Y-84920452D01*
X11340476Y-84920452D02*
X11402380Y-85044261D01*
X11402380Y-85044261D02*
X11402380Y-85229976D01*
X11402380Y-85229976D02*
X11340476Y-85353785D01*
X11340476Y-85353785D02*
X11278571Y-85415690D01*
X11278571Y-85415690D02*
X11154761Y-85477595D01*
X11154761Y-85477595D02*
X10659523Y-85477595D01*
X10659523Y-85477595D02*
X10659523Y-84177595D01*
X10659523Y-84177595D02*
X11092857Y-84177595D01*
X11092857Y-84177595D02*
X11216666Y-84239500D01*
X11216666Y-84239500D02*
X11278571Y-84301404D01*
X11278571Y-84301404D02*
X11340476Y-84425214D01*
X11340476Y-84425214D02*
X11340476Y-84549023D01*
X11340476Y-84549023D02*
X11278571Y-84672833D01*
X11278571Y-84672833D02*
X11216666Y-84734738D01*
X11216666Y-84734738D02*
X11092857Y-84796642D01*
X11092857Y-84796642D02*
X10659523Y-84796642D01*
D10*
D11*
X11402380Y-135353785D02*
X11340476Y-135415690D01*
X11340476Y-135415690D02*
X11154761Y-135477595D01*
X11154761Y-135477595D02*
X11030952Y-135477595D01*
X11030952Y-135477595D02*
X10845238Y-135415690D01*
X10845238Y-135415690D02*
X10721428Y-135291880D01*
X10721428Y-135291880D02*
X10659523Y-135168071D01*
X10659523Y-135168071D02*
X10597619Y-134920452D01*
X10597619Y-134920452D02*
X10597619Y-134734738D01*
X10597619Y-134734738D02*
X10659523Y-134487119D01*
X10659523Y-134487119D02*
X10721428Y-134363309D01*
X10721428Y-134363309D02*
X10845238Y-134239500D01*
X10845238Y-134239500D02*
X11030952Y-134177595D01*
X11030952Y-134177595D02*
X11154761Y-134177595D01*
X11154761Y-134177595D02*
X11340476Y-134239500D01*
X11340476Y-134239500D02*
X11402380Y-134301404D01*
D10*
D11*
X10659523Y-185477595D02*
X10659523Y-184177595D01*
X10659523Y-184177595D02*
X10969047Y-184177595D01*
X10969047Y-184177595D02*
X11154761Y-184239500D01*
X11154761Y-184239500D02*
X11278571Y-184363309D01*
X11278571Y-184363309D02*
X11340476Y-184487119D01*
X11340476Y-184487119D02*
X11402380Y-184734738D01*
X11402380Y-184734738D02*
X11402380Y-184920452D01*
X11402380Y-184920452D02*
X11340476Y-185168071D01*
X11340476Y-185168071D02*
X11278571Y-185291880D01*
X11278571Y-185291880D02*
X11154761Y-185415690D01*
X11154761Y-185415690D02*
X10969047Y-185477595D01*
X10969047Y-185477595D02*
X10659523Y-185477595D01*
D10*
D11*
X287002200Y-60000000D02*
X285002200Y-60000000D01*
D10*
D11*
X287002200Y-110000000D02*
X285002200Y-110000000D01*
D10*
D11*
X287002200Y-160000000D02*
X285002200Y-160000000D01*
D10*
D11*
X285692676Y-35106166D02*
X286311723Y-35106166D01*
X285568866Y-35477595D02*
X286002199Y-34177595D01*
X286002199Y-34177595D02*
X286435533Y-35477595D01*
D10*
D11*
X286095057Y-84796642D02*
X286280771Y-84858547D01*
X286280771Y-84858547D02*
X286342676Y-84920452D01*
X286342676Y-84920452D02*
X286404580Y-85044261D01*
X286404580Y-85044261D02*
X286404580Y-85229976D01*
X286404580Y-85229976D02*
X286342676Y-85353785D01*
X286342676Y-85353785D02*
X286280771Y-85415690D01*
X286280771Y-85415690D02*
X286156961Y-85477595D01*
X286156961Y-85477595D02*
X285661723Y-85477595D01*
X285661723Y-85477595D02*
X285661723Y-84177595D01*
X285661723Y-84177595D02*
X286095057Y-84177595D01*
X286095057Y-84177595D02*
X286218866Y-84239500D01*
X286218866Y-84239500D02*
X286280771Y-84301404D01*
X286280771Y-84301404D02*
X286342676Y-84425214D01*
X286342676Y-84425214D02*
X286342676Y-84549023D01*
X286342676Y-84549023D02*
X286280771Y-84672833D01*
X286280771Y-84672833D02*
X286218866Y-84734738D01*
X286218866Y-84734738D02*
X286095057Y-84796642D01*
X286095057Y-84796642D02*
X285661723Y-84796642D01*
D10*
D11*
X286404580Y-135353785D02*
X286342676Y-135415690D01*
X286342676Y-135415690D02*
X286156961Y-135477595D01*
X286156961Y-135477595D02*
X286033152Y-135477595D01*
X286033152Y-135477595D02*
X285847438Y-135415690D01*
X285847438Y-135415690D02*
X285723628Y-135291880D01*
X285723628Y-135291880D02*
X285661723Y-135168071D01*
X285661723Y-135168071D02*
X285599819Y-134920452D01*
X285599819Y-134920452D02*
X285599819Y-134734738D01*
X285599819Y-134734738D02*
X285661723Y-134487119D01*
X285661723Y-134487119D02*
X285723628Y-134363309D01*
X285723628Y-134363309D02*
X285847438Y-134239500D01*
X285847438Y-134239500D02*
X286033152Y-134177595D01*
X286033152Y-134177595D02*
X286156961Y-134177595D01*
X286156961Y-134177595D02*
X286342676Y-134239500D01*
X286342676Y-134239500D02*
X286404580Y-134301404D01*
D10*
D11*
X285661723Y-185477595D02*
X285661723Y-184177595D01*
X285661723Y-184177595D02*
X285971247Y-184177595D01*
X285971247Y-184177595D02*
X286156961Y-184239500D01*
X286156961Y-184239500D02*
X286280771Y-184363309D01*
X286280771Y-184363309D02*
X286342676Y-184487119D01*
X286342676Y-184487119D02*
X286404580Y-184734738D01*
X286404580Y-184734738D02*
X286404580Y-184920452D01*
X286404580Y-184920452D02*
X286342676Y-185168071D01*
X286342676Y-185168071D02*
X286280771Y-185291880D01*
X286280771Y-185291880D02*
X286156961Y-185415690D01*
X286156961Y-185415690D02*
X285971247Y-185477595D01*
X285971247Y-185477595D02*
X285661723Y-185477595D01*
D10*
D11*
X200359342Y-193658271D02*
X200359342Y-192158271D01*
X200359342Y-192158271D02*
X200716485Y-192158271D01*
X200716485Y-192158271D02*
X200930771Y-192229700D01*
X200930771Y-192229700D02*
X201073628Y-192372557D01*
X201073628Y-192372557D02*
X201145057Y-192515414D01*
X201145057Y-192515414D02*
X201216485Y-192801128D01*
X201216485Y-192801128D02*
X201216485Y-193015414D01*
X201216485Y-193015414D02*
X201145057Y-193301128D01*
X201145057Y-193301128D02*
X201073628Y-193443985D01*
X201073628Y-193443985D02*
X200930771Y-193586842D01*
X200930771Y-193586842D02*
X200716485Y-193658271D01*
X200716485Y-193658271D02*
X200359342Y-193658271D01*
X202502200Y-193658271D02*
X202502200Y-192872557D01*
X202502200Y-192872557D02*
X202430771Y-192729700D01*
X202430771Y-192729700D02*
X202287914Y-192658271D01*
X202287914Y-192658271D02*
X202002200Y-192658271D01*
X202002200Y-192658271D02*
X201859342Y-192729700D01*
X202502200Y-193586842D02*
X202359342Y-193658271D01*
X202359342Y-193658271D02*
X202002200Y-193658271D01*
X202002200Y-193658271D02*
X201859342Y-193586842D01*
X201859342Y-193586842D02*
X201787914Y-193443985D01*
X201787914Y-193443985D02*
X201787914Y-193301128D01*
X201787914Y-193301128D02*
X201859342Y-193158271D01*
X201859342Y-193158271D02*
X202002200Y-193086842D01*
X202002200Y-193086842D02*
X202359342Y-193086842D01*
X202359342Y-193086842D02*
X202502200Y-193015414D01*
X203002200Y-192658271D02*
X203573628Y-192658271D01*
X203216485Y-192158271D02*
X203216485Y-193443985D01*
X203216485Y-193443985D02*
X203287914Y-193586842D01*
X203287914Y-193586842D02*
X203430771Y-193658271D01*
X203430771Y-193658271D02*
X203573628Y-193658271D01*
X204645057Y-193586842D02*
X204502200Y-193658271D01*
X204502200Y-193658271D02*
X204216486Y-193658271D01*
X204216486Y-193658271D02*
X204073628Y-193586842D01*
X204073628Y-193586842D02*
X204002200Y-193443985D01*
X204002200Y-193443985D02*
X204002200Y-192872557D01*
X204002200Y-192872557D02*
X204073628Y-192729700D01*
X204073628Y-192729700D02*
X204216486Y-192658271D01*
X204216486Y-192658271D02*
X204502200Y-192658271D01*
X204502200Y-192658271D02*
X204645057Y-192729700D01*
X204645057Y-192729700D02*
X204716486Y-192872557D01*
X204716486Y-192872557D02*
X204716486Y-193015414D01*
X204716486Y-193015414D02*
X204002200Y-193158271D01*
X205359342Y-193515414D02*
X205430771Y-193586842D01*
X205430771Y-193586842D02*
X205359342Y-193658271D01*
X205359342Y-193658271D02*
X205287914Y-193586842D01*
X205287914Y-193586842D02*
X205359342Y-193515414D01*
X205359342Y-193515414D02*
X205359342Y-193658271D01*
X205359342Y-192729700D02*
X205430771Y-192801128D01*
X205430771Y-192801128D02*
X205359342Y-192872557D01*
X205359342Y-192872557D02*
X205287914Y-192801128D01*
X205287914Y-192801128D02*
X205359342Y-192729700D01*
X205359342Y-192729700D02*
X205359342Y-192872557D01*
D10*
D11*
X177002200Y-194507200D02*
X285002200Y-194507200D01*
D10*
D11*
X178359342Y-196458271D02*
X178359342Y-194958271D01*
X179216485Y-196458271D02*
X178573628Y-195601128D01*
X179216485Y-194958271D02*
X178359342Y-195815414D01*
X179859342Y-196458271D02*
X179859342Y-195458271D01*
X179859342Y-194958271D02*
X179787914Y-195029700D01*
X179787914Y-195029700D02*
X179859342Y-195101128D01*
X179859342Y-195101128D02*
X179930771Y-195029700D01*
X179930771Y-195029700D02*
X179859342Y-194958271D01*
X179859342Y-194958271D02*
X179859342Y-195101128D01*
X181430771Y-196315414D02*
X181359343Y-196386842D01*
X181359343Y-196386842D02*
X181145057Y-196458271D01*
X181145057Y-196458271D02*
X181002200Y-196458271D01*
X181002200Y-196458271D02*
X180787914Y-196386842D01*
X180787914Y-196386842D02*
X180645057Y-196243985D01*
X180645057Y-196243985D02*
X180573628Y-196101128D01*
X180573628Y-196101128D02*
X180502200Y-195815414D01*
X180502200Y-195815414D02*
X180502200Y-195601128D01*
X180502200Y-195601128D02*
X180573628Y-195315414D01*
X180573628Y-195315414D02*
X180645057Y-195172557D01*
X180645057Y-195172557D02*
X180787914Y-195029700D01*
X180787914Y-195029700D02*
X181002200Y-194958271D01*
X181002200Y-194958271D02*
X181145057Y-194958271D01*
X181145057Y-194958271D02*
X181359343Y-195029700D01*
X181359343Y-195029700D02*
X181430771Y-195101128D01*
X182716486Y-196458271D02*
X182716486Y-195672557D01*
X182716486Y-195672557D02*
X182645057Y-195529700D01*
X182645057Y-195529700D02*
X182502200Y-195458271D01*
X182502200Y-195458271D02*
X182216486Y-195458271D01*
X182216486Y-195458271D02*
X182073628Y-195529700D01*
X182716486Y-196386842D02*
X182573628Y-196458271D01*
X182573628Y-196458271D02*
X182216486Y-196458271D01*
X182216486Y-196458271D02*
X182073628Y-196386842D01*
X182073628Y-196386842D02*
X182002200Y-196243985D01*
X182002200Y-196243985D02*
X182002200Y-196101128D01*
X182002200Y-196101128D02*
X182073628Y-195958271D01*
X182073628Y-195958271D02*
X182216486Y-195886842D01*
X182216486Y-195886842D02*
X182573628Y-195886842D01*
X182573628Y-195886842D02*
X182716486Y-195815414D01*
X184073629Y-196458271D02*
X184073629Y-194958271D01*
X184073629Y-196386842D02*
X183930771Y-196458271D01*
X183930771Y-196458271D02*
X183645057Y-196458271D01*
X183645057Y-196458271D02*
X183502200Y-196386842D01*
X183502200Y-196386842D02*
X183430771Y-196315414D01*
X183430771Y-196315414D02*
X183359343Y-196172557D01*
X183359343Y-196172557D02*
X183359343Y-195743985D01*
X183359343Y-195743985D02*
X183430771Y-195601128D01*
X183430771Y-195601128D02*
X183502200Y-195529700D01*
X183502200Y-195529700D02*
X183645057Y-195458271D01*
X183645057Y-195458271D02*
X183930771Y-195458271D01*
X183930771Y-195458271D02*
X184073629Y-195529700D01*
X185687914Y-195672557D02*
X186187914Y-195672557D01*
X186402200Y-196458271D02*
X185687914Y-196458271D01*
X185687914Y-196458271D02*
X185687914Y-194958271D01*
X185687914Y-194958271D02*
X186402200Y-194958271D01*
X187045057Y-196315414D02*
X187116486Y-196386842D01*
X187116486Y-196386842D02*
X187045057Y-196458271D01*
X187045057Y-196458271D02*
X186973629Y-196386842D01*
X186973629Y-196386842D02*
X187045057Y-196315414D01*
X187045057Y-196315414D02*
X187045057Y-196458271D01*
X187759343Y-196458271D02*
X187759343Y-194958271D01*
X187759343Y-194958271D02*
X188116486Y-194958271D01*
X188116486Y-194958271D02*
X188330772Y-195029700D01*
X188330772Y-195029700D02*
X188473629Y-195172557D01*
X188473629Y-195172557D02*
X188545058Y-195315414D01*
X188545058Y-195315414D02*
X188616486Y-195601128D01*
X188616486Y-195601128D02*
X188616486Y-195815414D01*
X188616486Y-195815414D02*
X188545058Y-196101128D01*
X188545058Y-196101128D02*
X188473629Y-196243985D01*
X188473629Y-196243985D02*
X188330772Y-196386842D01*
X188330772Y-196386842D02*
X188116486Y-196458271D01*
X188116486Y-196458271D02*
X187759343Y-196458271D01*
X189259343Y-196315414D02*
X189330772Y-196386842D01*
X189330772Y-196386842D02*
X189259343Y-196458271D01*
X189259343Y-196458271D02*
X189187915Y-196386842D01*
X189187915Y-196386842D02*
X189259343Y-196315414D01*
X189259343Y-196315414D02*
X189259343Y-196458271D01*
X189902201Y-196029700D02*
X190616487Y-196029700D01*
X189759344Y-196458271D02*
X190259344Y-194958271D01*
X190259344Y-194958271D02*
X190759344Y-196458271D01*
X191259343Y-196315414D02*
X191330772Y-196386842D01*
X191330772Y-196386842D02*
X191259343Y-196458271D01*
X191259343Y-196458271D02*
X191187915Y-196386842D01*
X191187915Y-196386842D02*
X191259343Y-196315414D01*
X191259343Y-196315414D02*
X191259343Y-196458271D01*
X193773629Y-195458271D02*
X193773629Y-196958271D01*
X193773629Y-195529700D02*
X193916487Y-195458271D01*
X193916487Y-195458271D02*
X194202201Y-195458271D01*
X194202201Y-195458271D02*
X194345058Y-195529700D01*
X194345058Y-195529700D02*
X194416487Y-195601128D01*
X194416487Y-195601128D02*
X194487915Y-195743985D01*
X194487915Y-195743985D02*
X194487915Y-196172557D01*
X194487915Y-196172557D02*
X194416487Y-196315414D01*
X194416487Y-196315414D02*
X194345058Y-196386842D01*
X194345058Y-196386842D02*
X194202201Y-196458271D01*
X194202201Y-196458271D02*
X193916487Y-196458271D01*
X193916487Y-196458271D02*
X193773629Y-196386842D01*
X195773630Y-196386842D02*
X195630772Y-196458271D01*
X195630772Y-196458271D02*
X195345058Y-196458271D01*
X195345058Y-196458271D02*
X195202201Y-196386842D01*
X195202201Y-196386842D02*
X195130772Y-196315414D01*
X195130772Y-196315414D02*
X195059344Y-196172557D01*
X195059344Y-196172557D02*
X195059344Y-195743985D01*
X195059344Y-195743985D02*
X195130772Y-195601128D01*
X195130772Y-195601128D02*
X195202201Y-195529700D01*
X195202201Y-195529700D02*
X195345058Y-195458271D01*
X195345058Y-195458271D02*
X195630772Y-195458271D01*
X195630772Y-195458271D02*
X195773630Y-195529700D01*
X196416486Y-196458271D02*
X196416486Y-194958271D01*
X196416486Y-195529700D02*
X196559344Y-195458271D01*
X196559344Y-195458271D02*
X196845058Y-195458271D01*
X196845058Y-195458271D02*
X196987915Y-195529700D01*
X196987915Y-195529700D02*
X197059344Y-195601128D01*
X197059344Y-195601128D02*
X197130772Y-195743985D01*
X197130772Y-195743985D02*
X197130772Y-196172557D01*
X197130772Y-196172557D02*
X197059344Y-196315414D01*
X197059344Y-196315414D02*
X196987915Y-196386842D01*
X196987915Y-196386842D02*
X196845058Y-196458271D01*
X196845058Y-196458271D02*
X196559344Y-196458271D01*
X196559344Y-196458271D02*
X196416486Y-196386842D01*
X197773629Y-195458271D02*
X197773629Y-196458271D01*
X197773629Y-195601128D02*
X197845058Y-195529700D01*
X197845058Y-195529700D02*
X197987915Y-195458271D01*
X197987915Y-195458271D02*
X198202201Y-195458271D01*
X198202201Y-195458271D02*
X198345058Y-195529700D01*
X198345058Y-195529700D02*
X198416487Y-195672557D01*
X198416487Y-195672557D02*
X198416487Y-196458271D01*
X199702201Y-196386842D02*
X199559344Y-196458271D01*
X199559344Y-196458271D02*
X199273630Y-196458271D01*
X199273630Y-196458271D02*
X199130772Y-196386842D01*
X199130772Y-196386842D02*
X199059344Y-196243985D01*
X199059344Y-196243985D02*
X199059344Y-195672557D01*
X199059344Y-195672557D02*
X199130772Y-195529700D01*
X199130772Y-195529700D02*
X199273630Y-195458271D01*
X199273630Y-195458271D02*
X199559344Y-195458271D01*
X199559344Y-195458271D02*
X199702201Y-195529700D01*
X199702201Y-195529700D02*
X199773630Y-195672557D01*
X199773630Y-195672557D02*
X199773630Y-195815414D01*
X199773630Y-195815414D02*
X199059344Y-195958271D01*
X200273629Y-195458271D02*
X200559344Y-196458271D01*
X200559344Y-196458271D02*
X200845058Y-195743985D01*
X200845058Y-195743985D02*
X201130772Y-196458271D01*
X201130772Y-196458271D02*
X201416486Y-195458271D01*
X203316487Y-197029700D02*
X203245058Y-196958271D01*
X203245058Y-196958271D02*
X203102201Y-196743985D01*
X203102201Y-196743985D02*
X203030773Y-196601128D01*
X203030773Y-196601128D02*
X202959344Y-196386842D01*
X202959344Y-196386842D02*
X202887915Y-196029700D01*
X202887915Y-196029700D02*
X202887915Y-195743985D01*
X202887915Y-195743985D02*
X202959344Y-195386842D01*
X202959344Y-195386842D02*
X203030773Y-195172557D01*
X203030773Y-195172557D02*
X203102201Y-195029700D01*
X203102201Y-195029700D02*
X203245058Y-194815414D01*
X203245058Y-194815414D02*
X203316487Y-194743985D01*
X203745058Y-194958271D02*
X204745058Y-194958271D01*
X204745058Y-194958271D02*
X204102201Y-196458271D01*
X205316486Y-196315414D02*
X205387915Y-196386842D01*
X205387915Y-196386842D02*
X205316486Y-196458271D01*
X205316486Y-196458271D02*
X205245058Y-196386842D01*
X205245058Y-196386842D02*
X205316486Y-196315414D01*
X205316486Y-196315414D02*
X205316486Y-196458271D01*
X206316487Y-194958271D02*
X206459344Y-194958271D01*
X206459344Y-194958271D02*
X206602201Y-195029700D01*
X206602201Y-195029700D02*
X206673630Y-195101128D01*
X206673630Y-195101128D02*
X206745058Y-195243985D01*
X206745058Y-195243985D02*
X206816487Y-195529700D01*
X206816487Y-195529700D02*
X206816487Y-195886842D01*
X206816487Y-195886842D02*
X206745058Y-196172557D01*
X206745058Y-196172557D02*
X206673630Y-196315414D01*
X206673630Y-196315414D02*
X206602201Y-196386842D01*
X206602201Y-196386842D02*
X206459344Y-196458271D01*
X206459344Y-196458271D02*
X206316487Y-196458271D01*
X206316487Y-196458271D02*
X206173630Y-196386842D01*
X206173630Y-196386842D02*
X206102201Y-196315414D01*
X206102201Y-196315414D02*
X206030772Y-196172557D01*
X206030772Y-196172557D02*
X205959344Y-195886842D01*
X205959344Y-195886842D02*
X205959344Y-195529700D01*
X205959344Y-195529700D02*
X206030772Y-195243985D01*
X206030772Y-195243985D02*
X206102201Y-195101128D01*
X206102201Y-195101128D02*
X206173630Y-195029700D01*
X206173630Y-195029700D02*
X206316487Y-194958271D01*
X207459343Y-196315414D02*
X207530772Y-196386842D01*
X207530772Y-196386842D02*
X207459343Y-196458271D01*
X207459343Y-196458271D02*
X207387915Y-196386842D01*
X207387915Y-196386842D02*
X207459343Y-196315414D01*
X207459343Y-196315414D02*
X207459343Y-196458271D01*
X208459344Y-194958271D02*
X208602201Y-194958271D01*
X208602201Y-194958271D02*
X208745058Y-195029700D01*
X208745058Y-195029700D02*
X208816487Y-195101128D01*
X208816487Y-195101128D02*
X208887915Y-195243985D01*
X208887915Y-195243985D02*
X208959344Y-195529700D01*
X208959344Y-195529700D02*
X208959344Y-195886842D01*
X208959344Y-195886842D02*
X208887915Y-196172557D01*
X208887915Y-196172557D02*
X208816487Y-196315414D01*
X208816487Y-196315414D02*
X208745058Y-196386842D01*
X208745058Y-196386842D02*
X208602201Y-196458271D01*
X208602201Y-196458271D02*
X208459344Y-196458271D01*
X208459344Y-196458271D02*
X208316487Y-196386842D01*
X208316487Y-196386842D02*
X208245058Y-196315414D01*
X208245058Y-196315414D02*
X208173629Y-196172557D01*
X208173629Y-196172557D02*
X208102201Y-195886842D01*
X208102201Y-195886842D02*
X208102201Y-195529700D01*
X208102201Y-195529700D02*
X208173629Y-195243985D01*
X208173629Y-195243985D02*
X208245058Y-195101128D01*
X208245058Y-195101128D02*
X208316487Y-195029700D01*
X208316487Y-195029700D02*
X208459344Y-194958271D01*
X209459343Y-197029700D02*
X209530772Y-196958271D01*
X209530772Y-196958271D02*
X209673629Y-196743985D01*
X209673629Y-196743985D02*
X209745058Y-196601128D01*
X209745058Y-196601128D02*
X209816486Y-196386842D01*
X209816486Y-196386842D02*
X209887915Y-196029700D01*
X209887915Y-196029700D02*
X209887915Y-195743985D01*
X209887915Y-195743985D02*
X209816486Y-195386842D01*
X209816486Y-195386842D02*
X209745058Y-195172557D01*
X209745058Y-195172557D02*
X209673629Y-195029700D01*
X209673629Y-195029700D02*
X209530772Y-194815414D01*
X209530772Y-194815414D02*
X209459343Y-194743985D01*
D10*
D11*
X177002200Y-191507200D02*
X285002200Y-191507200D01*
D10*
D12*
X264216485Y-193658271D02*
X263716485Y-192943985D01*
X263359342Y-193658271D02*
X263359342Y-192158271D01*
X263359342Y-192158271D02*
X263930771Y-192158271D01*
X263930771Y-192158271D02*
X264073628Y-192229700D01*
X264073628Y-192229700D02*
X264145057Y-192301128D01*
X264145057Y-192301128D02*
X264216485Y-192443985D01*
X264216485Y-192443985D02*
X264216485Y-192658271D01*
X264216485Y-192658271D02*
X264145057Y-192801128D01*
X264145057Y-192801128D02*
X264073628Y-192872557D01*
X264073628Y-192872557D02*
X263930771Y-192943985D01*
X263930771Y-192943985D02*
X263359342Y-192943985D01*
X265430771Y-193586842D02*
X265287914Y-193658271D01*
X265287914Y-193658271D02*
X265002200Y-193658271D01*
X265002200Y-193658271D02*
X264859342Y-193586842D01*
X264859342Y-193586842D02*
X264787914Y-193443985D01*
X264787914Y-193443985D02*
X264787914Y-192872557D01*
X264787914Y-192872557D02*
X264859342Y-192729700D01*
X264859342Y-192729700D02*
X265002200Y-192658271D01*
X265002200Y-192658271D02*
X265287914Y-192658271D01*
X265287914Y-192658271D02*
X265430771Y-192729700D01*
X265430771Y-192729700D02*
X265502200Y-192872557D01*
X265502200Y-192872557D02*
X265502200Y-193015414D01*
X265502200Y-193015414D02*
X264787914Y-193158271D01*
X266002199Y-192658271D02*
X266359342Y-193658271D01*
X266359342Y-193658271D02*
X266716485Y-192658271D01*
X267287913Y-193515414D02*
X267359342Y-193586842D01*
X267359342Y-193586842D02*
X267287913Y-193658271D01*
X267287913Y-193658271D02*
X267216485Y-193586842D01*
X267216485Y-193586842D02*
X267287913Y-193515414D01*
X267287913Y-193515414D02*
X267287913Y-193658271D01*
X267287913Y-192729700D02*
X267359342Y-192801128D01*
X267359342Y-192801128D02*
X267287913Y-192872557D01*
X267287913Y-192872557D02*
X267216485Y-192801128D01*
X267216485Y-192801128D02*
X267287913Y-192729700D01*
X267287913Y-192729700D02*
X267287913Y-192872557D01*
D10*
D11*
X178287914Y-193586842D02*
X178502200Y-193658271D01*
X178502200Y-193658271D02*
X178859342Y-193658271D01*
X178859342Y-193658271D02*
X179002200Y-193586842D01*
X179002200Y-193586842D02*
X179073628Y-193515414D01*
X179073628Y-193515414D02*
X179145057Y-193372557D01*
X179145057Y-193372557D02*
X179145057Y-193229700D01*
X179145057Y-193229700D02*
X179073628Y-193086842D01*
X179073628Y-193086842D02*
X179002200Y-193015414D01*
X179002200Y-193015414D02*
X178859342Y-192943985D01*
X178859342Y-192943985D02*
X178573628Y-192872557D01*
X178573628Y-192872557D02*
X178430771Y-192801128D01*
X178430771Y-192801128D02*
X178359342Y-192729700D01*
X178359342Y-192729700D02*
X178287914Y-192586842D01*
X178287914Y-192586842D02*
X178287914Y-192443985D01*
X178287914Y-192443985D02*
X178359342Y-192301128D01*
X178359342Y-192301128D02*
X178430771Y-192229700D01*
X178430771Y-192229700D02*
X178573628Y-192158271D01*
X178573628Y-192158271D02*
X178930771Y-192158271D01*
X178930771Y-192158271D02*
X179145057Y-192229700D01*
X179787913Y-193658271D02*
X179787913Y-192658271D01*
X179787913Y-192158271D02*
X179716485Y-192229700D01*
X179716485Y-192229700D02*
X179787913Y-192301128D01*
X179787913Y-192301128D02*
X179859342Y-192229700D01*
X179859342Y-192229700D02*
X179787913Y-192158271D01*
X179787913Y-192158271D02*
X179787913Y-192301128D01*
X180359342Y-192658271D02*
X181145057Y-192658271D01*
X181145057Y-192658271D02*
X180359342Y-193658271D01*
X180359342Y-193658271D02*
X181145057Y-193658271D01*
X182287914Y-193586842D02*
X182145057Y-193658271D01*
X182145057Y-193658271D02*
X181859343Y-193658271D01*
X181859343Y-193658271D02*
X181716485Y-193586842D01*
X181716485Y-193586842D02*
X181645057Y-193443985D01*
X181645057Y-193443985D02*
X181645057Y-192872557D01*
X181645057Y-192872557D02*
X181716485Y-192729700D01*
X181716485Y-192729700D02*
X181859343Y-192658271D01*
X181859343Y-192658271D02*
X182145057Y-192658271D01*
X182145057Y-192658271D02*
X182287914Y-192729700D01*
X182287914Y-192729700D02*
X182359343Y-192872557D01*
X182359343Y-192872557D02*
X182359343Y-193015414D01*
X182359343Y-193015414D02*
X181645057Y-193158271D01*
X183002199Y-193515414D02*
X183073628Y-193586842D01*
X183073628Y-193586842D02*
X183002199Y-193658271D01*
X183002199Y-193658271D02*
X182930771Y-193586842D01*
X182930771Y-193586842D02*
X183002199Y-193515414D01*
X183002199Y-193515414D02*
X183002199Y-193658271D01*
X183002199Y-192729700D02*
X183073628Y-192801128D01*
X183073628Y-192801128D02*
X183002199Y-192872557D01*
X183002199Y-192872557D02*
X182930771Y-192801128D01*
X182930771Y-192801128D02*
X183002199Y-192729700D01*
X183002199Y-192729700D02*
X183002199Y-192872557D01*
X184545057Y-193229700D02*
X185259343Y-193229700D01*
X184402200Y-193658271D02*
X184902200Y-192158271D01*
X184902200Y-192158271D02*
X185402200Y-193658271D01*
X186545057Y-192658271D02*
X186545057Y-193658271D01*
X186187914Y-192086842D02*
X185830771Y-193158271D01*
X185830771Y-193158271D02*
X186759342Y-193158271D01*
D10*
D11*
X263359342Y-196458271D02*
X263359342Y-194958271D01*
X264716486Y-196458271D02*
X264716486Y-194958271D01*
X264716486Y-196386842D02*
X264573628Y-196458271D01*
X264573628Y-196458271D02*
X264287914Y-196458271D01*
X264287914Y-196458271D02*
X264145057Y-196386842D01*
X264145057Y-196386842D02*
X264073628Y-196315414D01*
X264073628Y-196315414D02*
X264002200Y-196172557D01*
X264002200Y-196172557D02*
X264002200Y-195743985D01*
X264002200Y-195743985D02*
X264073628Y-195601128D01*
X264073628Y-195601128D02*
X264145057Y-195529700D01*
X264145057Y-195529700D02*
X264287914Y-195458271D01*
X264287914Y-195458271D02*
X264573628Y-195458271D01*
X264573628Y-195458271D02*
X264716486Y-195529700D01*
X265430771Y-196315414D02*
X265502200Y-196386842D01*
X265502200Y-196386842D02*
X265430771Y-196458271D01*
X265430771Y-196458271D02*
X265359343Y-196386842D01*
X265359343Y-196386842D02*
X265430771Y-196315414D01*
X265430771Y-196315414D02*
X265430771Y-196458271D01*
X265430771Y-195529700D02*
X265502200Y-195601128D01*
X265502200Y-195601128D02*
X265430771Y-195672557D01*
X265430771Y-195672557D02*
X265359343Y-195601128D01*
X265359343Y-195601128D02*
X265430771Y-195529700D01*
X265430771Y-195529700D02*
X265430771Y-195672557D01*
X267830772Y-196458271D02*
X266973629Y-196458271D01*
X267402200Y-196458271D02*
X267402200Y-194958271D01*
X267402200Y-194958271D02*
X267259343Y-195172557D01*
X267259343Y-195172557D02*
X267116486Y-195315414D01*
X267116486Y-195315414D02*
X266973629Y-195386842D01*
X269545057Y-194886842D02*
X268259343Y-196815414D01*
X270830772Y-196458271D02*
X269973629Y-196458271D01*
X270402200Y-196458271D02*
X270402200Y-194958271D01*
X270402200Y-194958271D02*
X270259343Y-195172557D01*
X270259343Y-195172557D02*
X270116486Y-195315414D01*
X270116486Y-195315414D02*
X269973629Y-195386842D01*
D10*
D11*
X177002200Y-187507200D02*
X285002200Y-187507200D01*
D10*
D13*
X178454580Y-188041961D02*
X179597438Y-188041961D01*
X178776009Y-190041961D02*
X179026009Y-188041961D01*
X180014105Y-190041961D02*
X180180771Y-188708628D01*
X180264105Y-188041961D02*
X180156962Y-188137200D01*
X180156962Y-188137200D02*
X180240295Y-188232438D01*
X180240295Y-188232438D02*
X180347438Y-188137200D01*
X180347438Y-188137200D02*
X180264105Y-188041961D01*
X180264105Y-188041961D02*
X180240295Y-188232438D01*
X180847438Y-188708628D02*
X181609343Y-188708628D01*
X181216486Y-188041961D02*
X181002200Y-189756247D01*
X181002200Y-189756247D02*
X181073629Y-189946723D01*
X181073629Y-189946723D02*
X181252200Y-190041961D01*
X181252200Y-190041961D02*
X181442676Y-190041961D01*
X182395057Y-190041961D02*
X182216486Y-189946723D01*
X182216486Y-189946723D02*
X182145057Y-189756247D01*
X182145057Y-189756247D02*
X182359343Y-188041961D01*
X183930771Y-189946723D02*
X183728390Y-190041961D01*
X183728390Y-190041961D02*
X183347438Y-190041961D01*
X183347438Y-190041961D02*
X183168867Y-189946723D01*
X183168867Y-189946723D02*
X183097438Y-189756247D01*
X183097438Y-189756247D02*
X183192676Y-188994342D01*
X183192676Y-188994342D02*
X183311724Y-188803866D01*
X183311724Y-188803866D02*
X183514105Y-188708628D01*
X183514105Y-188708628D02*
X183895057Y-188708628D01*
X183895057Y-188708628D02*
X184073628Y-188803866D01*
X184073628Y-188803866D02*
X184145057Y-188994342D01*
X184145057Y-188994342D02*
X184121247Y-189184819D01*
X184121247Y-189184819D02*
X183145057Y-189375295D01*
X184895057Y-189851485D02*
X184978391Y-189946723D01*
X184978391Y-189946723D02*
X184871248Y-190041961D01*
X184871248Y-190041961D02*
X184787914Y-189946723D01*
X184787914Y-189946723D02*
X184895057Y-189851485D01*
X184895057Y-189851485D02*
X184871248Y-190041961D01*
X185026010Y-188803866D02*
X185109343Y-188899104D01*
X185109343Y-188899104D02*
X185002200Y-188994342D01*
X185002200Y-188994342D02*
X184918867Y-188899104D01*
X184918867Y-188899104D02*
X185026010Y-188803866D01*
X185026010Y-188803866D02*
X185002200Y-188994342D01*
D10*
D11*
X178859342Y-185472557D02*
X178359342Y-185472557D01*
X178359342Y-186258271D02*
X178359342Y-184758271D01*
X178359342Y-184758271D02*
X179073628Y-184758271D01*
X179645056Y-186258271D02*
X179645056Y-185258271D01*
X179645056Y-184758271D02*
X179573628Y-184829700D01*
X179573628Y-184829700D02*
X179645056Y-184901128D01*
X179645056Y-184901128D02*
X179716485Y-184829700D01*
X179716485Y-184829700D02*
X179645056Y-184758271D01*
X179645056Y-184758271D02*
X179645056Y-184901128D01*
X180573628Y-186258271D02*
X180430771Y-186186842D01*
X180430771Y-186186842D02*
X180359342Y-186043985D01*
X180359342Y-186043985D02*
X180359342Y-184758271D01*
X181716485Y-186186842D02*
X181573628Y-186258271D01*
X181573628Y-186258271D02*
X181287914Y-186258271D01*
X181287914Y-186258271D02*
X181145056Y-186186842D01*
X181145056Y-186186842D02*
X181073628Y-186043985D01*
X181073628Y-186043985D02*
X181073628Y-185472557D01*
X181073628Y-185472557D02*
X181145056Y-185329700D01*
X181145056Y-185329700D02*
X181287914Y-185258271D01*
X181287914Y-185258271D02*
X181573628Y-185258271D01*
X181573628Y-185258271D02*
X181716485Y-185329700D01*
X181716485Y-185329700D02*
X181787914Y-185472557D01*
X181787914Y-185472557D02*
X181787914Y-185615414D01*
X181787914Y-185615414D02*
X181073628Y-185758271D01*
X182430770Y-186115414D02*
X182502199Y-186186842D01*
X182502199Y-186186842D02*
X182430770Y-186258271D01*
X182430770Y-186258271D02*
X182359342Y-186186842D01*
X182359342Y-186186842D02*
X182430770Y-186115414D01*
X182430770Y-186115414D02*
X182430770Y-186258271D01*
X182430770Y-185329700D02*
X182502199Y-185401128D01*
X182502199Y-185401128D02*
X182430770Y-185472557D01*
X182430770Y-185472557D02*
X182359342Y-185401128D01*
X182359342Y-185401128D02*
X182430770Y-185329700D01*
X182430770Y-185329700D02*
X182430770Y-185472557D01*
X184902199Y-186115414D02*
X184830771Y-186186842D01*
X184830771Y-186186842D02*
X184616485Y-186258271D01*
X184616485Y-186258271D02*
X184473628Y-186258271D01*
X184473628Y-186258271D02*
X184259342Y-186186842D01*
X184259342Y-186186842D02*
X184116485Y-186043985D01*
X184116485Y-186043985D02*
X184045056Y-185901128D01*
X184045056Y-185901128D02*
X183973628Y-185615414D01*
X183973628Y-185615414D02*
X183973628Y-185401128D01*
X183973628Y-185401128D02*
X184045056Y-185115414D01*
X184045056Y-185115414D02*
X184116485Y-184972557D01*
X184116485Y-184972557D02*
X184259342Y-184829700D01*
X184259342Y-184829700D02*
X184473628Y-184758271D01*
X184473628Y-184758271D02*
X184616485Y-184758271D01*
X184616485Y-184758271D02*
X184830771Y-184829700D01*
X184830771Y-184829700D02*
X184902199Y-184901128D01*
X185545056Y-186258271D02*
X185545056Y-185258271D01*
X185545056Y-184758271D02*
X185473628Y-184829700D01*
X185473628Y-184829700D02*
X185545056Y-184901128D01*
X185545056Y-184901128D02*
X185616485Y-184829700D01*
X185616485Y-184829700D02*
X185545056Y-184758271D01*
X185545056Y-184758271D02*
X185545056Y-184901128D01*
X186259342Y-186258271D02*
X186259342Y-185258271D01*
X186259342Y-185543985D02*
X186330771Y-185401128D01*
X186330771Y-185401128D02*
X186402200Y-185329700D01*
X186402200Y-185329700D02*
X186545057Y-185258271D01*
X186545057Y-185258271D02*
X186687914Y-185258271D01*
X187830771Y-186186842D02*
X187687913Y-186258271D01*
X187687913Y-186258271D02*
X187402199Y-186258271D01*
X187402199Y-186258271D02*
X187259342Y-186186842D01*
X187259342Y-186186842D02*
X187187913Y-186115414D01*
X187187913Y-186115414D02*
X187116485Y-185972557D01*
X187116485Y-185972557D02*
X187116485Y-185543985D01*
X187116485Y-185543985D02*
X187187913Y-185401128D01*
X187187913Y-185401128D02*
X187259342Y-185329700D01*
X187259342Y-185329700D02*
X187402199Y-185258271D01*
X187402199Y-185258271D02*
X187687913Y-185258271D01*
X187687913Y-185258271D02*
X187830771Y-185329700D01*
X189116485Y-185258271D02*
X189116485Y-186258271D01*
X188473627Y-185258271D02*
X188473627Y-186043985D01*
X188473627Y-186043985D02*
X188545056Y-186186842D01*
X188545056Y-186186842D02*
X188687913Y-186258271D01*
X188687913Y-186258271D02*
X188902199Y-186258271D01*
X188902199Y-186258271D02*
X189045056Y-186186842D01*
X189045056Y-186186842D02*
X189116485Y-186115414D01*
X189830770Y-186258271D02*
X189830770Y-185258271D01*
X189830770Y-184758271D02*
X189759342Y-184829700D01*
X189759342Y-184829700D02*
X189830770Y-184901128D01*
X189830770Y-184901128D02*
X189902199Y-184829700D01*
X189902199Y-184829700D02*
X189830770Y-184758271D01*
X189830770Y-184758271D02*
X189830770Y-184901128D01*
X190330771Y-185258271D02*
X190902199Y-185258271D01*
X190545056Y-184758271D02*
X190545056Y-186043985D01*
X190545056Y-186043985D02*
X190616485Y-186186842D01*
X190616485Y-186186842D02*
X190759342Y-186258271D01*
X190759342Y-186258271D02*
X190902199Y-186258271D01*
X191973628Y-186186842D02*
X191830771Y-186258271D01*
X191830771Y-186258271D02*
X191545057Y-186258271D01*
X191545057Y-186258271D02*
X191402199Y-186186842D01*
X191402199Y-186186842D02*
X191330771Y-186043985D01*
X191330771Y-186043985D02*
X191330771Y-185472557D01*
X191330771Y-185472557D02*
X191402199Y-185329700D01*
X191402199Y-185329700D02*
X191545057Y-185258271D01*
X191545057Y-185258271D02*
X191830771Y-185258271D01*
X191830771Y-185258271D02*
X191973628Y-185329700D01*
X191973628Y-185329700D02*
X192045057Y-185472557D01*
X192045057Y-185472557D02*
X192045057Y-185615414D01*
X192045057Y-185615414D02*
X191330771Y-185758271D01*
X192687913Y-186258271D02*
X192687913Y-185258271D01*
X192687913Y-185543985D02*
X192759342Y-185401128D01*
X192759342Y-185401128D02*
X192830771Y-185329700D01*
X192830771Y-185329700D02*
X192973628Y-185258271D01*
X192973628Y-185258271D02*
X193116485Y-185258271D01*
X193616484Y-186258271D02*
X193616484Y-185258271D01*
X193616484Y-184758271D02*
X193545056Y-184829700D01*
X193545056Y-184829700D02*
X193616484Y-184901128D01*
X193616484Y-184901128D02*
X193687913Y-184829700D01*
X193687913Y-184829700D02*
X193616484Y-184758271D01*
X193616484Y-184758271D02*
X193616484Y-184901128D01*
X194973628Y-186258271D02*
X194973628Y-185472557D01*
X194973628Y-185472557D02*
X194902199Y-185329700D01*
X194902199Y-185329700D02*
X194759342Y-185258271D01*
X194759342Y-185258271D02*
X194473628Y-185258271D01*
X194473628Y-185258271D02*
X194330770Y-185329700D01*
X194973628Y-186186842D02*
X194830770Y-186258271D01*
X194830770Y-186258271D02*
X194473628Y-186258271D01*
X194473628Y-186258271D02*
X194330770Y-186186842D01*
X194330770Y-186186842D02*
X194259342Y-186043985D01*
X194259342Y-186043985D02*
X194259342Y-185901128D01*
X194259342Y-185901128D02*
X194330770Y-185758271D01*
X194330770Y-185758271D02*
X194473628Y-185686842D01*
X194473628Y-185686842D02*
X194830770Y-185686842D01*
X194830770Y-185686842D02*
X194973628Y-185615414D01*
X195687913Y-185472557D02*
X196187913Y-185472557D01*
X196402199Y-186258271D02*
X195687913Y-186258271D01*
X195687913Y-186258271D02*
X195687913Y-184758271D01*
X195687913Y-184758271D02*
X196402199Y-184758271D01*
X196973628Y-186186842D02*
X197187914Y-186258271D01*
X197187914Y-186258271D02*
X197545056Y-186258271D01*
X197545056Y-186258271D02*
X197687914Y-186186842D01*
X197687914Y-186186842D02*
X197759342Y-186115414D01*
X197759342Y-186115414D02*
X197830771Y-185972557D01*
X197830771Y-185972557D02*
X197830771Y-185829700D01*
X197830771Y-185829700D02*
X197759342Y-185686842D01*
X197759342Y-185686842D02*
X197687914Y-185615414D01*
X197687914Y-185615414D02*
X197545056Y-185543985D01*
X197545056Y-185543985D02*
X197259342Y-185472557D01*
X197259342Y-185472557D02*
X197116485Y-185401128D01*
X197116485Y-185401128D02*
X197045056Y-185329700D01*
X197045056Y-185329700D02*
X196973628Y-185186842D01*
X196973628Y-185186842D02*
X196973628Y-185043985D01*
X196973628Y-185043985D02*
X197045056Y-184901128D01*
X197045056Y-184901128D02*
X197116485Y-184829700D01*
X197116485Y-184829700D02*
X197259342Y-184758271D01*
X197259342Y-184758271D02*
X197616485Y-184758271D01*
X197616485Y-184758271D02*
X197830771Y-184829700D01*
X198473627Y-186258271D02*
X198473627Y-184758271D01*
X198473627Y-184758271D02*
X199045056Y-184758271D01*
X199045056Y-184758271D02*
X199187913Y-184829700D01*
X199187913Y-184829700D02*
X199259342Y-184901128D01*
X199259342Y-184901128D02*
X199330770Y-185043985D01*
X199330770Y-185043985D02*
X199330770Y-185258271D01*
X199330770Y-185258271D02*
X199259342Y-185401128D01*
X199259342Y-185401128D02*
X199187913Y-185472557D01*
X199187913Y-185472557D02*
X199045056Y-185543985D01*
X199045056Y-185543985D02*
X198473627Y-185543985D01*
X199830770Y-184758271D02*
X200759342Y-184758271D01*
X200759342Y-184758271D02*
X200259342Y-185329700D01*
X200259342Y-185329700D02*
X200473627Y-185329700D01*
X200473627Y-185329700D02*
X200616485Y-185401128D01*
X200616485Y-185401128D02*
X200687913Y-185472557D01*
X200687913Y-185472557D02*
X200759342Y-185615414D01*
X200759342Y-185615414D02*
X200759342Y-185972557D01*
X200759342Y-185972557D02*
X200687913Y-186115414D01*
X200687913Y-186115414D02*
X200616485Y-186186842D01*
X200616485Y-186186842D02*
X200473627Y-186258271D01*
X200473627Y-186258271D02*
X200045056Y-186258271D01*
X200045056Y-186258271D02*
X199902199Y-186186842D01*
X199902199Y-186186842D02*
X199830770Y-186115414D01*
X201330770Y-184901128D02*
X201402198Y-184829700D01*
X201402198Y-184829700D02*
X201545056Y-184758271D01*
X201545056Y-184758271D02*
X201902198Y-184758271D01*
X201902198Y-184758271D02*
X202045056Y-184829700D01*
X202045056Y-184829700D02*
X202116484Y-184901128D01*
X202116484Y-184901128D02*
X202187913Y-185043985D01*
X202187913Y-185043985D02*
X202187913Y-185186842D01*
X202187913Y-185186842D02*
X202116484Y-185401128D01*
X202116484Y-185401128D02*
X201259341Y-186258271D01*
X201259341Y-186258271D02*
X202187913Y-186258271D01*
X202830769Y-186115414D02*
X202902198Y-186186842D01*
X202902198Y-186186842D02*
X202830769Y-186258271D01*
X202830769Y-186258271D02*
X202759341Y-186186842D01*
X202759341Y-186186842D02*
X202830769Y-186115414D01*
X202830769Y-186115414D02*
X202830769Y-186258271D01*
X203545055Y-186258271D02*
X203545055Y-184758271D01*
X203687913Y-185686842D02*
X204116484Y-186258271D01*
X204116484Y-185258271D02*
X203545055Y-185829700D01*
X204759341Y-186258271D02*
X204759341Y-185258271D01*
X204759341Y-184758271D02*
X204687913Y-184829700D01*
X204687913Y-184829700D02*
X204759341Y-184901128D01*
X204759341Y-184901128D02*
X204830770Y-184829700D01*
X204830770Y-184829700D02*
X204759341Y-184758271D01*
X204759341Y-184758271D02*
X204759341Y-184901128D01*
X206116485Y-186186842D02*
X205973627Y-186258271D01*
X205973627Y-186258271D02*
X205687913Y-186258271D01*
X205687913Y-186258271D02*
X205545056Y-186186842D01*
X205545056Y-186186842D02*
X205473627Y-186115414D01*
X205473627Y-186115414D02*
X205402199Y-185972557D01*
X205402199Y-185972557D02*
X205402199Y-185543985D01*
X205402199Y-185543985D02*
X205473627Y-185401128D01*
X205473627Y-185401128D02*
X205545056Y-185329700D01*
X205545056Y-185329700D02*
X205687913Y-185258271D01*
X205687913Y-185258271D02*
X205973627Y-185258271D01*
X205973627Y-185258271D02*
X206116485Y-185329700D01*
X207402199Y-186258271D02*
X207402199Y-185472557D01*
X207402199Y-185472557D02*
X207330770Y-185329700D01*
X207330770Y-185329700D02*
X207187913Y-185258271D01*
X207187913Y-185258271D02*
X206902199Y-185258271D01*
X206902199Y-185258271D02*
X206759341Y-185329700D01*
X207402199Y-186186842D02*
X207259341Y-186258271D01*
X207259341Y-186258271D02*
X206902199Y-186258271D01*
X206902199Y-186258271D02*
X206759341Y-186186842D01*
X206759341Y-186186842D02*
X206687913Y-186043985D01*
X206687913Y-186043985D02*
X206687913Y-185901128D01*
X206687913Y-185901128D02*
X206759341Y-185758271D01*
X206759341Y-185758271D02*
X206902199Y-185686842D01*
X206902199Y-185686842D02*
X207259341Y-185686842D01*
X207259341Y-185686842D02*
X207402199Y-185615414D01*
X208759342Y-186258271D02*
X208759342Y-184758271D01*
X208759342Y-186186842D02*
X208616484Y-186258271D01*
X208616484Y-186258271D02*
X208330770Y-186258271D01*
X208330770Y-186258271D02*
X208187913Y-186186842D01*
X208187913Y-186186842D02*
X208116484Y-186115414D01*
X208116484Y-186115414D02*
X208045056Y-185972557D01*
X208045056Y-185972557D02*
X208045056Y-185543985D01*
X208045056Y-185543985D02*
X208116484Y-185401128D01*
X208116484Y-185401128D02*
X208187913Y-185329700D01*
X208187913Y-185329700D02*
X208330770Y-185258271D01*
X208330770Y-185258271D02*
X208616484Y-185258271D01*
X208616484Y-185258271D02*
X208759342Y-185329700D01*
X209116485Y-186401128D02*
X210259342Y-186401128D01*
X210616484Y-185258271D02*
X210616484Y-186758271D01*
X210616484Y-185329700D02*
X210759342Y-185258271D01*
X210759342Y-185258271D02*
X211045056Y-185258271D01*
X211045056Y-185258271D02*
X211187913Y-185329700D01*
X211187913Y-185329700D02*
X211259342Y-185401128D01*
X211259342Y-185401128D02*
X211330770Y-185543985D01*
X211330770Y-185543985D02*
X211330770Y-185972557D01*
X211330770Y-185972557D02*
X211259342Y-186115414D01*
X211259342Y-186115414D02*
X211187913Y-186186842D01*
X211187913Y-186186842D02*
X211045056Y-186258271D01*
X211045056Y-186258271D02*
X210759342Y-186258271D01*
X210759342Y-186258271D02*
X210616484Y-186186842D01*
X212616485Y-186186842D02*
X212473627Y-186258271D01*
X212473627Y-186258271D02*
X212187913Y-186258271D01*
X212187913Y-186258271D02*
X212045056Y-186186842D01*
X212045056Y-186186842D02*
X211973627Y-186115414D01*
X211973627Y-186115414D02*
X211902199Y-185972557D01*
X211902199Y-185972557D02*
X211902199Y-185543985D01*
X211902199Y-185543985D02*
X211973627Y-185401128D01*
X211973627Y-185401128D02*
X212045056Y-185329700D01*
X212045056Y-185329700D02*
X212187913Y-185258271D01*
X212187913Y-185258271D02*
X212473627Y-185258271D01*
X212473627Y-185258271D02*
X212616485Y-185329700D01*
X213259341Y-186258271D02*
X213259341Y-184758271D01*
X213259341Y-185329700D02*
X213402199Y-185258271D01*
X213402199Y-185258271D02*
X213687913Y-185258271D01*
X213687913Y-185258271D02*
X213830770Y-185329700D01*
X213830770Y-185329700D02*
X213902199Y-185401128D01*
X213902199Y-185401128D02*
X213973627Y-185543985D01*
X213973627Y-185543985D02*
X213973627Y-185972557D01*
X213973627Y-185972557D02*
X213902199Y-186115414D01*
X213902199Y-186115414D02*
X213830770Y-186186842D01*
X213830770Y-186186842D02*
X213687913Y-186258271D01*
X213687913Y-186258271D02*
X213402199Y-186258271D01*
X213402199Y-186258271D02*
X213259341Y-186186842D01*
D10*
D11*
X177002200Y-181507200D02*
X285002200Y-181507200D01*
D10*
D11*
X178287914Y-183486842D02*
X178502200Y-183558271D01*
X178502200Y-183558271D02*
X178859342Y-183558271D01*
X178859342Y-183558271D02*
X179002200Y-183486842D01*
X179002200Y-183486842D02*
X179073628Y-183415414D01*
X179073628Y-183415414D02*
X179145057Y-183272557D01*
X179145057Y-183272557D02*
X179145057Y-183129700D01*
X179145057Y-183129700D02*
X179073628Y-182986842D01*
X179073628Y-182986842D02*
X179002200Y-182915414D01*
X179002200Y-182915414D02*
X178859342Y-182843985D01*
X178859342Y-182843985D02*
X178573628Y-182772557D01*
X178573628Y-182772557D02*
X178430771Y-182701128D01*
X178430771Y-182701128D02*
X178359342Y-182629700D01*
X178359342Y-182629700D02*
X178287914Y-182486842D01*
X178287914Y-182486842D02*
X178287914Y-182343985D01*
X178287914Y-182343985D02*
X178359342Y-182201128D01*
X178359342Y-182201128D02*
X178430771Y-182129700D01*
X178430771Y-182129700D02*
X178573628Y-182058271D01*
X178573628Y-182058271D02*
X178930771Y-182058271D01*
X178930771Y-182058271D02*
X179145057Y-182129700D01*
X179787913Y-183558271D02*
X179787913Y-182058271D01*
X180430771Y-183558271D02*
X180430771Y-182772557D01*
X180430771Y-182772557D02*
X180359342Y-182629700D01*
X180359342Y-182629700D02*
X180216485Y-182558271D01*
X180216485Y-182558271D02*
X180002199Y-182558271D01*
X180002199Y-182558271D02*
X179859342Y-182629700D01*
X179859342Y-182629700D02*
X179787913Y-182701128D01*
X181716485Y-183486842D02*
X181573628Y-183558271D01*
X181573628Y-183558271D02*
X181287914Y-183558271D01*
X181287914Y-183558271D02*
X181145056Y-183486842D01*
X181145056Y-183486842D02*
X181073628Y-183343985D01*
X181073628Y-183343985D02*
X181073628Y-182772557D01*
X181073628Y-182772557D02*
X181145056Y-182629700D01*
X181145056Y-182629700D02*
X181287914Y-182558271D01*
X181287914Y-182558271D02*
X181573628Y-182558271D01*
X181573628Y-182558271D02*
X181716485Y-182629700D01*
X181716485Y-182629700D02*
X181787914Y-182772557D01*
X181787914Y-182772557D02*
X181787914Y-182915414D01*
X181787914Y-182915414D02*
X181073628Y-183058271D01*
X183002199Y-183486842D02*
X182859342Y-183558271D01*
X182859342Y-183558271D02*
X182573628Y-183558271D01*
X182573628Y-183558271D02*
X182430770Y-183486842D01*
X182430770Y-183486842D02*
X182359342Y-183343985D01*
X182359342Y-183343985D02*
X182359342Y-182772557D01*
X182359342Y-182772557D02*
X182430770Y-182629700D01*
X182430770Y-182629700D02*
X182573628Y-182558271D01*
X182573628Y-182558271D02*
X182859342Y-182558271D01*
X182859342Y-182558271D02*
X183002199Y-182629700D01*
X183002199Y-182629700D02*
X183073628Y-182772557D01*
X183073628Y-182772557D02*
X183073628Y-182915414D01*
X183073628Y-182915414D02*
X182359342Y-183058271D01*
X183502199Y-182558271D02*
X184073627Y-182558271D01*
X183716484Y-182058271D02*
X183716484Y-183343985D01*
X183716484Y-183343985D02*
X183787913Y-183486842D01*
X183787913Y-183486842D02*
X183930770Y-183558271D01*
X183930770Y-183558271D02*
X184073627Y-183558271D01*
X184573627Y-183415414D02*
X184645056Y-183486842D01*
X184645056Y-183486842D02*
X184573627Y-183558271D01*
X184573627Y-183558271D02*
X184502199Y-183486842D01*
X184502199Y-183486842D02*
X184573627Y-183415414D01*
X184573627Y-183415414D02*
X184573627Y-183558271D01*
X184573627Y-182629700D02*
X184645056Y-182701128D01*
X184645056Y-182701128D02*
X184573627Y-182772557D01*
X184573627Y-182772557D02*
X184502199Y-182701128D01*
X184502199Y-182701128D02*
X184573627Y-182629700D01*
X184573627Y-182629700D02*
X184573627Y-182772557D01*
D10*
D12*
D10*
D11*
D10*
D11*
D10*
D11*
D10*
D11*
D10*
D11*
X197002200Y-191507200D02*
X197002200Y-194507200D01*
D10*
D11*
X261002200Y-191507200D02*
X261002200Y-198007200D01*
%TO.C,D2*%
X78617380Y-140988094D02*
X77617380Y-140988094D01*
X77617380Y-140988094D02*
X77617380Y-140749999D01*
X77617380Y-140749999D02*
X77665000Y-140607142D01*
X77665000Y-140607142D02*
X77760238Y-140511904D01*
X77760238Y-140511904D02*
X77855476Y-140464285D01*
X77855476Y-140464285D02*
X78045952Y-140416666D01*
X78045952Y-140416666D02*
X78188809Y-140416666D01*
X78188809Y-140416666D02*
X78379285Y-140464285D01*
X78379285Y-140464285D02*
X78474523Y-140511904D01*
X78474523Y-140511904D02*
X78569761Y-140607142D01*
X78569761Y-140607142D02*
X78617380Y-140749999D01*
X78617380Y-140749999D02*
X78617380Y-140988094D01*
X77712619Y-140035713D02*
X77665000Y-139988094D01*
X77665000Y-139988094D02*
X77617380Y-139892856D01*
X77617380Y-139892856D02*
X77617380Y-139654761D01*
X77617380Y-139654761D02*
X77665000Y-139559523D01*
X77665000Y-139559523D02*
X77712619Y-139511904D01*
X77712619Y-139511904D02*
X77807857Y-139464285D01*
X77807857Y-139464285D02*
X77903095Y-139464285D01*
X77903095Y-139464285D02*
X78045952Y-139511904D01*
X78045952Y-139511904D02*
X78617380Y-140083332D01*
X78617380Y-140083332D02*
X78617380Y-139464285D01*
X80581666Y-145528094D02*
X80581666Y-145051904D01*
X80867380Y-145623332D02*
X79867380Y-145289999D01*
X79867380Y-145289999D02*
X80867380Y-144956666D01*
%TO.C,D1*%
X79508166Y-179968094D02*
X78508166Y-179968094D01*
X78508166Y-179968094D02*
X78508166Y-179729999D01*
X78508166Y-179729999D02*
X78555786Y-179587142D01*
X78555786Y-179587142D02*
X78651024Y-179491904D01*
X78651024Y-179491904D02*
X78746262Y-179444285D01*
X78746262Y-179444285D02*
X78936738Y-179396666D01*
X78936738Y-179396666D02*
X79079595Y-179396666D01*
X79079595Y-179396666D02*
X79270071Y-179444285D01*
X79270071Y-179444285D02*
X79365309Y-179491904D01*
X79365309Y-179491904D02*
X79460547Y-179587142D01*
X79460547Y-179587142D02*
X79508166Y-179729999D01*
X79508166Y-179729999D02*
X79508166Y-179968094D01*
X79508166Y-178444285D02*
X79508166Y-179015713D01*
X79508166Y-178729999D02*
X78508166Y-178729999D01*
X78508166Y-178729999D02*
X78651024Y-178825237D01*
X78651024Y-178825237D02*
X78746262Y-178920475D01*
X78746262Y-178920475D02*
X78793881Y-179015713D01*
X81831666Y-176198094D02*
X81831666Y-175721904D01*
X82117380Y-176293332D02*
X81117380Y-175959999D01*
X81117380Y-175959999D02*
X82117380Y-175626666D01*
%TO.C,C1*%
X124022142Y-130416666D02*
X124069761Y-130464285D01*
X124069761Y-130464285D02*
X124117380Y-130607142D01*
X124117380Y-130607142D02*
X124117380Y-130702380D01*
X124117380Y-130702380D02*
X124069761Y-130845237D01*
X124069761Y-130845237D02*
X123974523Y-130940475D01*
X123974523Y-130940475D02*
X123879285Y-130988094D01*
X123879285Y-130988094D02*
X123688809Y-131035713D01*
X123688809Y-131035713D02*
X123545952Y-131035713D01*
X123545952Y-131035713D02*
X123355476Y-130988094D01*
X123355476Y-130988094D02*
X123260238Y-130940475D01*
X123260238Y-130940475D02*
X123165000Y-130845237D01*
X123165000Y-130845237D02*
X123117380Y-130702380D01*
X123117380Y-130702380D02*
X123117380Y-130607142D01*
X123117380Y-130607142D02*
X123165000Y-130464285D01*
X123165000Y-130464285D02*
X123212619Y-130416666D01*
X124117380Y-129464285D02*
X124117380Y-130035713D01*
X124117380Y-129749999D02*
X123117380Y-129749999D01*
X123117380Y-129749999D02*
X123260238Y-129845237D01*
X123260238Y-129845237D02*
X123355476Y-129940475D01*
X123355476Y-129940475D02*
X123403095Y-130035713D01*
%TO.C,SIM800HAlim1*%
X83569761Y-174619046D02*
X83617380Y-174476189D01*
X83617380Y-174476189D02*
X83617380Y-174238094D01*
X83617380Y-174238094D02*
X83569761Y-174142856D01*
X83569761Y-174142856D02*
X83522142Y-174095237D01*
X83522142Y-174095237D02*
X83426904Y-174047618D01*
X83426904Y-174047618D02*
X83331666Y-174047618D01*
X83331666Y-174047618D02*
X83236428Y-174095237D01*
X83236428Y-174095237D02*
X83188809Y-174142856D01*
X83188809Y-174142856D02*
X83141190Y-174238094D01*
X83141190Y-174238094D02*
X83093571Y-174428570D01*
X83093571Y-174428570D02*
X83045952Y-174523808D01*
X83045952Y-174523808D02*
X82998333Y-174571427D01*
X82998333Y-174571427D02*
X82903095Y-174619046D01*
X82903095Y-174619046D02*
X82807857Y-174619046D01*
X82807857Y-174619046D02*
X82712619Y-174571427D01*
X82712619Y-174571427D02*
X82665000Y-174523808D01*
X82665000Y-174523808D02*
X82617380Y-174428570D01*
X82617380Y-174428570D02*
X82617380Y-174190475D01*
X82617380Y-174190475D02*
X82665000Y-174047618D01*
X83617380Y-173619046D02*
X82617380Y-173619046D01*
X83617380Y-173142856D02*
X82617380Y-173142856D01*
X82617380Y-173142856D02*
X83331666Y-172809523D01*
X83331666Y-172809523D02*
X82617380Y-172476190D01*
X82617380Y-172476190D02*
X83617380Y-172476190D01*
X83045952Y-171857142D02*
X82998333Y-171952380D01*
X82998333Y-171952380D02*
X82950714Y-171999999D01*
X82950714Y-171999999D02*
X82855476Y-172047618D01*
X82855476Y-172047618D02*
X82807857Y-172047618D01*
X82807857Y-172047618D02*
X82712619Y-171999999D01*
X82712619Y-171999999D02*
X82665000Y-171952380D01*
X82665000Y-171952380D02*
X82617380Y-171857142D01*
X82617380Y-171857142D02*
X82617380Y-171666666D01*
X82617380Y-171666666D02*
X82665000Y-171571428D01*
X82665000Y-171571428D02*
X82712619Y-171523809D01*
X82712619Y-171523809D02*
X82807857Y-171476190D01*
X82807857Y-171476190D02*
X82855476Y-171476190D01*
X82855476Y-171476190D02*
X82950714Y-171523809D01*
X82950714Y-171523809D02*
X82998333Y-171571428D01*
X82998333Y-171571428D02*
X83045952Y-171666666D01*
X83045952Y-171666666D02*
X83045952Y-171857142D01*
X83045952Y-171857142D02*
X83093571Y-171952380D01*
X83093571Y-171952380D02*
X83141190Y-171999999D01*
X83141190Y-171999999D02*
X83236428Y-172047618D01*
X83236428Y-172047618D02*
X83426904Y-172047618D01*
X83426904Y-172047618D02*
X83522142Y-171999999D01*
X83522142Y-171999999D02*
X83569761Y-171952380D01*
X83569761Y-171952380D02*
X83617380Y-171857142D01*
X83617380Y-171857142D02*
X83617380Y-171666666D01*
X83617380Y-171666666D02*
X83569761Y-171571428D01*
X83569761Y-171571428D02*
X83522142Y-171523809D01*
X83522142Y-171523809D02*
X83426904Y-171476190D01*
X83426904Y-171476190D02*
X83236428Y-171476190D01*
X83236428Y-171476190D02*
X83141190Y-171523809D01*
X83141190Y-171523809D02*
X83093571Y-171571428D01*
X83093571Y-171571428D02*
X83045952Y-171666666D01*
X82617380Y-170857142D02*
X82617380Y-170761904D01*
X82617380Y-170761904D02*
X82665000Y-170666666D01*
X82665000Y-170666666D02*
X82712619Y-170619047D01*
X82712619Y-170619047D02*
X82807857Y-170571428D01*
X82807857Y-170571428D02*
X82998333Y-170523809D01*
X82998333Y-170523809D02*
X83236428Y-170523809D01*
X83236428Y-170523809D02*
X83426904Y-170571428D01*
X83426904Y-170571428D02*
X83522142Y-170619047D01*
X83522142Y-170619047D02*
X83569761Y-170666666D01*
X83569761Y-170666666D02*
X83617380Y-170761904D01*
X83617380Y-170761904D02*
X83617380Y-170857142D01*
X83617380Y-170857142D02*
X83569761Y-170952380D01*
X83569761Y-170952380D02*
X83522142Y-170999999D01*
X83522142Y-170999999D02*
X83426904Y-171047618D01*
X83426904Y-171047618D02*
X83236428Y-171095237D01*
X83236428Y-171095237D02*
X82998333Y-171095237D01*
X82998333Y-171095237D02*
X82807857Y-171047618D01*
X82807857Y-171047618D02*
X82712619Y-170999999D01*
X82712619Y-170999999D02*
X82665000Y-170952380D01*
X82665000Y-170952380D02*
X82617380Y-170857142D01*
X82617380Y-169904761D02*
X82617380Y-169809523D01*
X82617380Y-169809523D02*
X82665000Y-169714285D01*
X82665000Y-169714285D02*
X82712619Y-169666666D01*
X82712619Y-169666666D02*
X82807857Y-169619047D01*
X82807857Y-169619047D02*
X82998333Y-169571428D01*
X82998333Y-169571428D02*
X83236428Y-169571428D01*
X83236428Y-169571428D02*
X83426904Y-169619047D01*
X83426904Y-169619047D02*
X83522142Y-169666666D01*
X83522142Y-169666666D02*
X83569761Y-169714285D01*
X83569761Y-169714285D02*
X83617380Y-169809523D01*
X83617380Y-169809523D02*
X83617380Y-169904761D01*
X83617380Y-169904761D02*
X83569761Y-169999999D01*
X83569761Y-169999999D02*
X83522142Y-170047618D01*
X83522142Y-170047618D02*
X83426904Y-170095237D01*
X83426904Y-170095237D02*
X83236428Y-170142856D01*
X83236428Y-170142856D02*
X82998333Y-170142856D01*
X82998333Y-170142856D02*
X82807857Y-170095237D01*
X82807857Y-170095237D02*
X82712619Y-170047618D01*
X82712619Y-170047618D02*
X82665000Y-169999999D01*
X82665000Y-169999999D02*
X82617380Y-169904761D01*
X83617380Y-169142856D02*
X82617380Y-169142856D01*
X83093571Y-169142856D02*
X83093571Y-168571428D01*
X83617380Y-168571428D02*
X82617380Y-168571428D01*
X83331666Y-168142856D02*
X83331666Y-167666666D01*
X83617380Y-168238094D02*
X82617380Y-167904761D01*
X82617380Y-167904761D02*
X83617380Y-167571428D01*
X83617380Y-167095237D02*
X83569761Y-167190475D01*
X83569761Y-167190475D02*
X83474523Y-167238094D01*
X83474523Y-167238094D02*
X82617380Y-167238094D01*
X83617380Y-166714284D02*
X82950714Y-166714284D01*
X82617380Y-166714284D02*
X82665000Y-166761903D01*
X82665000Y-166761903D02*
X82712619Y-166714284D01*
X82712619Y-166714284D02*
X82665000Y-166666665D01*
X82665000Y-166666665D02*
X82617380Y-166714284D01*
X82617380Y-166714284D02*
X82712619Y-166714284D01*
X83617380Y-166238094D02*
X82950714Y-166238094D01*
X83045952Y-166238094D02*
X82998333Y-166190475D01*
X82998333Y-166190475D02*
X82950714Y-166095237D01*
X82950714Y-166095237D02*
X82950714Y-165952380D01*
X82950714Y-165952380D02*
X82998333Y-165857142D01*
X82998333Y-165857142D02*
X83093571Y-165809523D01*
X83093571Y-165809523D02*
X83617380Y-165809523D01*
X83093571Y-165809523D02*
X82998333Y-165761904D01*
X82998333Y-165761904D02*
X82950714Y-165666666D01*
X82950714Y-165666666D02*
X82950714Y-165523809D01*
X82950714Y-165523809D02*
X82998333Y-165428570D01*
X82998333Y-165428570D02*
X83093571Y-165380951D01*
X83093571Y-165380951D02*
X83617380Y-165380951D01*
X83617380Y-164380952D02*
X83617380Y-164952380D01*
X83617380Y-164666666D02*
X82617380Y-164666666D01*
X82617380Y-164666666D02*
X82760238Y-164761904D01*
X82760238Y-164761904D02*
X82855476Y-164857142D01*
X82855476Y-164857142D02*
X82903095Y-164952380D01*
%TO.C,PlacaSolar1*%
X84117380Y-145285714D02*
X83117380Y-145285714D01*
X83117380Y-145285714D02*
X83117380Y-144904762D01*
X83117380Y-144904762D02*
X83165000Y-144809524D01*
X83165000Y-144809524D02*
X83212619Y-144761905D01*
X83212619Y-144761905D02*
X83307857Y-144714286D01*
X83307857Y-144714286D02*
X83450714Y-144714286D01*
X83450714Y-144714286D02*
X83545952Y-144761905D01*
X83545952Y-144761905D02*
X83593571Y-144809524D01*
X83593571Y-144809524D02*
X83641190Y-144904762D01*
X83641190Y-144904762D02*
X83641190Y-145285714D01*
X84117380Y-144142857D02*
X84069761Y-144238095D01*
X84069761Y-144238095D02*
X83974523Y-144285714D01*
X83974523Y-144285714D02*
X83117380Y-144285714D01*
X84117380Y-143333333D02*
X83593571Y-143333333D01*
X83593571Y-143333333D02*
X83498333Y-143380952D01*
X83498333Y-143380952D02*
X83450714Y-143476190D01*
X83450714Y-143476190D02*
X83450714Y-143666666D01*
X83450714Y-143666666D02*
X83498333Y-143761904D01*
X84069761Y-143333333D02*
X84117380Y-143428571D01*
X84117380Y-143428571D02*
X84117380Y-143666666D01*
X84117380Y-143666666D02*
X84069761Y-143761904D01*
X84069761Y-143761904D02*
X83974523Y-143809523D01*
X83974523Y-143809523D02*
X83879285Y-143809523D01*
X83879285Y-143809523D02*
X83784047Y-143761904D01*
X83784047Y-143761904D02*
X83736428Y-143666666D01*
X83736428Y-143666666D02*
X83736428Y-143428571D01*
X83736428Y-143428571D02*
X83688809Y-143333333D01*
X84069761Y-142428571D02*
X84117380Y-142523809D01*
X84117380Y-142523809D02*
X84117380Y-142714285D01*
X84117380Y-142714285D02*
X84069761Y-142809523D01*
X84069761Y-142809523D02*
X84022142Y-142857142D01*
X84022142Y-142857142D02*
X83926904Y-142904761D01*
X83926904Y-142904761D02*
X83641190Y-142904761D01*
X83641190Y-142904761D02*
X83545952Y-142857142D01*
X83545952Y-142857142D02*
X83498333Y-142809523D01*
X83498333Y-142809523D02*
X83450714Y-142714285D01*
X83450714Y-142714285D02*
X83450714Y-142523809D01*
X83450714Y-142523809D02*
X83498333Y-142428571D01*
X84117380Y-141571428D02*
X83593571Y-141571428D01*
X83593571Y-141571428D02*
X83498333Y-141619047D01*
X83498333Y-141619047D02*
X83450714Y-141714285D01*
X83450714Y-141714285D02*
X83450714Y-141904761D01*
X83450714Y-141904761D02*
X83498333Y-141999999D01*
X84069761Y-141571428D02*
X84117380Y-141666666D01*
X84117380Y-141666666D02*
X84117380Y-141904761D01*
X84117380Y-141904761D02*
X84069761Y-141999999D01*
X84069761Y-141999999D02*
X83974523Y-142047618D01*
X83974523Y-142047618D02*
X83879285Y-142047618D01*
X83879285Y-142047618D02*
X83784047Y-141999999D01*
X83784047Y-141999999D02*
X83736428Y-141904761D01*
X83736428Y-141904761D02*
X83736428Y-141666666D01*
X83736428Y-141666666D02*
X83688809Y-141571428D01*
X84069761Y-141142856D02*
X84117380Y-140999999D01*
X84117380Y-140999999D02*
X84117380Y-140761904D01*
X84117380Y-140761904D02*
X84069761Y-140666666D01*
X84069761Y-140666666D02*
X84022142Y-140619047D01*
X84022142Y-140619047D02*
X83926904Y-140571428D01*
X83926904Y-140571428D02*
X83831666Y-140571428D01*
X83831666Y-140571428D02*
X83736428Y-140619047D01*
X83736428Y-140619047D02*
X83688809Y-140666666D01*
X83688809Y-140666666D02*
X83641190Y-140761904D01*
X83641190Y-140761904D02*
X83593571Y-140952380D01*
X83593571Y-140952380D02*
X83545952Y-141047618D01*
X83545952Y-141047618D02*
X83498333Y-141095237D01*
X83498333Y-141095237D02*
X83403095Y-141142856D01*
X83403095Y-141142856D02*
X83307857Y-141142856D01*
X83307857Y-141142856D02*
X83212619Y-141095237D01*
X83212619Y-141095237D02*
X83165000Y-141047618D01*
X83165000Y-141047618D02*
X83117380Y-140952380D01*
X83117380Y-140952380D02*
X83117380Y-140714285D01*
X83117380Y-140714285D02*
X83165000Y-140571428D01*
X84117380Y-139999999D02*
X84069761Y-140095237D01*
X84069761Y-140095237D02*
X84022142Y-140142856D01*
X84022142Y-140142856D02*
X83926904Y-140190475D01*
X83926904Y-140190475D02*
X83641190Y-140190475D01*
X83641190Y-140190475D02*
X83545952Y-140142856D01*
X83545952Y-140142856D02*
X83498333Y-140095237D01*
X83498333Y-140095237D02*
X83450714Y-139999999D01*
X83450714Y-139999999D02*
X83450714Y-139857142D01*
X83450714Y-139857142D02*
X83498333Y-139761904D01*
X83498333Y-139761904D02*
X83545952Y-139714285D01*
X83545952Y-139714285D02*
X83641190Y-139666666D01*
X83641190Y-139666666D02*
X83926904Y-139666666D01*
X83926904Y-139666666D02*
X84022142Y-139714285D01*
X84022142Y-139714285D02*
X84069761Y-139761904D01*
X84069761Y-139761904D02*
X84117380Y-139857142D01*
X84117380Y-139857142D02*
X84117380Y-139999999D01*
X84117380Y-139095237D02*
X84069761Y-139190475D01*
X84069761Y-139190475D02*
X83974523Y-139238094D01*
X83974523Y-139238094D02*
X83117380Y-139238094D01*
X84117380Y-138285713D02*
X83593571Y-138285713D01*
X83593571Y-138285713D02*
X83498333Y-138333332D01*
X83498333Y-138333332D02*
X83450714Y-138428570D01*
X83450714Y-138428570D02*
X83450714Y-138619046D01*
X83450714Y-138619046D02*
X83498333Y-138714284D01*
X84069761Y-138285713D02*
X84117380Y-138380951D01*
X84117380Y-138380951D02*
X84117380Y-138619046D01*
X84117380Y-138619046D02*
X84069761Y-138714284D01*
X84069761Y-138714284D02*
X83974523Y-138761903D01*
X83974523Y-138761903D02*
X83879285Y-138761903D01*
X83879285Y-138761903D02*
X83784047Y-138714284D01*
X83784047Y-138714284D02*
X83736428Y-138619046D01*
X83736428Y-138619046D02*
X83736428Y-138380951D01*
X83736428Y-138380951D02*
X83688809Y-138285713D01*
X84117380Y-137809522D02*
X83450714Y-137809522D01*
X83641190Y-137809522D02*
X83545952Y-137761903D01*
X83545952Y-137761903D02*
X83498333Y-137714284D01*
X83498333Y-137714284D02*
X83450714Y-137619046D01*
X83450714Y-137619046D02*
X83450714Y-137523808D01*
X84117380Y-136666665D02*
X84117380Y-137238093D01*
X84117380Y-136952379D02*
X83117380Y-136952379D01*
X83117380Y-136952379D02*
X83260238Y-137047617D01*
X83260238Y-137047617D02*
X83355476Y-137142855D01*
X83355476Y-137142855D02*
X83403095Y-137238093D01*
%TO.C,I2CADC2*%
X123619048Y-127117380D02*
X123619048Y-126117380D01*
X124047619Y-126212619D02*
X124095238Y-126165000D01*
X124095238Y-126165000D02*
X124190476Y-126117380D01*
X124190476Y-126117380D02*
X124428571Y-126117380D01*
X124428571Y-126117380D02*
X124523809Y-126165000D01*
X124523809Y-126165000D02*
X124571428Y-126212619D01*
X124571428Y-126212619D02*
X124619047Y-126307857D01*
X124619047Y-126307857D02*
X124619047Y-126403095D01*
X124619047Y-126403095D02*
X124571428Y-126545952D01*
X124571428Y-126545952D02*
X124000000Y-127117380D01*
X124000000Y-127117380D02*
X124619047Y-127117380D01*
X125619047Y-127022142D02*
X125571428Y-127069761D01*
X125571428Y-127069761D02*
X125428571Y-127117380D01*
X125428571Y-127117380D02*
X125333333Y-127117380D01*
X125333333Y-127117380D02*
X125190476Y-127069761D01*
X125190476Y-127069761D02*
X125095238Y-126974523D01*
X125095238Y-126974523D02*
X125047619Y-126879285D01*
X125047619Y-126879285D02*
X125000000Y-126688809D01*
X125000000Y-126688809D02*
X125000000Y-126545952D01*
X125000000Y-126545952D02*
X125047619Y-126355476D01*
X125047619Y-126355476D02*
X125095238Y-126260238D01*
X125095238Y-126260238D02*
X125190476Y-126165000D01*
X125190476Y-126165000D02*
X125333333Y-126117380D01*
X125333333Y-126117380D02*
X125428571Y-126117380D01*
X125428571Y-126117380D02*
X125571428Y-126165000D01*
X125571428Y-126165000D02*
X125619047Y-126212619D01*
X126000000Y-126831666D02*
X126476190Y-126831666D01*
X125904762Y-127117380D02*
X126238095Y-126117380D01*
X126238095Y-126117380D02*
X126571428Y-127117380D01*
X126904762Y-127117380D02*
X126904762Y-126117380D01*
X126904762Y-126117380D02*
X127142857Y-126117380D01*
X127142857Y-126117380D02*
X127285714Y-126165000D01*
X127285714Y-126165000D02*
X127380952Y-126260238D01*
X127380952Y-126260238D02*
X127428571Y-126355476D01*
X127428571Y-126355476D02*
X127476190Y-126545952D01*
X127476190Y-126545952D02*
X127476190Y-126688809D01*
X127476190Y-126688809D02*
X127428571Y-126879285D01*
X127428571Y-126879285D02*
X127380952Y-126974523D01*
X127380952Y-126974523D02*
X127285714Y-127069761D01*
X127285714Y-127069761D02*
X127142857Y-127117380D01*
X127142857Y-127117380D02*
X126904762Y-127117380D01*
X128476190Y-127022142D02*
X128428571Y-127069761D01*
X128428571Y-127069761D02*
X128285714Y-127117380D01*
X128285714Y-127117380D02*
X128190476Y-127117380D01*
X128190476Y-127117380D02*
X128047619Y-127069761D01*
X128047619Y-127069761D02*
X127952381Y-126974523D01*
X127952381Y-126974523D02*
X127904762Y-126879285D01*
X127904762Y-126879285D02*
X127857143Y-126688809D01*
X127857143Y-126688809D02*
X127857143Y-126545952D01*
X127857143Y-126545952D02*
X127904762Y-126355476D01*
X127904762Y-126355476D02*
X127952381Y-126260238D01*
X127952381Y-126260238D02*
X128047619Y-126165000D01*
X128047619Y-126165000D02*
X128190476Y-126117380D01*
X128190476Y-126117380D02*
X128285714Y-126117380D01*
X128285714Y-126117380D02*
X128428571Y-126165000D01*
X128428571Y-126165000D02*
X128476190Y-126212619D01*
X128857143Y-126212619D02*
X128904762Y-126165000D01*
X128904762Y-126165000D02*
X129000000Y-126117380D01*
X129000000Y-126117380D02*
X129238095Y-126117380D01*
X129238095Y-126117380D02*
X129333333Y-126165000D01*
X129333333Y-126165000D02*
X129380952Y-126212619D01*
X129380952Y-126212619D02*
X129428571Y-126307857D01*
X129428571Y-126307857D02*
X129428571Y-126403095D01*
X129428571Y-126403095D02*
X129380952Y-126545952D01*
X129380952Y-126545952D02*
X128809524Y-127117380D01*
X128809524Y-127117380D02*
X129428571Y-127117380D01*
%TO.C,I2CADC1*%
X116617380Y-165880951D02*
X115617380Y-165880951D01*
X115712619Y-165452380D02*
X115665000Y-165404761D01*
X115665000Y-165404761D02*
X115617380Y-165309523D01*
X115617380Y-165309523D02*
X115617380Y-165071428D01*
X115617380Y-165071428D02*
X115665000Y-164976190D01*
X115665000Y-164976190D02*
X115712619Y-164928571D01*
X115712619Y-164928571D02*
X115807857Y-164880952D01*
X115807857Y-164880952D02*
X115903095Y-164880952D01*
X115903095Y-164880952D02*
X116045952Y-164928571D01*
X116045952Y-164928571D02*
X116617380Y-165499999D01*
X116617380Y-165499999D02*
X116617380Y-164880952D01*
X116522142Y-163880952D02*
X116569761Y-163928571D01*
X116569761Y-163928571D02*
X116617380Y-164071428D01*
X116617380Y-164071428D02*
X116617380Y-164166666D01*
X116617380Y-164166666D02*
X116569761Y-164309523D01*
X116569761Y-164309523D02*
X116474523Y-164404761D01*
X116474523Y-164404761D02*
X116379285Y-164452380D01*
X116379285Y-164452380D02*
X116188809Y-164499999D01*
X116188809Y-164499999D02*
X116045952Y-164499999D01*
X116045952Y-164499999D02*
X115855476Y-164452380D01*
X115855476Y-164452380D02*
X115760238Y-164404761D01*
X115760238Y-164404761D02*
X115665000Y-164309523D01*
X115665000Y-164309523D02*
X115617380Y-164166666D01*
X115617380Y-164166666D02*
X115617380Y-164071428D01*
X115617380Y-164071428D02*
X115665000Y-163928571D01*
X115665000Y-163928571D02*
X115712619Y-163880952D01*
X116331666Y-163499999D02*
X116331666Y-163023809D01*
X116617380Y-163595237D02*
X115617380Y-163261904D01*
X115617380Y-163261904D02*
X116617380Y-162928571D01*
X116617380Y-162595237D02*
X115617380Y-162595237D01*
X115617380Y-162595237D02*
X115617380Y-162357142D01*
X115617380Y-162357142D02*
X115665000Y-162214285D01*
X115665000Y-162214285D02*
X115760238Y-162119047D01*
X115760238Y-162119047D02*
X115855476Y-162071428D01*
X115855476Y-162071428D02*
X116045952Y-162023809D01*
X116045952Y-162023809D02*
X116188809Y-162023809D01*
X116188809Y-162023809D02*
X116379285Y-162071428D01*
X116379285Y-162071428D02*
X116474523Y-162119047D01*
X116474523Y-162119047D02*
X116569761Y-162214285D01*
X116569761Y-162214285D02*
X116617380Y-162357142D01*
X116617380Y-162357142D02*
X116617380Y-162595237D01*
X116522142Y-161023809D02*
X116569761Y-161071428D01*
X116569761Y-161071428D02*
X116617380Y-161214285D01*
X116617380Y-161214285D02*
X116617380Y-161309523D01*
X116617380Y-161309523D02*
X116569761Y-161452380D01*
X116569761Y-161452380D02*
X116474523Y-161547618D01*
X116474523Y-161547618D02*
X116379285Y-161595237D01*
X116379285Y-161595237D02*
X116188809Y-161642856D01*
X116188809Y-161642856D02*
X116045952Y-161642856D01*
X116045952Y-161642856D02*
X115855476Y-161595237D01*
X115855476Y-161595237D02*
X115760238Y-161547618D01*
X115760238Y-161547618D02*
X115665000Y-161452380D01*
X115665000Y-161452380D02*
X115617380Y-161309523D01*
X115617380Y-161309523D02*
X115617380Y-161214285D01*
X115617380Y-161214285D02*
X115665000Y-161071428D01*
X115665000Y-161071428D02*
X115712619Y-161023809D01*
X116617380Y-160071428D02*
X116617380Y-160642856D01*
X116617380Y-160357142D02*
X115617380Y-160357142D01*
X115617380Y-160357142D02*
X115760238Y-160452380D01*
X115760238Y-160452380D02*
X115855476Y-160547618D01*
X115855476Y-160547618D02*
X115903095Y-160642856D01*
%TO.C,GPSUART/RX*%
X101452380Y-143415000D02*
X101357142Y-143367380D01*
X101357142Y-143367380D02*
X101214285Y-143367380D01*
X101214285Y-143367380D02*
X101071428Y-143415000D01*
X101071428Y-143415000D02*
X100976190Y-143510238D01*
X100976190Y-143510238D02*
X100928571Y-143605476D01*
X100928571Y-143605476D02*
X100880952Y-143795952D01*
X100880952Y-143795952D02*
X100880952Y-143938809D01*
X100880952Y-143938809D02*
X100928571Y-144129285D01*
X100928571Y-144129285D02*
X100976190Y-144224523D01*
X100976190Y-144224523D02*
X101071428Y-144319761D01*
X101071428Y-144319761D02*
X101214285Y-144367380D01*
X101214285Y-144367380D02*
X101309523Y-144367380D01*
X101309523Y-144367380D02*
X101452380Y-144319761D01*
X101452380Y-144319761D02*
X101499999Y-144272142D01*
X101499999Y-144272142D02*
X101499999Y-143938809D01*
X101499999Y-143938809D02*
X101309523Y-143938809D01*
X101928571Y-144367380D02*
X101928571Y-143367380D01*
X101928571Y-143367380D02*
X102309523Y-143367380D01*
X102309523Y-143367380D02*
X102404761Y-143415000D01*
X102404761Y-143415000D02*
X102452380Y-143462619D01*
X102452380Y-143462619D02*
X102499999Y-143557857D01*
X102499999Y-143557857D02*
X102499999Y-143700714D01*
X102499999Y-143700714D02*
X102452380Y-143795952D01*
X102452380Y-143795952D02*
X102404761Y-143843571D01*
X102404761Y-143843571D02*
X102309523Y-143891190D01*
X102309523Y-143891190D02*
X101928571Y-143891190D01*
X102880952Y-144319761D02*
X103023809Y-144367380D01*
X103023809Y-144367380D02*
X103261904Y-144367380D01*
X103261904Y-144367380D02*
X103357142Y-144319761D01*
X103357142Y-144319761D02*
X103404761Y-144272142D01*
X103404761Y-144272142D02*
X103452380Y-144176904D01*
X103452380Y-144176904D02*
X103452380Y-144081666D01*
X103452380Y-144081666D02*
X103404761Y-143986428D01*
X103404761Y-143986428D02*
X103357142Y-143938809D01*
X103357142Y-143938809D02*
X103261904Y-143891190D01*
X103261904Y-143891190D02*
X103071428Y-143843571D01*
X103071428Y-143843571D02*
X102976190Y-143795952D01*
X102976190Y-143795952D02*
X102928571Y-143748333D01*
X102928571Y-143748333D02*
X102880952Y-143653095D01*
X102880952Y-143653095D02*
X102880952Y-143557857D01*
X102880952Y-143557857D02*
X102928571Y-143462619D01*
X102928571Y-143462619D02*
X102976190Y-143415000D01*
X102976190Y-143415000D02*
X103071428Y-143367380D01*
X103071428Y-143367380D02*
X103309523Y-143367380D01*
X103309523Y-143367380D02*
X103452380Y-143415000D01*
X103880952Y-143367380D02*
X103880952Y-144176904D01*
X103880952Y-144176904D02*
X103928571Y-144272142D01*
X103928571Y-144272142D02*
X103976190Y-144319761D01*
X103976190Y-144319761D02*
X104071428Y-144367380D01*
X104071428Y-144367380D02*
X104261904Y-144367380D01*
X104261904Y-144367380D02*
X104357142Y-144319761D01*
X104357142Y-144319761D02*
X104404761Y-144272142D01*
X104404761Y-144272142D02*
X104452380Y-144176904D01*
X104452380Y-144176904D02*
X104452380Y-143367380D01*
X104880952Y-144081666D02*
X105357142Y-144081666D01*
X104785714Y-144367380D02*
X105119047Y-143367380D01*
X105119047Y-143367380D02*
X105452380Y-144367380D01*
X106357142Y-144367380D02*
X106023809Y-143891190D01*
X105785714Y-144367380D02*
X105785714Y-143367380D01*
X105785714Y-143367380D02*
X106166666Y-143367380D01*
X106166666Y-143367380D02*
X106261904Y-143415000D01*
X106261904Y-143415000D02*
X106309523Y-143462619D01*
X106309523Y-143462619D02*
X106357142Y-143557857D01*
X106357142Y-143557857D02*
X106357142Y-143700714D01*
X106357142Y-143700714D02*
X106309523Y-143795952D01*
X106309523Y-143795952D02*
X106261904Y-143843571D01*
X106261904Y-143843571D02*
X106166666Y-143891190D01*
X106166666Y-143891190D02*
X105785714Y-143891190D01*
X106642857Y-143367380D02*
X107214285Y-143367380D01*
X106928571Y-144367380D02*
X106928571Y-143367380D01*
X108261904Y-143319761D02*
X107404762Y-144605476D01*
X109166666Y-144367380D02*
X108833333Y-143891190D01*
X108595238Y-144367380D02*
X108595238Y-143367380D01*
X108595238Y-143367380D02*
X108976190Y-143367380D01*
X108976190Y-143367380D02*
X109071428Y-143415000D01*
X109071428Y-143415000D02*
X109119047Y-143462619D01*
X109119047Y-143462619D02*
X109166666Y-143557857D01*
X109166666Y-143557857D02*
X109166666Y-143700714D01*
X109166666Y-143700714D02*
X109119047Y-143795952D01*
X109119047Y-143795952D02*
X109071428Y-143843571D01*
X109071428Y-143843571D02*
X108976190Y-143891190D01*
X108976190Y-143891190D02*
X108595238Y-143891190D01*
X109500000Y-143367380D02*
X110166666Y-144367380D01*
X110166666Y-143367380D02*
X109500000Y-144367380D01*
%TO.C,BateriaPrincipal1+2-1*%
X91904761Y-127843571D02*
X92047618Y-127891190D01*
X92047618Y-127891190D02*
X92095237Y-127938809D01*
X92095237Y-127938809D02*
X92142856Y-128034047D01*
X92142856Y-128034047D02*
X92142856Y-128176904D01*
X92142856Y-128176904D02*
X92095237Y-128272142D01*
X92095237Y-128272142D02*
X92047618Y-128319761D01*
X92047618Y-128319761D02*
X91952380Y-128367380D01*
X91952380Y-128367380D02*
X91571428Y-128367380D01*
X91571428Y-128367380D02*
X91571428Y-127367380D01*
X91571428Y-127367380D02*
X91904761Y-127367380D01*
X91904761Y-127367380D02*
X91999999Y-127415000D01*
X91999999Y-127415000D02*
X92047618Y-127462619D01*
X92047618Y-127462619D02*
X92095237Y-127557857D01*
X92095237Y-127557857D02*
X92095237Y-127653095D01*
X92095237Y-127653095D02*
X92047618Y-127748333D01*
X92047618Y-127748333D02*
X91999999Y-127795952D01*
X91999999Y-127795952D02*
X91904761Y-127843571D01*
X91904761Y-127843571D02*
X91571428Y-127843571D01*
X92999999Y-128367380D02*
X92999999Y-127843571D01*
X92999999Y-127843571D02*
X92952380Y-127748333D01*
X92952380Y-127748333D02*
X92857142Y-127700714D01*
X92857142Y-127700714D02*
X92666666Y-127700714D01*
X92666666Y-127700714D02*
X92571428Y-127748333D01*
X92999999Y-128319761D02*
X92904761Y-128367380D01*
X92904761Y-128367380D02*
X92666666Y-128367380D01*
X92666666Y-128367380D02*
X92571428Y-128319761D01*
X92571428Y-128319761D02*
X92523809Y-128224523D01*
X92523809Y-128224523D02*
X92523809Y-128129285D01*
X92523809Y-128129285D02*
X92571428Y-128034047D01*
X92571428Y-128034047D02*
X92666666Y-127986428D01*
X92666666Y-127986428D02*
X92904761Y-127986428D01*
X92904761Y-127986428D02*
X92999999Y-127938809D01*
X93333333Y-127700714D02*
X93714285Y-127700714D01*
X93476190Y-127367380D02*
X93476190Y-128224523D01*
X93476190Y-128224523D02*
X93523809Y-128319761D01*
X93523809Y-128319761D02*
X93619047Y-128367380D01*
X93619047Y-128367380D02*
X93714285Y-128367380D01*
X94428571Y-128319761D02*
X94333333Y-128367380D01*
X94333333Y-128367380D02*
X94142857Y-128367380D01*
X94142857Y-128367380D02*
X94047619Y-128319761D01*
X94047619Y-128319761D02*
X94000000Y-128224523D01*
X94000000Y-128224523D02*
X94000000Y-127843571D01*
X94000000Y-127843571D02*
X94047619Y-127748333D01*
X94047619Y-127748333D02*
X94142857Y-127700714D01*
X94142857Y-127700714D02*
X94333333Y-127700714D01*
X94333333Y-127700714D02*
X94428571Y-127748333D01*
X94428571Y-127748333D02*
X94476190Y-127843571D01*
X94476190Y-127843571D02*
X94476190Y-127938809D01*
X94476190Y-127938809D02*
X94000000Y-128034047D01*
X94904762Y-128367380D02*
X94904762Y-127700714D01*
X94904762Y-127891190D02*
X94952381Y-127795952D01*
X94952381Y-127795952D02*
X95000000Y-127748333D01*
X95000000Y-127748333D02*
X95095238Y-127700714D01*
X95095238Y-127700714D02*
X95190476Y-127700714D01*
X95523810Y-128367380D02*
X95523810Y-127700714D01*
X95523810Y-127367380D02*
X95476191Y-127415000D01*
X95476191Y-127415000D02*
X95523810Y-127462619D01*
X95523810Y-127462619D02*
X95571429Y-127415000D01*
X95571429Y-127415000D02*
X95523810Y-127367380D01*
X95523810Y-127367380D02*
X95523810Y-127462619D01*
X96428571Y-128367380D02*
X96428571Y-127843571D01*
X96428571Y-127843571D02*
X96380952Y-127748333D01*
X96380952Y-127748333D02*
X96285714Y-127700714D01*
X96285714Y-127700714D02*
X96095238Y-127700714D01*
X96095238Y-127700714D02*
X96000000Y-127748333D01*
X96428571Y-128319761D02*
X96333333Y-128367380D01*
X96333333Y-128367380D02*
X96095238Y-128367380D01*
X96095238Y-128367380D02*
X96000000Y-128319761D01*
X96000000Y-128319761D02*
X95952381Y-128224523D01*
X95952381Y-128224523D02*
X95952381Y-128129285D01*
X95952381Y-128129285D02*
X96000000Y-128034047D01*
X96000000Y-128034047D02*
X96095238Y-127986428D01*
X96095238Y-127986428D02*
X96333333Y-127986428D01*
X96333333Y-127986428D02*
X96428571Y-127938809D01*
X96904762Y-128367380D02*
X96904762Y-127367380D01*
X96904762Y-127367380D02*
X97285714Y-127367380D01*
X97285714Y-127367380D02*
X97380952Y-127415000D01*
X97380952Y-127415000D02*
X97428571Y-127462619D01*
X97428571Y-127462619D02*
X97476190Y-127557857D01*
X97476190Y-127557857D02*
X97476190Y-127700714D01*
X97476190Y-127700714D02*
X97428571Y-127795952D01*
X97428571Y-127795952D02*
X97380952Y-127843571D01*
X97380952Y-127843571D02*
X97285714Y-127891190D01*
X97285714Y-127891190D02*
X96904762Y-127891190D01*
X97904762Y-128367380D02*
X97904762Y-127700714D01*
X97904762Y-127891190D02*
X97952381Y-127795952D01*
X97952381Y-127795952D02*
X98000000Y-127748333D01*
X98000000Y-127748333D02*
X98095238Y-127700714D01*
X98095238Y-127700714D02*
X98190476Y-127700714D01*
X98523810Y-128367380D02*
X98523810Y-127700714D01*
X98523810Y-127367380D02*
X98476191Y-127415000D01*
X98476191Y-127415000D02*
X98523810Y-127462619D01*
X98523810Y-127462619D02*
X98571429Y-127415000D01*
X98571429Y-127415000D02*
X98523810Y-127367380D01*
X98523810Y-127367380D02*
X98523810Y-127462619D01*
X99000000Y-127700714D02*
X99000000Y-128367380D01*
X99000000Y-127795952D02*
X99047619Y-127748333D01*
X99047619Y-127748333D02*
X99142857Y-127700714D01*
X99142857Y-127700714D02*
X99285714Y-127700714D01*
X99285714Y-127700714D02*
X99380952Y-127748333D01*
X99380952Y-127748333D02*
X99428571Y-127843571D01*
X99428571Y-127843571D02*
X99428571Y-128367380D01*
X100333333Y-128319761D02*
X100238095Y-128367380D01*
X100238095Y-128367380D02*
X100047619Y-128367380D01*
X100047619Y-128367380D02*
X99952381Y-128319761D01*
X99952381Y-128319761D02*
X99904762Y-128272142D01*
X99904762Y-128272142D02*
X99857143Y-128176904D01*
X99857143Y-128176904D02*
X99857143Y-127891190D01*
X99857143Y-127891190D02*
X99904762Y-127795952D01*
X99904762Y-127795952D02*
X99952381Y-127748333D01*
X99952381Y-127748333D02*
X100047619Y-127700714D01*
X100047619Y-127700714D02*
X100238095Y-127700714D01*
X100238095Y-127700714D02*
X100333333Y-127748333D01*
X100761905Y-128367380D02*
X100761905Y-127700714D01*
X100761905Y-127367380D02*
X100714286Y-127415000D01*
X100714286Y-127415000D02*
X100761905Y-127462619D01*
X100761905Y-127462619D02*
X100809524Y-127415000D01*
X100809524Y-127415000D02*
X100761905Y-127367380D01*
X100761905Y-127367380D02*
X100761905Y-127462619D01*
X101238095Y-127700714D02*
X101238095Y-128700714D01*
X101238095Y-127748333D02*
X101333333Y-127700714D01*
X101333333Y-127700714D02*
X101523809Y-127700714D01*
X101523809Y-127700714D02*
X101619047Y-127748333D01*
X101619047Y-127748333D02*
X101666666Y-127795952D01*
X101666666Y-127795952D02*
X101714285Y-127891190D01*
X101714285Y-127891190D02*
X101714285Y-128176904D01*
X101714285Y-128176904D02*
X101666666Y-128272142D01*
X101666666Y-128272142D02*
X101619047Y-128319761D01*
X101619047Y-128319761D02*
X101523809Y-128367380D01*
X101523809Y-128367380D02*
X101333333Y-128367380D01*
X101333333Y-128367380D02*
X101238095Y-128319761D01*
X102571428Y-128367380D02*
X102571428Y-127843571D01*
X102571428Y-127843571D02*
X102523809Y-127748333D01*
X102523809Y-127748333D02*
X102428571Y-127700714D01*
X102428571Y-127700714D02*
X102238095Y-127700714D01*
X102238095Y-127700714D02*
X102142857Y-127748333D01*
X102571428Y-128319761D02*
X102476190Y-128367380D01*
X102476190Y-128367380D02*
X102238095Y-128367380D01*
X102238095Y-128367380D02*
X102142857Y-128319761D01*
X102142857Y-128319761D02*
X102095238Y-128224523D01*
X102095238Y-128224523D02*
X102095238Y-128129285D01*
X102095238Y-128129285D02*
X102142857Y-128034047D01*
X102142857Y-128034047D02*
X102238095Y-127986428D01*
X102238095Y-127986428D02*
X102476190Y-127986428D01*
X102476190Y-127986428D02*
X102571428Y-127938809D01*
X103190476Y-128367380D02*
X103095238Y-128319761D01*
X103095238Y-128319761D02*
X103047619Y-128224523D01*
X103047619Y-128224523D02*
X103047619Y-127367380D01*
X104095238Y-128367380D02*
X103523810Y-128367380D01*
X103809524Y-128367380D02*
X103809524Y-127367380D01*
X103809524Y-127367380D02*
X103714286Y-127510238D01*
X103714286Y-127510238D02*
X103619048Y-127605476D01*
X103619048Y-127605476D02*
X103523810Y-127653095D01*
X104523810Y-127986428D02*
X105285715Y-127986428D01*
X104904762Y-128367380D02*
X104904762Y-127605476D01*
X105714286Y-127462619D02*
X105761905Y-127415000D01*
X105761905Y-127415000D02*
X105857143Y-127367380D01*
X105857143Y-127367380D02*
X106095238Y-127367380D01*
X106095238Y-127367380D02*
X106190476Y-127415000D01*
X106190476Y-127415000D02*
X106238095Y-127462619D01*
X106238095Y-127462619D02*
X106285714Y-127557857D01*
X106285714Y-127557857D02*
X106285714Y-127653095D01*
X106285714Y-127653095D02*
X106238095Y-127795952D01*
X106238095Y-127795952D02*
X105666667Y-128367380D01*
X105666667Y-128367380D02*
X106285714Y-128367380D01*
X106714286Y-127986428D02*
X107476191Y-127986428D01*
X108476190Y-128367380D02*
X107904762Y-128367380D01*
X108190476Y-128367380D02*
X108190476Y-127367380D01*
X108190476Y-127367380D02*
X108095238Y-127510238D01*
X108095238Y-127510238D02*
X108000000Y-127605476D01*
X108000000Y-127605476D02*
X107904762Y-127653095D01*
%TO.C,Bat1+2-1*%
X117666666Y-160593571D02*
X117809523Y-160641190D01*
X117809523Y-160641190D02*
X117857142Y-160688809D01*
X117857142Y-160688809D02*
X117904761Y-160784047D01*
X117904761Y-160784047D02*
X117904761Y-160926904D01*
X117904761Y-160926904D02*
X117857142Y-161022142D01*
X117857142Y-161022142D02*
X117809523Y-161069761D01*
X117809523Y-161069761D02*
X117714285Y-161117380D01*
X117714285Y-161117380D02*
X117333333Y-161117380D01*
X117333333Y-161117380D02*
X117333333Y-160117380D01*
X117333333Y-160117380D02*
X117666666Y-160117380D01*
X117666666Y-160117380D02*
X117761904Y-160165000D01*
X117761904Y-160165000D02*
X117809523Y-160212619D01*
X117809523Y-160212619D02*
X117857142Y-160307857D01*
X117857142Y-160307857D02*
X117857142Y-160403095D01*
X117857142Y-160403095D02*
X117809523Y-160498333D01*
X117809523Y-160498333D02*
X117761904Y-160545952D01*
X117761904Y-160545952D02*
X117666666Y-160593571D01*
X117666666Y-160593571D02*
X117333333Y-160593571D01*
X118761904Y-161117380D02*
X118761904Y-160593571D01*
X118761904Y-160593571D02*
X118714285Y-160498333D01*
X118714285Y-160498333D02*
X118619047Y-160450714D01*
X118619047Y-160450714D02*
X118428571Y-160450714D01*
X118428571Y-160450714D02*
X118333333Y-160498333D01*
X118761904Y-161069761D02*
X118666666Y-161117380D01*
X118666666Y-161117380D02*
X118428571Y-161117380D01*
X118428571Y-161117380D02*
X118333333Y-161069761D01*
X118333333Y-161069761D02*
X118285714Y-160974523D01*
X118285714Y-160974523D02*
X118285714Y-160879285D01*
X118285714Y-160879285D02*
X118333333Y-160784047D01*
X118333333Y-160784047D02*
X118428571Y-160736428D01*
X118428571Y-160736428D02*
X118666666Y-160736428D01*
X118666666Y-160736428D02*
X118761904Y-160688809D01*
X119095238Y-160450714D02*
X119476190Y-160450714D01*
X119238095Y-160117380D02*
X119238095Y-160974523D01*
X119238095Y-160974523D02*
X119285714Y-161069761D01*
X119285714Y-161069761D02*
X119380952Y-161117380D01*
X119380952Y-161117380D02*
X119476190Y-161117380D01*
X120333333Y-161117380D02*
X119761905Y-161117380D01*
X120047619Y-161117380D02*
X120047619Y-160117380D01*
X120047619Y-160117380D02*
X119952381Y-160260238D01*
X119952381Y-160260238D02*
X119857143Y-160355476D01*
X119857143Y-160355476D02*
X119761905Y-160403095D01*
X120761905Y-160736428D02*
X121523810Y-160736428D01*
X121142857Y-161117380D02*
X121142857Y-160355476D01*
X121952381Y-160212619D02*
X122000000Y-160165000D01*
X122000000Y-160165000D02*
X122095238Y-160117380D01*
X122095238Y-160117380D02*
X122333333Y-160117380D01*
X122333333Y-160117380D02*
X122428571Y-160165000D01*
X122428571Y-160165000D02*
X122476190Y-160212619D01*
X122476190Y-160212619D02*
X122523809Y-160307857D01*
X122523809Y-160307857D02*
X122523809Y-160403095D01*
X122523809Y-160403095D02*
X122476190Y-160545952D01*
X122476190Y-160545952D02*
X121904762Y-161117380D01*
X121904762Y-161117380D02*
X122523809Y-161117380D01*
X122952381Y-160736428D02*
X123714286Y-160736428D01*
X124714285Y-161117380D02*
X124142857Y-161117380D01*
X124428571Y-161117380D02*
X124428571Y-160117380D01*
X124428571Y-160117380D02*
X124333333Y-160260238D01*
X124333333Y-160260238D02*
X124238095Y-160355476D01*
X124238095Y-160355476D02*
X124142857Y-160403095D01*
%TO.C,AlimGPS1*%
X81642857Y-128331666D02*
X82119047Y-128331666D01*
X81547619Y-128617380D02*
X81880952Y-127617380D01*
X81880952Y-127617380D02*
X82214285Y-128617380D01*
X82690476Y-128617380D02*
X82595238Y-128569761D01*
X82595238Y-128569761D02*
X82547619Y-128474523D01*
X82547619Y-128474523D02*
X82547619Y-127617380D01*
X83071429Y-128617380D02*
X83071429Y-127950714D01*
X83071429Y-127617380D02*
X83023810Y-127665000D01*
X83023810Y-127665000D02*
X83071429Y-127712619D01*
X83071429Y-127712619D02*
X83119048Y-127665000D01*
X83119048Y-127665000D02*
X83071429Y-127617380D01*
X83071429Y-127617380D02*
X83071429Y-127712619D01*
X83547619Y-128617380D02*
X83547619Y-127950714D01*
X83547619Y-128045952D02*
X83595238Y-127998333D01*
X83595238Y-127998333D02*
X83690476Y-127950714D01*
X83690476Y-127950714D02*
X83833333Y-127950714D01*
X83833333Y-127950714D02*
X83928571Y-127998333D01*
X83928571Y-127998333D02*
X83976190Y-128093571D01*
X83976190Y-128093571D02*
X83976190Y-128617380D01*
X83976190Y-128093571D02*
X84023809Y-127998333D01*
X84023809Y-127998333D02*
X84119047Y-127950714D01*
X84119047Y-127950714D02*
X84261904Y-127950714D01*
X84261904Y-127950714D02*
X84357143Y-127998333D01*
X84357143Y-127998333D02*
X84404762Y-128093571D01*
X84404762Y-128093571D02*
X84404762Y-128617380D01*
X85404761Y-127665000D02*
X85309523Y-127617380D01*
X85309523Y-127617380D02*
X85166666Y-127617380D01*
X85166666Y-127617380D02*
X85023809Y-127665000D01*
X85023809Y-127665000D02*
X84928571Y-127760238D01*
X84928571Y-127760238D02*
X84880952Y-127855476D01*
X84880952Y-127855476D02*
X84833333Y-128045952D01*
X84833333Y-128045952D02*
X84833333Y-128188809D01*
X84833333Y-128188809D02*
X84880952Y-128379285D01*
X84880952Y-128379285D02*
X84928571Y-128474523D01*
X84928571Y-128474523D02*
X85023809Y-128569761D01*
X85023809Y-128569761D02*
X85166666Y-128617380D01*
X85166666Y-128617380D02*
X85261904Y-128617380D01*
X85261904Y-128617380D02*
X85404761Y-128569761D01*
X85404761Y-128569761D02*
X85452380Y-128522142D01*
X85452380Y-128522142D02*
X85452380Y-128188809D01*
X85452380Y-128188809D02*
X85261904Y-128188809D01*
X85880952Y-128617380D02*
X85880952Y-127617380D01*
X85880952Y-127617380D02*
X86261904Y-127617380D01*
X86261904Y-127617380D02*
X86357142Y-127665000D01*
X86357142Y-127665000D02*
X86404761Y-127712619D01*
X86404761Y-127712619D02*
X86452380Y-127807857D01*
X86452380Y-127807857D02*
X86452380Y-127950714D01*
X86452380Y-127950714D02*
X86404761Y-128045952D01*
X86404761Y-128045952D02*
X86357142Y-128093571D01*
X86357142Y-128093571D02*
X86261904Y-128141190D01*
X86261904Y-128141190D02*
X85880952Y-128141190D01*
X86833333Y-128569761D02*
X86976190Y-128617380D01*
X86976190Y-128617380D02*
X87214285Y-128617380D01*
X87214285Y-128617380D02*
X87309523Y-128569761D01*
X87309523Y-128569761D02*
X87357142Y-128522142D01*
X87357142Y-128522142D02*
X87404761Y-128426904D01*
X87404761Y-128426904D02*
X87404761Y-128331666D01*
X87404761Y-128331666D02*
X87357142Y-128236428D01*
X87357142Y-128236428D02*
X87309523Y-128188809D01*
X87309523Y-128188809D02*
X87214285Y-128141190D01*
X87214285Y-128141190D02*
X87023809Y-128093571D01*
X87023809Y-128093571D02*
X86928571Y-128045952D01*
X86928571Y-128045952D02*
X86880952Y-127998333D01*
X86880952Y-127998333D02*
X86833333Y-127903095D01*
X86833333Y-127903095D02*
X86833333Y-127807857D01*
X86833333Y-127807857D02*
X86880952Y-127712619D01*
X86880952Y-127712619D02*
X86928571Y-127665000D01*
X86928571Y-127665000D02*
X87023809Y-127617380D01*
X87023809Y-127617380D02*
X87261904Y-127617380D01*
X87261904Y-127617380D02*
X87404761Y-127665000D01*
X88357142Y-128617380D02*
X87785714Y-128617380D01*
X88071428Y-128617380D02*
X88071428Y-127617380D01*
X88071428Y-127617380D02*
X87976190Y-127760238D01*
X87976190Y-127760238D02*
X87880952Y-127855476D01*
X87880952Y-127855476D02*
X87785714Y-127903095D01*
%TO.C,ServoInt1*%
X103440476Y-152069761D02*
X103583333Y-152117380D01*
X103583333Y-152117380D02*
X103821428Y-152117380D01*
X103821428Y-152117380D02*
X103916666Y-152069761D01*
X103916666Y-152069761D02*
X103964285Y-152022142D01*
X103964285Y-152022142D02*
X104011904Y-151926904D01*
X104011904Y-151926904D02*
X104011904Y-151831666D01*
X104011904Y-151831666D02*
X103964285Y-151736428D01*
X103964285Y-151736428D02*
X103916666Y-151688809D01*
X103916666Y-151688809D02*
X103821428Y-151641190D01*
X103821428Y-151641190D02*
X103630952Y-151593571D01*
X103630952Y-151593571D02*
X103535714Y-151545952D01*
X103535714Y-151545952D02*
X103488095Y-151498333D01*
X103488095Y-151498333D02*
X103440476Y-151403095D01*
X103440476Y-151403095D02*
X103440476Y-151307857D01*
X103440476Y-151307857D02*
X103488095Y-151212619D01*
X103488095Y-151212619D02*
X103535714Y-151165000D01*
X103535714Y-151165000D02*
X103630952Y-151117380D01*
X103630952Y-151117380D02*
X103869047Y-151117380D01*
X103869047Y-151117380D02*
X104011904Y-151165000D01*
X104821428Y-152069761D02*
X104726190Y-152117380D01*
X104726190Y-152117380D02*
X104535714Y-152117380D01*
X104535714Y-152117380D02*
X104440476Y-152069761D01*
X104440476Y-152069761D02*
X104392857Y-151974523D01*
X104392857Y-151974523D02*
X104392857Y-151593571D01*
X104392857Y-151593571D02*
X104440476Y-151498333D01*
X104440476Y-151498333D02*
X104535714Y-151450714D01*
X104535714Y-151450714D02*
X104726190Y-151450714D01*
X104726190Y-151450714D02*
X104821428Y-151498333D01*
X104821428Y-151498333D02*
X104869047Y-151593571D01*
X104869047Y-151593571D02*
X104869047Y-151688809D01*
X104869047Y-151688809D02*
X104392857Y-151784047D01*
X105297619Y-152117380D02*
X105297619Y-151450714D01*
X105297619Y-151641190D02*
X105345238Y-151545952D01*
X105345238Y-151545952D02*
X105392857Y-151498333D01*
X105392857Y-151498333D02*
X105488095Y-151450714D01*
X105488095Y-151450714D02*
X105583333Y-151450714D01*
X105821429Y-151450714D02*
X106059524Y-152117380D01*
X106059524Y-152117380D02*
X106297619Y-151450714D01*
X106821429Y-152117380D02*
X106726191Y-152069761D01*
X106726191Y-152069761D02*
X106678572Y-152022142D01*
X106678572Y-152022142D02*
X106630953Y-151926904D01*
X106630953Y-151926904D02*
X106630953Y-151641190D01*
X106630953Y-151641190D02*
X106678572Y-151545952D01*
X106678572Y-151545952D02*
X106726191Y-151498333D01*
X106726191Y-151498333D02*
X106821429Y-151450714D01*
X106821429Y-151450714D02*
X106964286Y-151450714D01*
X106964286Y-151450714D02*
X107059524Y-151498333D01*
X107059524Y-151498333D02*
X107107143Y-151545952D01*
X107107143Y-151545952D02*
X107154762Y-151641190D01*
X107154762Y-151641190D02*
X107154762Y-151926904D01*
X107154762Y-151926904D02*
X107107143Y-152022142D01*
X107107143Y-152022142D02*
X107059524Y-152069761D01*
X107059524Y-152069761D02*
X106964286Y-152117380D01*
X106964286Y-152117380D02*
X106821429Y-152117380D01*
X107583334Y-152117380D02*
X107583334Y-151117380D01*
X108059524Y-151450714D02*
X108059524Y-152117380D01*
X108059524Y-151545952D02*
X108107143Y-151498333D01*
X108107143Y-151498333D02*
X108202381Y-151450714D01*
X108202381Y-151450714D02*
X108345238Y-151450714D01*
X108345238Y-151450714D02*
X108440476Y-151498333D01*
X108440476Y-151498333D02*
X108488095Y-151593571D01*
X108488095Y-151593571D02*
X108488095Y-152117380D01*
X108821429Y-151450714D02*
X109202381Y-151450714D01*
X108964286Y-151117380D02*
X108964286Y-151974523D01*
X108964286Y-151974523D02*
X109011905Y-152069761D01*
X109011905Y-152069761D02*
X109107143Y-152117380D01*
X109107143Y-152117380D02*
X109202381Y-152117380D01*
X110059524Y-152117380D02*
X109488096Y-152117380D01*
X109773810Y-152117380D02*
X109773810Y-151117380D01*
X109773810Y-151117380D02*
X109678572Y-151260238D01*
X109678572Y-151260238D02*
X109583334Y-151355476D01*
X109583334Y-151355476D02*
X109488096Y-151403095D01*
%TO.C,ServoExt1*%
X103023809Y-154569761D02*
X103166666Y-154617380D01*
X103166666Y-154617380D02*
X103404761Y-154617380D01*
X103404761Y-154617380D02*
X103499999Y-154569761D01*
X103499999Y-154569761D02*
X103547618Y-154522142D01*
X103547618Y-154522142D02*
X103595237Y-154426904D01*
X103595237Y-154426904D02*
X103595237Y-154331666D01*
X103595237Y-154331666D02*
X103547618Y-154236428D01*
X103547618Y-154236428D02*
X103499999Y-154188809D01*
X103499999Y-154188809D02*
X103404761Y-154141190D01*
X103404761Y-154141190D02*
X103214285Y-154093571D01*
X103214285Y-154093571D02*
X103119047Y-154045952D01*
X103119047Y-154045952D02*
X103071428Y-153998333D01*
X103071428Y-153998333D02*
X103023809Y-153903095D01*
X103023809Y-153903095D02*
X103023809Y-153807857D01*
X103023809Y-153807857D02*
X103071428Y-153712619D01*
X103071428Y-153712619D02*
X103119047Y-153665000D01*
X103119047Y-153665000D02*
X103214285Y-153617380D01*
X103214285Y-153617380D02*
X103452380Y-153617380D01*
X103452380Y-153617380D02*
X103595237Y-153665000D01*
X104404761Y-154569761D02*
X104309523Y-154617380D01*
X104309523Y-154617380D02*
X104119047Y-154617380D01*
X104119047Y-154617380D02*
X104023809Y-154569761D01*
X104023809Y-154569761D02*
X103976190Y-154474523D01*
X103976190Y-154474523D02*
X103976190Y-154093571D01*
X103976190Y-154093571D02*
X104023809Y-153998333D01*
X104023809Y-153998333D02*
X104119047Y-153950714D01*
X104119047Y-153950714D02*
X104309523Y-153950714D01*
X104309523Y-153950714D02*
X104404761Y-153998333D01*
X104404761Y-153998333D02*
X104452380Y-154093571D01*
X104452380Y-154093571D02*
X104452380Y-154188809D01*
X104452380Y-154188809D02*
X103976190Y-154284047D01*
X104880952Y-154617380D02*
X104880952Y-153950714D01*
X104880952Y-154141190D02*
X104928571Y-154045952D01*
X104928571Y-154045952D02*
X104976190Y-153998333D01*
X104976190Y-153998333D02*
X105071428Y-153950714D01*
X105071428Y-153950714D02*
X105166666Y-153950714D01*
X105404762Y-153950714D02*
X105642857Y-154617380D01*
X105642857Y-154617380D02*
X105880952Y-153950714D01*
X106404762Y-154617380D02*
X106309524Y-154569761D01*
X106309524Y-154569761D02*
X106261905Y-154522142D01*
X106261905Y-154522142D02*
X106214286Y-154426904D01*
X106214286Y-154426904D02*
X106214286Y-154141190D01*
X106214286Y-154141190D02*
X106261905Y-154045952D01*
X106261905Y-154045952D02*
X106309524Y-153998333D01*
X106309524Y-153998333D02*
X106404762Y-153950714D01*
X106404762Y-153950714D02*
X106547619Y-153950714D01*
X106547619Y-153950714D02*
X106642857Y-153998333D01*
X106642857Y-153998333D02*
X106690476Y-154045952D01*
X106690476Y-154045952D02*
X106738095Y-154141190D01*
X106738095Y-154141190D02*
X106738095Y-154426904D01*
X106738095Y-154426904D02*
X106690476Y-154522142D01*
X106690476Y-154522142D02*
X106642857Y-154569761D01*
X106642857Y-154569761D02*
X106547619Y-154617380D01*
X106547619Y-154617380D02*
X106404762Y-154617380D01*
X107166667Y-154093571D02*
X107500000Y-154093571D01*
X107642857Y-154617380D02*
X107166667Y-154617380D01*
X107166667Y-154617380D02*
X107166667Y-153617380D01*
X107166667Y-153617380D02*
X107642857Y-153617380D01*
X107976191Y-154617380D02*
X108500000Y-153950714D01*
X107976191Y-153950714D02*
X108500000Y-154617380D01*
X108738096Y-153950714D02*
X109119048Y-153950714D01*
X108880953Y-153617380D02*
X108880953Y-154474523D01*
X108880953Y-154474523D02*
X108928572Y-154569761D01*
X108928572Y-154569761D02*
X109023810Y-154617380D01*
X109023810Y-154617380D02*
X109119048Y-154617380D01*
X109976191Y-154617380D02*
X109404763Y-154617380D01*
X109690477Y-154617380D02*
X109690477Y-153617380D01*
X109690477Y-153617380D02*
X109595239Y-153760238D01*
X109595239Y-153760238D02*
X109500001Y-153855476D01*
X109500001Y-153855476D02*
X109404763Y-153903095D01*
%TO.C,AnalogOzono1*%
X115178571Y-136581666D02*
X115654761Y-136581666D01*
X115083333Y-136867380D02*
X115416666Y-135867380D01*
X115416666Y-135867380D02*
X115749999Y-136867380D01*
X116083333Y-136200714D02*
X116083333Y-136867380D01*
X116083333Y-136295952D02*
X116130952Y-136248333D01*
X116130952Y-136248333D02*
X116226190Y-136200714D01*
X116226190Y-136200714D02*
X116369047Y-136200714D01*
X116369047Y-136200714D02*
X116464285Y-136248333D01*
X116464285Y-136248333D02*
X116511904Y-136343571D01*
X116511904Y-136343571D02*
X116511904Y-136867380D01*
X117416666Y-136867380D02*
X117416666Y-136343571D01*
X117416666Y-136343571D02*
X117369047Y-136248333D01*
X117369047Y-136248333D02*
X117273809Y-136200714D01*
X117273809Y-136200714D02*
X117083333Y-136200714D01*
X117083333Y-136200714D02*
X116988095Y-136248333D01*
X117416666Y-136819761D02*
X117321428Y-136867380D01*
X117321428Y-136867380D02*
X117083333Y-136867380D01*
X117083333Y-136867380D02*
X116988095Y-136819761D01*
X116988095Y-136819761D02*
X116940476Y-136724523D01*
X116940476Y-136724523D02*
X116940476Y-136629285D01*
X116940476Y-136629285D02*
X116988095Y-136534047D01*
X116988095Y-136534047D02*
X117083333Y-136486428D01*
X117083333Y-136486428D02*
X117321428Y-136486428D01*
X117321428Y-136486428D02*
X117416666Y-136438809D01*
X118035714Y-136867380D02*
X117940476Y-136819761D01*
X117940476Y-136819761D02*
X117892857Y-136724523D01*
X117892857Y-136724523D02*
X117892857Y-135867380D01*
X118559524Y-136867380D02*
X118464286Y-136819761D01*
X118464286Y-136819761D02*
X118416667Y-136772142D01*
X118416667Y-136772142D02*
X118369048Y-136676904D01*
X118369048Y-136676904D02*
X118369048Y-136391190D01*
X118369048Y-136391190D02*
X118416667Y-136295952D01*
X118416667Y-136295952D02*
X118464286Y-136248333D01*
X118464286Y-136248333D02*
X118559524Y-136200714D01*
X118559524Y-136200714D02*
X118702381Y-136200714D01*
X118702381Y-136200714D02*
X118797619Y-136248333D01*
X118797619Y-136248333D02*
X118845238Y-136295952D01*
X118845238Y-136295952D02*
X118892857Y-136391190D01*
X118892857Y-136391190D02*
X118892857Y-136676904D01*
X118892857Y-136676904D02*
X118845238Y-136772142D01*
X118845238Y-136772142D02*
X118797619Y-136819761D01*
X118797619Y-136819761D02*
X118702381Y-136867380D01*
X118702381Y-136867380D02*
X118559524Y-136867380D01*
X119750000Y-136200714D02*
X119750000Y-137010238D01*
X119750000Y-137010238D02*
X119702381Y-137105476D01*
X119702381Y-137105476D02*
X119654762Y-137153095D01*
X119654762Y-137153095D02*
X119559524Y-137200714D01*
X119559524Y-137200714D02*
X119416667Y-137200714D01*
X119416667Y-137200714D02*
X119321429Y-137153095D01*
X119750000Y-136819761D02*
X119654762Y-136867380D01*
X119654762Y-136867380D02*
X119464286Y-136867380D01*
X119464286Y-136867380D02*
X119369048Y-136819761D01*
X119369048Y-136819761D02*
X119321429Y-136772142D01*
X119321429Y-136772142D02*
X119273810Y-136676904D01*
X119273810Y-136676904D02*
X119273810Y-136391190D01*
X119273810Y-136391190D02*
X119321429Y-136295952D01*
X119321429Y-136295952D02*
X119369048Y-136248333D01*
X119369048Y-136248333D02*
X119464286Y-136200714D01*
X119464286Y-136200714D02*
X119654762Y-136200714D01*
X119654762Y-136200714D02*
X119750000Y-136248333D01*
X120416667Y-135867380D02*
X120607143Y-135867380D01*
X120607143Y-135867380D02*
X120702381Y-135915000D01*
X120702381Y-135915000D02*
X120797619Y-136010238D01*
X120797619Y-136010238D02*
X120845238Y-136200714D01*
X120845238Y-136200714D02*
X120845238Y-136534047D01*
X120845238Y-136534047D02*
X120797619Y-136724523D01*
X120797619Y-136724523D02*
X120702381Y-136819761D01*
X120702381Y-136819761D02*
X120607143Y-136867380D01*
X120607143Y-136867380D02*
X120416667Y-136867380D01*
X120416667Y-136867380D02*
X120321429Y-136819761D01*
X120321429Y-136819761D02*
X120226191Y-136724523D01*
X120226191Y-136724523D02*
X120178572Y-136534047D01*
X120178572Y-136534047D02*
X120178572Y-136200714D01*
X120178572Y-136200714D02*
X120226191Y-136010238D01*
X120226191Y-136010238D02*
X120321429Y-135915000D01*
X120321429Y-135915000D02*
X120416667Y-135867380D01*
X121178572Y-136200714D02*
X121702381Y-136200714D01*
X121702381Y-136200714D02*
X121178572Y-136867380D01*
X121178572Y-136867380D02*
X121702381Y-136867380D01*
X122226191Y-136867380D02*
X122130953Y-136819761D01*
X122130953Y-136819761D02*
X122083334Y-136772142D01*
X122083334Y-136772142D02*
X122035715Y-136676904D01*
X122035715Y-136676904D02*
X122035715Y-136391190D01*
X122035715Y-136391190D02*
X122083334Y-136295952D01*
X122083334Y-136295952D02*
X122130953Y-136248333D01*
X122130953Y-136248333D02*
X122226191Y-136200714D01*
X122226191Y-136200714D02*
X122369048Y-136200714D01*
X122369048Y-136200714D02*
X122464286Y-136248333D01*
X122464286Y-136248333D02*
X122511905Y-136295952D01*
X122511905Y-136295952D02*
X122559524Y-136391190D01*
X122559524Y-136391190D02*
X122559524Y-136676904D01*
X122559524Y-136676904D02*
X122511905Y-136772142D01*
X122511905Y-136772142D02*
X122464286Y-136819761D01*
X122464286Y-136819761D02*
X122369048Y-136867380D01*
X122369048Y-136867380D02*
X122226191Y-136867380D01*
X122988096Y-136200714D02*
X122988096Y-136867380D01*
X122988096Y-136295952D02*
X123035715Y-136248333D01*
X123035715Y-136248333D02*
X123130953Y-136200714D01*
X123130953Y-136200714D02*
X123273810Y-136200714D01*
X123273810Y-136200714D02*
X123369048Y-136248333D01*
X123369048Y-136248333D02*
X123416667Y-136343571D01*
X123416667Y-136343571D02*
X123416667Y-136867380D01*
X124035715Y-136867380D02*
X123940477Y-136819761D01*
X123940477Y-136819761D02*
X123892858Y-136772142D01*
X123892858Y-136772142D02*
X123845239Y-136676904D01*
X123845239Y-136676904D02*
X123845239Y-136391190D01*
X123845239Y-136391190D02*
X123892858Y-136295952D01*
X123892858Y-136295952D02*
X123940477Y-136248333D01*
X123940477Y-136248333D02*
X124035715Y-136200714D01*
X124035715Y-136200714D02*
X124178572Y-136200714D01*
X124178572Y-136200714D02*
X124273810Y-136248333D01*
X124273810Y-136248333D02*
X124321429Y-136295952D01*
X124321429Y-136295952D02*
X124369048Y-136391190D01*
X124369048Y-136391190D02*
X124369048Y-136676904D01*
X124369048Y-136676904D02*
X124321429Y-136772142D01*
X124321429Y-136772142D02*
X124273810Y-136819761D01*
X124273810Y-136819761D02*
X124178572Y-136867380D01*
X124178572Y-136867380D02*
X124035715Y-136867380D01*
X125321429Y-136867380D02*
X124750001Y-136867380D01*
X125035715Y-136867380D02*
X125035715Y-135867380D01*
X125035715Y-135867380D02*
X124940477Y-136010238D01*
X124940477Y-136010238D02*
X124845239Y-136105476D01*
X124845239Y-136105476D02*
X124750001Y-136153095D01*
%TO.C,PuenteHAspas1*%
X129867380Y-158452381D02*
X128867380Y-158452381D01*
X128867380Y-158452381D02*
X128867380Y-158071429D01*
X128867380Y-158071429D02*
X128915000Y-157976191D01*
X128915000Y-157976191D02*
X128962619Y-157928572D01*
X128962619Y-157928572D02*
X129057857Y-157880953D01*
X129057857Y-157880953D02*
X129200714Y-157880953D01*
X129200714Y-157880953D02*
X129295952Y-157928572D01*
X129295952Y-157928572D02*
X129343571Y-157976191D01*
X129343571Y-157976191D02*
X129391190Y-158071429D01*
X129391190Y-158071429D02*
X129391190Y-158452381D01*
X129200714Y-157023810D02*
X129867380Y-157023810D01*
X129200714Y-157452381D02*
X129724523Y-157452381D01*
X129724523Y-157452381D02*
X129819761Y-157404762D01*
X129819761Y-157404762D02*
X129867380Y-157309524D01*
X129867380Y-157309524D02*
X129867380Y-157166667D01*
X129867380Y-157166667D02*
X129819761Y-157071429D01*
X129819761Y-157071429D02*
X129772142Y-157023810D01*
X129819761Y-156166667D02*
X129867380Y-156261905D01*
X129867380Y-156261905D02*
X129867380Y-156452381D01*
X129867380Y-156452381D02*
X129819761Y-156547619D01*
X129819761Y-156547619D02*
X129724523Y-156595238D01*
X129724523Y-156595238D02*
X129343571Y-156595238D01*
X129343571Y-156595238D02*
X129248333Y-156547619D01*
X129248333Y-156547619D02*
X129200714Y-156452381D01*
X129200714Y-156452381D02*
X129200714Y-156261905D01*
X129200714Y-156261905D02*
X129248333Y-156166667D01*
X129248333Y-156166667D02*
X129343571Y-156119048D01*
X129343571Y-156119048D02*
X129438809Y-156119048D01*
X129438809Y-156119048D02*
X129534047Y-156595238D01*
X129200714Y-155690476D02*
X129867380Y-155690476D01*
X129295952Y-155690476D02*
X129248333Y-155642857D01*
X129248333Y-155642857D02*
X129200714Y-155547619D01*
X129200714Y-155547619D02*
X129200714Y-155404762D01*
X129200714Y-155404762D02*
X129248333Y-155309524D01*
X129248333Y-155309524D02*
X129343571Y-155261905D01*
X129343571Y-155261905D02*
X129867380Y-155261905D01*
X129200714Y-154928571D02*
X129200714Y-154547619D01*
X128867380Y-154785714D02*
X129724523Y-154785714D01*
X129724523Y-154785714D02*
X129819761Y-154738095D01*
X129819761Y-154738095D02*
X129867380Y-154642857D01*
X129867380Y-154642857D02*
X129867380Y-154547619D01*
X129819761Y-153833333D02*
X129867380Y-153928571D01*
X129867380Y-153928571D02*
X129867380Y-154119047D01*
X129867380Y-154119047D02*
X129819761Y-154214285D01*
X129819761Y-154214285D02*
X129724523Y-154261904D01*
X129724523Y-154261904D02*
X129343571Y-154261904D01*
X129343571Y-154261904D02*
X129248333Y-154214285D01*
X129248333Y-154214285D02*
X129200714Y-154119047D01*
X129200714Y-154119047D02*
X129200714Y-153928571D01*
X129200714Y-153928571D02*
X129248333Y-153833333D01*
X129248333Y-153833333D02*
X129343571Y-153785714D01*
X129343571Y-153785714D02*
X129438809Y-153785714D01*
X129438809Y-153785714D02*
X129534047Y-154261904D01*
X129867380Y-153357142D02*
X128867380Y-153357142D01*
X129343571Y-153357142D02*
X129343571Y-152785714D01*
X129867380Y-152785714D02*
X128867380Y-152785714D01*
X129581666Y-152357142D02*
X129581666Y-151880952D01*
X129867380Y-152452380D02*
X128867380Y-152119047D01*
X128867380Y-152119047D02*
X129867380Y-151785714D01*
X129819761Y-151499999D02*
X129867380Y-151404761D01*
X129867380Y-151404761D02*
X129867380Y-151214285D01*
X129867380Y-151214285D02*
X129819761Y-151119047D01*
X129819761Y-151119047D02*
X129724523Y-151071428D01*
X129724523Y-151071428D02*
X129676904Y-151071428D01*
X129676904Y-151071428D02*
X129581666Y-151119047D01*
X129581666Y-151119047D02*
X129534047Y-151214285D01*
X129534047Y-151214285D02*
X129534047Y-151357142D01*
X129534047Y-151357142D02*
X129486428Y-151452380D01*
X129486428Y-151452380D02*
X129391190Y-151499999D01*
X129391190Y-151499999D02*
X129343571Y-151499999D01*
X129343571Y-151499999D02*
X129248333Y-151452380D01*
X129248333Y-151452380D02*
X129200714Y-151357142D01*
X129200714Y-151357142D02*
X129200714Y-151214285D01*
X129200714Y-151214285D02*
X129248333Y-151119047D01*
X129200714Y-150642856D02*
X130200714Y-150642856D01*
X129248333Y-150642856D02*
X129200714Y-150547618D01*
X129200714Y-150547618D02*
X129200714Y-150357142D01*
X129200714Y-150357142D02*
X129248333Y-150261904D01*
X129248333Y-150261904D02*
X129295952Y-150214285D01*
X129295952Y-150214285D02*
X129391190Y-150166666D01*
X129391190Y-150166666D02*
X129676904Y-150166666D01*
X129676904Y-150166666D02*
X129772142Y-150214285D01*
X129772142Y-150214285D02*
X129819761Y-150261904D01*
X129819761Y-150261904D02*
X129867380Y-150357142D01*
X129867380Y-150357142D02*
X129867380Y-150547618D01*
X129867380Y-150547618D02*
X129819761Y-150642856D01*
X129867380Y-149309523D02*
X129343571Y-149309523D01*
X129343571Y-149309523D02*
X129248333Y-149357142D01*
X129248333Y-149357142D02*
X129200714Y-149452380D01*
X129200714Y-149452380D02*
X129200714Y-149642856D01*
X129200714Y-149642856D02*
X129248333Y-149738094D01*
X129819761Y-149309523D02*
X129867380Y-149404761D01*
X129867380Y-149404761D02*
X129867380Y-149642856D01*
X129867380Y-149642856D02*
X129819761Y-149738094D01*
X129819761Y-149738094D02*
X129724523Y-149785713D01*
X129724523Y-149785713D02*
X129629285Y-149785713D01*
X129629285Y-149785713D02*
X129534047Y-149738094D01*
X129534047Y-149738094D02*
X129486428Y-149642856D01*
X129486428Y-149642856D02*
X129486428Y-149404761D01*
X129486428Y-149404761D02*
X129438809Y-149309523D01*
X129819761Y-148880951D02*
X129867380Y-148785713D01*
X129867380Y-148785713D02*
X129867380Y-148595237D01*
X129867380Y-148595237D02*
X129819761Y-148499999D01*
X129819761Y-148499999D02*
X129724523Y-148452380D01*
X129724523Y-148452380D02*
X129676904Y-148452380D01*
X129676904Y-148452380D02*
X129581666Y-148499999D01*
X129581666Y-148499999D02*
X129534047Y-148595237D01*
X129534047Y-148595237D02*
X129534047Y-148738094D01*
X129534047Y-148738094D02*
X129486428Y-148833332D01*
X129486428Y-148833332D02*
X129391190Y-148880951D01*
X129391190Y-148880951D02*
X129343571Y-148880951D01*
X129343571Y-148880951D02*
X129248333Y-148833332D01*
X129248333Y-148833332D02*
X129200714Y-148738094D01*
X129200714Y-148738094D02*
X129200714Y-148595237D01*
X129200714Y-148595237D02*
X129248333Y-148499999D01*
X129867380Y-147499999D02*
X129867380Y-148071427D01*
X129867380Y-147785713D02*
X128867380Y-147785713D01*
X128867380Y-147785713D02*
X129010238Y-147880951D01*
X129010238Y-147880951D02*
X129105476Y-147976189D01*
X129105476Y-147976189D02*
X129153095Y-148071427D01*
%TO.C,SIM800HControl1*%
X117511904Y-183819761D02*
X117654761Y-183867380D01*
X117654761Y-183867380D02*
X117892856Y-183867380D01*
X117892856Y-183867380D02*
X117988094Y-183819761D01*
X117988094Y-183819761D02*
X118035713Y-183772142D01*
X118035713Y-183772142D02*
X118083332Y-183676904D01*
X118083332Y-183676904D02*
X118083332Y-183581666D01*
X118083332Y-183581666D02*
X118035713Y-183486428D01*
X118035713Y-183486428D02*
X117988094Y-183438809D01*
X117988094Y-183438809D02*
X117892856Y-183391190D01*
X117892856Y-183391190D02*
X117702380Y-183343571D01*
X117702380Y-183343571D02*
X117607142Y-183295952D01*
X117607142Y-183295952D02*
X117559523Y-183248333D01*
X117559523Y-183248333D02*
X117511904Y-183153095D01*
X117511904Y-183153095D02*
X117511904Y-183057857D01*
X117511904Y-183057857D02*
X117559523Y-182962619D01*
X117559523Y-182962619D02*
X117607142Y-182915000D01*
X117607142Y-182915000D02*
X117702380Y-182867380D01*
X117702380Y-182867380D02*
X117940475Y-182867380D01*
X117940475Y-182867380D02*
X118083332Y-182915000D01*
X118511904Y-183867380D02*
X118511904Y-182867380D01*
X118988094Y-183867380D02*
X118988094Y-182867380D01*
X118988094Y-182867380D02*
X119321427Y-183581666D01*
X119321427Y-183581666D02*
X119654760Y-182867380D01*
X119654760Y-182867380D02*
X119654760Y-183867380D01*
X120273808Y-183295952D02*
X120178570Y-183248333D01*
X120178570Y-183248333D02*
X120130951Y-183200714D01*
X120130951Y-183200714D02*
X120083332Y-183105476D01*
X120083332Y-183105476D02*
X120083332Y-183057857D01*
X120083332Y-183057857D02*
X120130951Y-182962619D01*
X120130951Y-182962619D02*
X120178570Y-182915000D01*
X120178570Y-182915000D02*
X120273808Y-182867380D01*
X120273808Y-182867380D02*
X120464284Y-182867380D01*
X120464284Y-182867380D02*
X120559522Y-182915000D01*
X120559522Y-182915000D02*
X120607141Y-182962619D01*
X120607141Y-182962619D02*
X120654760Y-183057857D01*
X120654760Y-183057857D02*
X120654760Y-183105476D01*
X120654760Y-183105476D02*
X120607141Y-183200714D01*
X120607141Y-183200714D02*
X120559522Y-183248333D01*
X120559522Y-183248333D02*
X120464284Y-183295952D01*
X120464284Y-183295952D02*
X120273808Y-183295952D01*
X120273808Y-183295952D02*
X120178570Y-183343571D01*
X120178570Y-183343571D02*
X120130951Y-183391190D01*
X120130951Y-183391190D02*
X120083332Y-183486428D01*
X120083332Y-183486428D02*
X120083332Y-183676904D01*
X120083332Y-183676904D02*
X120130951Y-183772142D01*
X120130951Y-183772142D02*
X120178570Y-183819761D01*
X120178570Y-183819761D02*
X120273808Y-183867380D01*
X120273808Y-183867380D02*
X120464284Y-183867380D01*
X120464284Y-183867380D02*
X120559522Y-183819761D01*
X120559522Y-183819761D02*
X120607141Y-183772142D01*
X120607141Y-183772142D02*
X120654760Y-183676904D01*
X120654760Y-183676904D02*
X120654760Y-183486428D01*
X120654760Y-183486428D02*
X120607141Y-183391190D01*
X120607141Y-183391190D02*
X120559522Y-183343571D01*
X120559522Y-183343571D02*
X120464284Y-183295952D01*
X121273808Y-182867380D02*
X121369046Y-182867380D01*
X121369046Y-182867380D02*
X121464284Y-182915000D01*
X121464284Y-182915000D02*
X121511903Y-182962619D01*
X121511903Y-182962619D02*
X121559522Y-183057857D01*
X121559522Y-183057857D02*
X121607141Y-183248333D01*
X121607141Y-183248333D02*
X121607141Y-183486428D01*
X121607141Y-183486428D02*
X121559522Y-183676904D01*
X121559522Y-183676904D02*
X121511903Y-183772142D01*
X121511903Y-183772142D02*
X121464284Y-183819761D01*
X121464284Y-183819761D02*
X121369046Y-183867380D01*
X121369046Y-183867380D02*
X121273808Y-183867380D01*
X121273808Y-183867380D02*
X121178570Y-183819761D01*
X121178570Y-183819761D02*
X121130951Y-183772142D01*
X121130951Y-183772142D02*
X121083332Y-183676904D01*
X121083332Y-183676904D02*
X121035713Y-183486428D01*
X121035713Y-183486428D02*
X121035713Y-183248333D01*
X121035713Y-183248333D02*
X121083332Y-183057857D01*
X121083332Y-183057857D02*
X121130951Y-182962619D01*
X121130951Y-182962619D02*
X121178570Y-182915000D01*
X121178570Y-182915000D02*
X121273808Y-182867380D01*
X122226189Y-182867380D02*
X122321427Y-182867380D01*
X122321427Y-182867380D02*
X122416665Y-182915000D01*
X122416665Y-182915000D02*
X122464284Y-182962619D01*
X122464284Y-182962619D02*
X122511903Y-183057857D01*
X122511903Y-183057857D02*
X122559522Y-183248333D01*
X122559522Y-183248333D02*
X122559522Y-183486428D01*
X122559522Y-183486428D02*
X122511903Y-183676904D01*
X122511903Y-183676904D02*
X122464284Y-183772142D01*
X122464284Y-183772142D02*
X122416665Y-183819761D01*
X122416665Y-183819761D02*
X122321427Y-183867380D01*
X122321427Y-183867380D02*
X122226189Y-183867380D01*
X122226189Y-183867380D02*
X122130951Y-183819761D01*
X122130951Y-183819761D02*
X122083332Y-183772142D01*
X122083332Y-183772142D02*
X122035713Y-183676904D01*
X122035713Y-183676904D02*
X121988094Y-183486428D01*
X121988094Y-183486428D02*
X121988094Y-183248333D01*
X121988094Y-183248333D02*
X122035713Y-183057857D01*
X122035713Y-183057857D02*
X122083332Y-182962619D01*
X122083332Y-182962619D02*
X122130951Y-182915000D01*
X122130951Y-182915000D02*
X122226189Y-182867380D01*
X122988094Y-183867380D02*
X122988094Y-182867380D01*
X122988094Y-183343571D02*
X123559522Y-183343571D01*
X123559522Y-183867380D02*
X123559522Y-182867380D01*
X124607141Y-183772142D02*
X124559522Y-183819761D01*
X124559522Y-183819761D02*
X124416665Y-183867380D01*
X124416665Y-183867380D02*
X124321427Y-183867380D01*
X124321427Y-183867380D02*
X124178570Y-183819761D01*
X124178570Y-183819761D02*
X124083332Y-183724523D01*
X124083332Y-183724523D02*
X124035713Y-183629285D01*
X124035713Y-183629285D02*
X123988094Y-183438809D01*
X123988094Y-183438809D02*
X123988094Y-183295952D01*
X123988094Y-183295952D02*
X124035713Y-183105476D01*
X124035713Y-183105476D02*
X124083332Y-183010238D01*
X124083332Y-183010238D02*
X124178570Y-182915000D01*
X124178570Y-182915000D02*
X124321427Y-182867380D01*
X124321427Y-182867380D02*
X124416665Y-182867380D01*
X124416665Y-182867380D02*
X124559522Y-182915000D01*
X124559522Y-182915000D02*
X124607141Y-182962619D01*
X125178570Y-183867380D02*
X125083332Y-183819761D01*
X125083332Y-183819761D02*
X125035713Y-183772142D01*
X125035713Y-183772142D02*
X124988094Y-183676904D01*
X124988094Y-183676904D02*
X124988094Y-183391190D01*
X124988094Y-183391190D02*
X125035713Y-183295952D01*
X125035713Y-183295952D02*
X125083332Y-183248333D01*
X125083332Y-183248333D02*
X125178570Y-183200714D01*
X125178570Y-183200714D02*
X125321427Y-183200714D01*
X125321427Y-183200714D02*
X125416665Y-183248333D01*
X125416665Y-183248333D02*
X125464284Y-183295952D01*
X125464284Y-183295952D02*
X125511903Y-183391190D01*
X125511903Y-183391190D02*
X125511903Y-183676904D01*
X125511903Y-183676904D02*
X125464284Y-183772142D01*
X125464284Y-183772142D02*
X125416665Y-183819761D01*
X125416665Y-183819761D02*
X125321427Y-183867380D01*
X125321427Y-183867380D02*
X125178570Y-183867380D01*
X125940475Y-183200714D02*
X125940475Y-183867380D01*
X125940475Y-183295952D02*
X125988094Y-183248333D01*
X125988094Y-183248333D02*
X126083332Y-183200714D01*
X126083332Y-183200714D02*
X126226189Y-183200714D01*
X126226189Y-183200714D02*
X126321427Y-183248333D01*
X126321427Y-183248333D02*
X126369046Y-183343571D01*
X126369046Y-183343571D02*
X126369046Y-183867380D01*
X126702380Y-183200714D02*
X127083332Y-183200714D01*
X126845237Y-182867380D02*
X126845237Y-183724523D01*
X126845237Y-183724523D02*
X126892856Y-183819761D01*
X126892856Y-183819761D02*
X126988094Y-183867380D01*
X126988094Y-183867380D02*
X127083332Y-183867380D01*
X127416666Y-183867380D02*
X127416666Y-183200714D01*
X127416666Y-183391190D02*
X127464285Y-183295952D01*
X127464285Y-183295952D02*
X127511904Y-183248333D01*
X127511904Y-183248333D02*
X127607142Y-183200714D01*
X127607142Y-183200714D02*
X127702380Y-183200714D01*
X128178571Y-183867380D02*
X128083333Y-183819761D01*
X128083333Y-183819761D02*
X128035714Y-183772142D01*
X128035714Y-183772142D02*
X127988095Y-183676904D01*
X127988095Y-183676904D02*
X127988095Y-183391190D01*
X127988095Y-183391190D02*
X128035714Y-183295952D01*
X128035714Y-183295952D02*
X128083333Y-183248333D01*
X128083333Y-183248333D02*
X128178571Y-183200714D01*
X128178571Y-183200714D02*
X128321428Y-183200714D01*
X128321428Y-183200714D02*
X128416666Y-183248333D01*
X128416666Y-183248333D02*
X128464285Y-183295952D01*
X128464285Y-183295952D02*
X128511904Y-183391190D01*
X128511904Y-183391190D02*
X128511904Y-183676904D01*
X128511904Y-183676904D02*
X128464285Y-183772142D01*
X128464285Y-183772142D02*
X128416666Y-183819761D01*
X128416666Y-183819761D02*
X128321428Y-183867380D01*
X128321428Y-183867380D02*
X128178571Y-183867380D01*
X129083333Y-183867380D02*
X128988095Y-183819761D01*
X128988095Y-183819761D02*
X128940476Y-183724523D01*
X128940476Y-183724523D02*
X128940476Y-182867380D01*
X129988095Y-183867380D02*
X129416667Y-183867380D01*
X129702381Y-183867380D02*
X129702381Y-182867380D01*
X129702381Y-182867380D02*
X129607143Y-183010238D01*
X129607143Y-183010238D02*
X129511905Y-183105476D01*
X129511905Y-183105476D02*
X129416667Y-183153095D01*
%TO.C,I2CTempHum1*%
X118476191Y-166117380D02*
X118476191Y-165117380D01*
X118904762Y-165212619D02*
X118952381Y-165165000D01*
X118952381Y-165165000D02*
X119047619Y-165117380D01*
X119047619Y-165117380D02*
X119285714Y-165117380D01*
X119285714Y-165117380D02*
X119380952Y-165165000D01*
X119380952Y-165165000D02*
X119428571Y-165212619D01*
X119428571Y-165212619D02*
X119476190Y-165307857D01*
X119476190Y-165307857D02*
X119476190Y-165403095D01*
X119476190Y-165403095D02*
X119428571Y-165545952D01*
X119428571Y-165545952D02*
X118857143Y-166117380D01*
X118857143Y-166117380D02*
X119476190Y-166117380D01*
X120476190Y-166022142D02*
X120428571Y-166069761D01*
X120428571Y-166069761D02*
X120285714Y-166117380D01*
X120285714Y-166117380D02*
X120190476Y-166117380D01*
X120190476Y-166117380D02*
X120047619Y-166069761D01*
X120047619Y-166069761D02*
X119952381Y-165974523D01*
X119952381Y-165974523D02*
X119904762Y-165879285D01*
X119904762Y-165879285D02*
X119857143Y-165688809D01*
X119857143Y-165688809D02*
X119857143Y-165545952D01*
X119857143Y-165545952D02*
X119904762Y-165355476D01*
X119904762Y-165355476D02*
X119952381Y-165260238D01*
X119952381Y-165260238D02*
X120047619Y-165165000D01*
X120047619Y-165165000D02*
X120190476Y-165117380D01*
X120190476Y-165117380D02*
X120285714Y-165117380D01*
X120285714Y-165117380D02*
X120428571Y-165165000D01*
X120428571Y-165165000D02*
X120476190Y-165212619D01*
X120761905Y-165117380D02*
X121333333Y-165117380D01*
X121047619Y-166117380D02*
X121047619Y-165117380D01*
X122047619Y-166069761D02*
X121952381Y-166117380D01*
X121952381Y-166117380D02*
X121761905Y-166117380D01*
X121761905Y-166117380D02*
X121666667Y-166069761D01*
X121666667Y-166069761D02*
X121619048Y-165974523D01*
X121619048Y-165974523D02*
X121619048Y-165593571D01*
X121619048Y-165593571D02*
X121666667Y-165498333D01*
X121666667Y-165498333D02*
X121761905Y-165450714D01*
X121761905Y-165450714D02*
X121952381Y-165450714D01*
X121952381Y-165450714D02*
X122047619Y-165498333D01*
X122047619Y-165498333D02*
X122095238Y-165593571D01*
X122095238Y-165593571D02*
X122095238Y-165688809D01*
X122095238Y-165688809D02*
X121619048Y-165784047D01*
X122523810Y-166117380D02*
X122523810Y-165450714D01*
X122523810Y-165545952D02*
X122571429Y-165498333D01*
X122571429Y-165498333D02*
X122666667Y-165450714D01*
X122666667Y-165450714D02*
X122809524Y-165450714D01*
X122809524Y-165450714D02*
X122904762Y-165498333D01*
X122904762Y-165498333D02*
X122952381Y-165593571D01*
X122952381Y-165593571D02*
X122952381Y-166117380D01*
X122952381Y-165593571D02*
X123000000Y-165498333D01*
X123000000Y-165498333D02*
X123095238Y-165450714D01*
X123095238Y-165450714D02*
X123238095Y-165450714D01*
X123238095Y-165450714D02*
X123333334Y-165498333D01*
X123333334Y-165498333D02*
X123380953Y-165593571D01*
X123380953Y-165593571D02*
X123380953Y-166117380D01*
X123857143Y-165450714D02*
X123857143Y-166450714D01*
X123857143Y-165498333D02*
X123952381Y-165450714D01*
X123952381Y-165450714D02*
X124142857Y-165450714D01*
X124142857Y-165450714D02*
X124238095Y-165498333D01*
X124238095Y-165498333D02*
X124285714Y-165545952D01*
X124285714Y-165545952D02*
X124333333Y-165641190D01*
X124333333Y-165641190D02*
X124333333Y-165926904D01*
X124333333Y-165926904D02*
X124285714Y-166022142D01*
X124285714Y-166022142D02*
X124238095Y-166069761D01*
X124238095Y-166069761D02*
X124142857Y-166117380D01*
X124142857Y-166117380D02*
X123952381Y-166117380D01*
X123952381Y-166117380D02*
X123857143Y-166069761D01*
X124761905Y-166117380D02*
X124761905Y-165117380D01*
X124761905Y-165593571D02*
X125333333Y-165593571D01*
X125333333Y-166117380D02*
X125333333Y-165117380D01*
X126238095Y-165450714D02*
X126238095Y-166117380D01*
X125809524Y-165450714D02*
X125809524Y-165974523D01*
X125809524Y-165974523D02*
X125857143Y-166069761D01*
X125857143Y-166069761D02*
X125952381Y-166117380D01*
X125952381Y-166117380D02*
X126095238Y-166117380D01*
X126095238Y-166117380D02*
X126190476Y-166069761D01*
X126190476Y-166069761D02*
X126238095Y-166022142D01*
X126714286Y-166117380D02*
X126714286Y-165450714D01*
X126714286Y-165545952D02*
X126761905Y-165498333D01*
X126761905Y-165498333D02*
X126857143Y-165450714D01*
X126857143Y-165450714D02*
X127000000Y-165450714D01*
X127000000Y-165450714D02*
X127095238Y-165498333D01*
X127095238Y-165498333D02*
X127142857Y-165593571D01*
X127142857Y-165593571D02*
X127142857Y-166117380D01*
X127142857Y-165593571D02*
X127190476Y-165498333D01*
X127190476Y-165498333D02*
X127285714Y-165450714D01*
X127285714Y-165450714D02*
X127428571Y-165450714D01*
X127428571Y-165450714D02*
X127523810Y-165498333D01*
X127523810Y-165498333D02*
X127571429Y-165593571D01*
X127571429Y-165593571D02*
X127571429Y-166117380D01*
X128571428Y-166117380D02*
X128000000Y-166117380D01*
X128285714Y-166117380D02*
X128285714Y-165117380D01*
X128285714Y-165117380D02*
X128190476Y-165260238D01*
X128190476Y-165260238D02*
X128095238Y-165355476D01*
X128095238Y-165355476D02*
X128000000Y-165403095D01*
%TO.C,AlimOzono5V1*%
X85081666Y-170321428D02*
X85081666Y-169845238D01*
X85367380Y-170416666D02*
X84367380Y-170083333D01*
X84367380Y-170083333D02*
X85367380Y-169750000D01*
X85367380Y-169273809D02*
X85319761Y-169369047D01*
X85319761Y-169369047D02*
X85224523Y-169416666D01*
X85224523Y-169416666D02*
X84367380Y-169416666D01*
X85367380Y-168892856D02*
X84700714Y-168892856D01*
X84367380Y-168892856D02*
X84415000Y-168940475D01*
X84415000Y-168940475D02*
X84462619Y-168892856D01*
X84462619Y-168892856D02*
X84415000Y-168845237D01*
X84415000Y-168845237D02*
X84367380Y-168892856D01*
X84367380Y-168892856D02*
X84462619Y-168892856D01*
X85367380Y-168416666D02*
X84700714Y-168416666D01*
X84795952Y-168416666D02*
X84748333Y-168369047D01*
X84748333Y-168369047D02*
X84700714Y-168273809D01*
X84700714Y-168273809D02*
X84700714Y-168130952D01*
X84700714Y-168130952D02*
X84748333Y-168035714D01*
X84748333Y-168035714D02*
X84843571Y-167988095D01*
X84843571Y-167988095D02*
X85367380Y-167988095D01*
X84843571Y-167988095D02*
X84748333Y-167940476D01*
X84748333Y-167940476D02*
X84700714Y-167845238D01*
X84700714Y-167845238D02*
X84700714Y-167702381D01*
X84700714Y-167702381D02*
X84748333Y-167607142D01*
X84748333Y-167607142D02*
X84843571Y-167559523D01*
X84843571Y-167559523D02*
X85367380Y-167559523D01*
X84367380Y-166892857D02*
X84367380Y-166702381D01*
X84367380Y-166702381D02*
X84415000Y-166607143D01*
X84415000Y-166607143D02*
X84510238Y-166511905D01*
X84510238Y-166511905D02*
X84700714Y-166464286D01*
X84700714Y-166464286D02*
X85034047Y-166464286D01*
X85034047Y-166464286D02*
X85224523Y-166511905D01*
X85224523Y-166511905D02*
X85319761Y-166607143D01*
X85319761Y-166607143D02*
X85367380Y-166702381D01*
X85367380Y-166702381D02*
X85367380Y-166892857D01*
X85367380Y-166892857D02*
X85319761Y-166988095D01*
X85319761Y-166988095D02*
X85224523Y-167083333D01*
X85224523Y-167083333D02*
X85034047Y-167130952D01*
X85034047Y-167130952D02*
X84700714Y-167130952D01*
X84700714Y-167130952D02*
X84510238Y-167083333D01*
X84510238Y-167083333D02*
X84415000Y-166988095D01*
X84415000Y-166988095D02*
X84367380Y-166892857D01*
X84700714Y-166130952D02*
X84700714Y-165607143D01*
X84700714Y-165607143D02*
X85367380Y-166130952D01*
X85367380Y-166130952D02*
X85367380Y-165607143D01*
X85367380Y-165083333D02*
X85319761Y-165178571D01*
X85319761Y-165178571D02*
X85272142Y-165226190D01*
X85272142Y-165226190D02*
X85176904Y-165273809D01*
X85176904Y-165273809D02*
X84891190Y-165273809D01*
X84891190Y-165273809D02*
X84795952Y-165226190D01*
X84795952Y-165226190D02*
X84748333Y-165178571D01*
X84748333Y-165178571D02*
X84700714Y-165083333D01*
X84700714Y-165083333D02*
X84700714Y-164940476D01*
X84700714Y-164940476D02*
X84748333Y-164845238D01*
X84748333Y-164845238D02*
X84795952Y-164797619D01*
X84795952Y-164797619D02*
X84891190Y-164750000D01*
X84891190Y-164750000D02*
X85176904Y-164750000D01*
X85176904Y-164750000D02*
X85272142Y-164797619D01*
X85272142Y-164797619D02*
X85319761Y-164845238D01*
X85319761Y-164845238D02*
X85367380Y-164940476D01*
X85367380Y-164940476D02*
X85367380Y-165083333D01*
X84700714Y-164321428D02*
X85367380Y-164321428D01*
X84795952Y-164321428D02*
X84748333Y-164273809D01*
X84748333Y-164273809D02*
X84700714Y-164178571D01*
X84700714Y-164178571D02*
X84700714Y-164035714D01*
X84700714Y-164035714D02*
X84748333Y-163940476D01*
X84748333Y-163940476D02*
X84843571Y-163892857D01*
X84843571Y-163892857D02*
X85367380Y-163892857D01*
X85367380Y-163273809D02*
X85319761Y-163369047D01*
X85319761Y-163369047D02*
X85272142Y-163416666D01*
X85272142Y-163416666D02*
X85176904Y-163464285D01*
X85176904Y-163464285D02*
X84891190Y-163464285D01*
X84891190Y-163464285D02*
X84795952Y-163416666D01*
X84795952Y-163416666D02*
X84748333Y-163369047D01*
X84748333Y-163369047D02*
X84700714Y-163273809D01*
X84700714Y-163273809D02*
X84700714Y-163130952D01*
X84700714Y-163130952D02*
X84748333Y-163035714D01*
X84748333Y-163035714D02*
X84795952Y-162988095D01*
X84795952Y-162988095D02*
X84891190Y-162940476D01*
X84891190Y-162940476D02*
X85176904Y-162940476D01*
X85176904Y-162940476D02*
X85272142Y-162988095D01*
X85272142Y-162988095D02*
X85319761Y-163035714D01*
X85319761Y-163035714D02*
X85367380Y-163130952D01*
X85367380Y-163130952D02*
X85367380Y-163273809D01*
X84367380Y-162035714D02*
X84367380Y-162511904D01*
X84367380Y-162511904D02*
X84843571Y-162559523D01*
X84843571Y-162559523D02*
X84795952Y-162511904D01*
X84795952Y-162511904D02*
X84748333Y-162416666D01*
X84748333Y-162416666D02*
X84748333Y-162178571D01*
X84748333Y-162178571D02*
X84795952Y-162083333D01*
X84795952Y-162083333D02*
X84843571Y-162035714D01*
X84843571Y-162035714D02*
X84938809Y-161988095D01*
X84938809Y-161988095D02*
X85176904Y-161988095D01*
X85176904Y-161988095D02*
X85272142Y-162035714D01*
X85272142Y-162035714D02*
X85319761Y-162083333D01*
X85319761Y-162083333D02*
X85367380Y-162178571D01*
X85367380Y-162178571D02*
X85367380Y-162416666D01*
X85367380Y-162416666D02*
X85319761Y-162511904D01*
X85319761Y-162511904D02*
X85272142Y-162559523D01*
X84367380Y-161702380D02*
X85367380Y-161369047D01*
X85367380Y-161369047D02*
X84367380Y-161035714D01*
X85367380Y-160178571D02*
X85367380Y-160749999D01*
X85367380Y-160464285D02*
X84367380Y-160464285D01*
X84367380Y-160464285D02*
X84510238Y-160559523D01*
X84510238Y-160559523D02*
X84605476Y-160654761D01*
X84605476Y-160654761D02*
X84653095Y-160749999D01*
%TO.C,AZDeliveryESP1*%
X91511904Y-166165000D02*
X91416666Y-166117380D01*
X91416666Y-166117380D02*
X91273809Y-166117380D01*
X91273809Y-166117380D02*
X91130952Y-166165000D01*
X91130952Y-166165000D02*
X91035714Y-166260238D01*
X91035714Y-166260238D02*
X90988095Y-166355476D01*
X90988095Y-166355476D02*
X90940476Y-166545952D01*
X90940476Y-166545952D02*
X90940476Y-166688809D01*
X90940476Y-166688809D02*
X90988095Y-166879285D01*
X90988095Y-166879285D02*
X91035714Y-166974523D01*
X91035714Y-166974523D02*
X91130952Y-167069761D01*
X91130952Y-167069761D02*
X91273809Y-167117380D01*
X91273809Y-167117380D02*
X91369047Y-167117380D01*
X91369047Y-167117380D02*
X91511904Y-167069761D01*
X91511904Y-167069761D02*
X91559523Y-167022142D01*
X91559523Y-167022142D02*
X91559523Y-166688809D01*
X91559523Y-166688809D02*
X91369047Y-166688809D01*
X91988095Y-167117380D02*
X91988095Y-166117380D01*
X91988095Y-166117380D02*
X92559523Y-167117380D01*
X92559523Y-167117380D02*
X92559523Y-166117380D01*
X93035714Y-167117380D02*
X93035714Y-166117380D01*
X93035714Y-166117380D02*
X93273809Y-166117380D01*
X93273809Y-166117380D02*
X93416666Y-166165000D01*
X93416666Y-166165000D02*
X93511904Y-166260238D01*
X93511904Y-166260238D02*
X93559523Y-166355476D01*
X93559523Y-166355476D02*
X93607142Y-166545952D01*
X93607142Y-166545952D02*
X93607142Y-166688809D01*
X93607142Y-166688809D02*
X93559523Y-166879285D01*
X93559523Y-166879285D02*
X93511904Y-166974523D01*
X93511904Y-166974523D02*
X93416666Y-167069761D01*
X93416666Y-167069761D02*
X93273809Y-167117380D01*
X93273809Y-167117380D02*
X93035714Y-167117380D01*
X107964285Y-133235000D02*
X107869047Y-133187380D01*
X107869047Y-133187380D02*
X107726190Y-133187380D01*
X107726190Y-133187380D02*
X107583333Y-133235000D01*
X107583333Y-133235000D02*
X107488095Y-133330238D01*
X107488095Y-133330238D02*
X107440476Y-133425476D01*
X107440476Y-133425476D02*
X107392857Y-133615952D01*
X107392857Y-133615952D02*
X107392857Y-133758809D01*
X107392857Y-133758809D02*
X107440476Y-133949285D01*
X107440476Y-133949285D02*
X107488095Y-134044523D01*
X107488095Y-134044523D02*
X107583333Y-134139761D01*
X107583333Y-134139761D02*
X107726190Y-134187380D01*
X107726190Y-134187380D02*
X107821428Y-134187380D01*
X107821428Y-134187380D02*
X107964285Y-134139761D01*
X107964285Y-134139761D02*
X108011904Y-134092142D01*
X108011904Y-134092142D02*
X108011904Y-133758809D01*
X108011904Y-133758809D02*
X107821428Y-133758809D01*
X108440476Y-134187380D02*
X108440476Y-133187380D01*
X108440476Y-133187380D02*
X109011904Y-134187380D01*
X109011904Y-134187380D02*
X109011904Y-133187380D01*
X109488095Y-134187380D02*
X109488095Y-133187380D01*
X109488095Y-133187380D02*
X109726190Y-133187380D01*
X109726190Y-133187380D02*
X109869047Y-133235000D01*
X109869047Y-133235000D02*
X109964285Y-133330238D01*
X109964285Y-133330238D02*
X110011904Y-133425476D01*
X110011904Y-133425476D02*
X110059523Y-133615952D01*
X110059523Y-133615952D02*
X110059523Y-133758809D01*
X110059523Y-133758809D02*
X110011904Y-133949285D01*
X110011904Y-133949285D02*
X109964285Y-134044523D01*
X109964285Y-134044523D02*
X109869047Y-134139761D01*
X109869047Y-134139761D02*
X109726190Y-134187380D01*
X109726190Y-134187380D02*
X109488095Y-134187380D01*
X89392857Y-133117380D02*
X90011904Y-133117380D01*
X90011904Y-133117380D02*
X89678571Y-133498333D01*
X89678571Y-133498333D02*
X89821428Y-133498333D01*
X89821428Y-133498333D02*
X89916666Y-133545952D01*
X89916666Y-133545952D02*
X89964285Y-133593571D01*
X89964285Y-133593571D02*
X90011904Y-133688809D01*
X90011904Y-133688809D02*
X90011904Y-133926904D01*
X90011904Y-133926904D02*
X89964285Y-134022142D01*
X89964285Y-134022142D02*
X89916666Y-134069761D01*
X89916666Y-134069761D02*
X89821428Y-134117380D01*
X89821428Y-134117380D02*
X89535714Y-134117380D01*
X89535714Y-134117380D02*
X89440476Y-134069761D01*
X89440476Y-134069761D02*
X89392857Y-134022142D01*
X90297619Y-133117380D02*
X90630952Y-134117380D01*
X90630952Y-134117380D02*
X90964285Y-133117380D01*
X91202381Y-133117380D02*
X91821428Y-133117380D01*
X91821428Y-133117380D02*
X91488095Y-133498333D01*
X91488095Y-133498333D02*
X91630952Y-133498333D01*
X91630952Y-133498333D02*
X91726190Y-133545952D01*
X91726190Y-133545952D02*
X91773809Y-133593571D01*
X91773809Y-133593571D02*
X91821428Y-133688809D01*
X91821428Y-133688809D02*
X91821428Y-133926904D01*
X91821428Y-133926904D02*
X91773809Y-134022142D01*
X91773809Y-134022142D02*
X91726190Y-134069761D01*
X91726190Y-134069761D02*
X91630952Y-134117380D01*
X91630952Y-134117380D02*
X91345238Y-134117380D01*
X91345238Y-134117380D02*
X91250000Y-134069761D01*
X91250000Y-134069761D02*
X91202381Y-134022142D01*
X107964285Y-148475000D02*
X107869047Y-148427380D01*
X107869047Y-148427380D02*
X107726190Y-148427380D01*
X107726190Y-148427380D02*
X107583333Y-148475000D01*
X107583333Y-148475000D02*
X107488095Y-148570238D01*
X107488095Y-148570238D02*
X107440476Y-148665476D01*
X107440476Y-148665476D02*
X107392857Y-148855952D01*
X107392857Y-148855952D02*
X107392857Y-148998809D01*
X107392857Y-148998809D02*
X107440476Y-149189285D01*
X107440476Y-149189285D02*
X107488095Y-149284523D01*
X107488095Y-149284523D02*
X107583333Y-149379761D01*
X107583333Y-149379761D02*
X107726190Y-149427380D01*
X107726190Y-149427380D02*
X107821428Y-149427380D01*
X107821428Y-149427380D02*
X107964285Y-149379761D01*
X107964285Y-149379761D02*
X108011904Y-149332142D01*
X108011904Y-149332142D02*
X108011904Y-148998809D01*
X108011904Y-148998809D02*
X107821428Y-148998809D01*
X108440476Y-149427380D02*
X108440476Y-148427380D01*
X108440476Y-148427380D02*
X109011904Y-149427380D01*
X109011904Y-149427380D02*
X109011904Y-148427380D01*
X109488095Y-149427380D02*
X109488095Y-148427380D01*
X109488095Y-148427380D02*
X109726190Y-148427380D01*
X109726190Y-148427380D02*
X109869047Y-148475000D01*
X109869047Y-148475000D02*
X109964285Y-148570238D01*
X109964285Y-148570238D02*
X110011904Y-148665476D01*
X110011904Y-148665476D02*
X110059523Y-148855952D01*
X110059523Y-148855952D02*
X110059523Y-148998809D01*
X110059523Y-148998809D02*
X110011904Y-149189285D01*
X110011904Y-149189285D02*
X109964285Y-149284523D01*
X109964285Y-149284523D02*
X109869047Y-149379761D01*
X109869047Y-149379761D02*
X109726190Y-149427380D01*
X109726190Y-149427380D02*
X109488095Y-149427380D01*
X99179524Y-171452000D02*
X99103334Y-171413904D01*
X99103334Y-171413904D02*
X98989048Y-171413904D01*
X98989048Y-171413904D02*
X98874762Y-171452000D01*
X98874762Y-171452000D02*
X98798572Y-171528190D01*
X98798572Y-171528190D02*
X98760477Y-171604380D01*
X98760477Y-171604380D02*
X98722381Y-171756761D01*
X98722381Y-171756761D02*
X98722381Y-171871047D01*
X98722381Y-171871047D02*
X98760477Y-172023428D01*
X98760477Y-172023428D02*
X98798572Y-172099619D01*
X98798572Y-172099619D02*
X98874762Y-172175809D01*
X98874762Y-172175809D02*
X98989048Y-172213904D01*
X98989048Y-172213904D02*
X99065239Y-172213904D01*
X99065239Y-172213904D02*
X99179524Y-172175809D01*
X99179524Y-172175809D02*
X99217620Y-172137714D01*
X99217620Y-172137714D02*
X99217620Y-171871047D01*
X99217620Y-171871047D02*
X99065239Y-171871047D01*
X99560477Y-172213904D02*
X99560477Y-171413904D01*
X99560477Y-171413904D02*
X99865239Y-171413904D01*
X99865239Y-171413904D02*
X99941429Y-171452000D01*
X99941429Y-171452000D02*
X99979524Y-171490095D01*
X99979524Y-171490095D02*
X100017620Y-171566285D01*
X100017620Y-171566285D02*
X100017620Y-171680571D01*
X100017620Y-171680571D02*
X99979524Y-171756761D01*
X99979524Y-171756761D02*
X99941429Y-171794857D01*
X99941429Y-171794857D02*
X99865239Y-171832952D01*
X99865239Y-171832952D02*
X99560477Y-171832952D01*
X100360477Y-172213904D02*
X100360477Y-171413904D01*
X100893810Y-171413904D02*
X101046191Y-171413904D01*
X101046191Y-171413904D02*
X101122381Y-171452000D01*
X101122381Y-171452000D02*
X101198572Y-171528190D01*
X101198572Y-171528190D02*
X101236667Y-171680571D01*
X101236667Y-171680571D02*
X101236667Y-171947238D01*
X101236667Y-171947238D02*
X101198572Y-172099619D01*
X101198572Y-172099619D02*
X101122381Y-172175809D01*
X101122381Y-172175809D02*
X101046191Y-172213904D01*
X101046191Y-172213904D02*
X100893810Y-172213904D01*
X100893810Y-172213904D02*
X100817619Y-172175809D01*
X100817619Y-172175809D02*
X100741429Y-172099619D01*
X100741429Y-172099619D02*
X100703333Y-171947238D01*
X100703333Y-171947238D02*
X100703333Y-171680571D01*
X100703333Y-171680571D02*
X100741429Y-171528190D01*
X100741429Y-171528190D02*
X100817619Y-171452000D01*
X100817619Y-171452000D02*
X100893810Y-171413904D01*
X101998571Y-172213904D02*
X101541428Y-172213904D01*
X101770000Y-172213904D02*
X101770000Y-171413904D01*
X101770000Y-171413904D02*
X101693809Y-171528190D01*
X101693809Y-171528190D02*
X101617619Y-171604380D01*
X101617619Y-171604380D02*
X101541428Y-171642476D01*
X102722381Y-171413904D02*
X102341429Y-171413904D01*
X102341429Y-171413904D02*
X102303333Y-171794857D01*
X102303333Y-171794857D02*
X102341429Y-171756761D01*
X102341429Y-171756761D02*
X102417619Y-171718666D01*
X102417619Y-171718666D02*
X102608095Y-171718666D01*
X102608095Y-171718666D02*
X102684286Y-171756761D01*
X102684286Y-171756761D02*
X102722381Y-171794857D01*
X102722381Y-171794857D02*
X102760476Y-171871047D01*
X102760476Y-171871047D02*
X102760476Y-172061523D01*
X102760476Y-172061523D02*
X102722381Y-172137714D01*
X102722381Y-172137714D02*
X102684286Y-172175809D01*
X102684286Y-172175809D02*
X102608095Y-172213904D01*
X102608095Y-172213904D02*
X102417619Y-172213904D01*
X102417619Y-172213904D02*
X102341429Y-172175809D01*
X102341429Y-172175809D02*
X102303333Y-172137714D01*
X103674762Y-171375809D02*
X102989048Y-172404380D01*
X103941429Y-172213904D02*
X103941429Y-171413904D01*
X104284285Y-171490095D02*
X104322381Y-171452000D01*
X104322381Y-171452000D02*
X104398571Y-171413904D01*
X104398571Y-171413904D02*
X104589047Y-171413904D01*
X104589047Y-171413904D02*
X104665238Y-171452000D01*
X104665238Y-171452000D02*
X104703333Y-171490095D01*
X104703333Y-171490095D02*
X104741428Y-171566285D01*
X104741428Y-171566285D02*
X104741428Y-171642476D01*
X104741428Y-171642476D02*
X104703333Y-171756761D01*
X104703333Y-171756761D02*
X104246190Y-172213904D01*
X104246190Y-172213904D02*
X104741428Y-172213904D01*
X105541429Y-172137714D02*
X105503333Y-172175809D01*
X105503333Y-172175809D02*
X105389048Y-172213904D01*
X105389048Y-172213904D02*
X105312857Y-172213904D01*
X105312857Y-172213904D02*
X105198571Y-172175809D01*
X105198571Y-172175809D02*
X105122381Y-172099619D01*
X105122381Y-172099619D02*
X105084286Y-172023428D01*
X105084286Y-172023428D02*
X105046190Y-171871047D01*
X105046190Y-171871047D02*
X105046190Y-171756761D01*
X105046190Y-171756761D02*
X105084286Y-171604380D01*
X105084286Y-171604380D02*
X105122381Y-171528190D01*
X105122381Y-171528190D02*
X105198571Y-171452000D01*
X105198571Y-171452000D02*
X105312857Y-171413904D01*
X105312857Y-171413904D02*
X105389048Y-171413904D01*
X105389048Y-171413904D02*
X105503333Y-171452000D01*
X105503333Y-171452000D02*
X105541429Y-171490095D01*
X106250000Y-171413904D02*
X106707143Y-171413904D01*
X106478571Y-172213904D02*
X106478571Y-171413904D01*
X107126191Y-171413904D02*
X107278572Y-171413904D01*
X107278572Y-171413904D02*
X107354762Y-171452000D01*
X107354762Y-171452000D02*
X107430953Y-171528190D01*
X107430953Y-171528190D02*
X107469048Y-171680571D01*
X107469048Y-171680571D02*
X107469048Y-171947238D01*
X107469048Y-171947238D02*
X107430953Y-172099619D01*
X107430953Y-172099619D02*
X107354762Y-172175809D01*
X107354762Y-172175809D02*
X107278572Y-172213904D01*
X107278572Y-172213904D02*
X107126191Y-172213904D01*
X107126191Y-172213904D02*
X107050000Y-172175809D01*
X107050000Y-172175809D02*
X106973810Y-172099619D01*
X106973810Y-172099619D02*
X106935714Y-171947238D01*
X106935714Y-171947238D02*
X106935714Y-171680571D01*
X106935714Y-171680571D02*
X106973810Y-171528190D01*
X106973810Y-171528190D02*
X107050000Y-171452000D01*
X107050000Y-171452000D02*
X107126191Y-171413904D01*
X107811905Y-171909142D02*
X108421429Y-171909142D01*
X108802381Y-172213904D02*
X108802381Y-171413904D01*
X108802381Y-171413904D02*
X108992857Y-171413904D01*
X108992857Y-171413904D02*
X109107143Y-171452000D01*
X109107143Y-171452000D02*
X109183333Y-171528190D01*
X109183333Y-171528190D02*
X109221428Y-171604380D01*
X109221428Y-171604380D02*
X109259524Y-171756761D01*
X109259524Y-171756761D02*
X109259524Y-171871047D01*
X109259524Y-171871047D02*
X109221428Y-172023428D01*
X109221428Y-172023428D02*
X109183333Y-172099619D01*
X109183333Y-172099619D02*
X109107143Y-172175809D01*
X109107143Y-172175809D02*
X108992857Y-172213904D01*
X108992857Y-172213904D02*
X108802381Y-172213904D01*
X109754762Y-171413904D02*
X109907143Y-171413904D01*
X109907143Y-171413904D02*
X109983333Y-171452000D01*
X109983333Y-171452000D02*
X110059524Y-171528190D01*
X110059524Y-171528190D02*
X110097619Y-171680571D01*
X110097619Y-171680571D02*
X110097619Y-171947238D01*
X110097619Y-171947238D02*
X110059524Y-172099619D01*
X110059524Y-172099619D02*
X109983333Y-172175809D01*
X109983333Y-172175809D02*
X109907143Y-172213904D01*
X109907143Y-172213904D02*
X109754762Y-172213904D01*
X109754762Y-172213904D02*
X109678571Y-172175809D01*
X109678571Y-172175809D02*
X109602381Y-172099619D01*
X109602381Y-172099619D02*
X109564285Y-171947238D01*
X109564285Y-171947238D02*
X109564285Y-171680571D01*
X109564285Y-171680571D02*
X109602381Y-171528190D01*
X109602381Y-171528190D02*
X109678571Y-171452000D01*
X109678571Y-171452000D02*
X109754762Y-171413904D01*
X101350951Y-158752000D02*
X101274761Y-158713904D01*
X101274761Y-158713904D02*
X101160475Y-158713904D01*
X101160475Y-158713904D02*
X101046189Y-158752000D01*
X101046189Y-158752000D02*
X100969999Y-158828190D01*
X100969999Y-158828190D02*
X100931904Y-158904380D01*
X100931904Y-158904380D02*
X100893808Y-159056761D01*
X100893808Y-159056761D02*
X100893808Y-159171047D01*
X100893808Y-159171047D02*
X100931904Y-159323428D01*
X100931904Y-159323428D02*
X100969999Y-159399619D01*
X100969999Y-159399619D02*
X101046189Y-159475809D01*
X101046189Y-159475809D02*
X101160475Y-159513904D01*
X101160475Y-159513904D02*
X101236666Y-159513904D01*
X101236666Y-159513904D02*
X101350951Y-159475809D01*
X101350951Y-159475809D02*
X101389047Y-159437714D01*
X101389047Y-159437714D02*
X101389047Y-159171047D01*
X101389047Y-159171047D02*
X101236666Y-159171047D01*
X101731904Y-159513904D02*
X101731904Y-158713904D01*
X101731904Y-158713904D02*
X102036666Y-158713904D01*
X102036666Y-158713904D02*
X102112856Y-158752000D01*
X102112856Y-158752000D02*
X102150951Y-158790095D01*
X102150951Y-158790095D02*
X102189047Y-158866285D01*
X102189047Y-158866285D02*
X102189047Y-158980571D01*
X102189047Y-158980571D02*
X102150951Y-159056761D01*
X102150951Y-159056761D02*
X102112856Y-159094857D01*
X102112856Y-159094857D02*
X102036666Y-159132952D01*
X102036666Y-159132952D02*
X101731904Y-159132952D01*
X102531904Y-159513904D02*
X102531904Y-158713904D01*
X103065237Y-158713904D02*
X103217618Y-158713904D01*
X103217618Y-158713904D02*
X103293808Y-158752000D01*
X103293808Y-158752000D02*
X103369999Y-158828190D01*
X103369999Y-158828190D02*
X103408094Y-158980571D01*
X103408094Y-158980571D02*
X103408094Y-159247238D01*
X103408094Y-159247238D02*
X103369999Y-159399619D01*
X103369999Y-159399619D02*
X103293808Y-159475809D01*
X103293808Y-159475809D02*
X103217618Y-159513904D01*
X103217618Y-159513904D02*
X103065237Y-159513904D01*
X103065237Y-159513904D02*
X102989046Y-159475809D01*
X102989046Y-159475809D02*
X102912856Y-159399619D01*
X102912856Y-159399619D02*
X102874760Y-159247238D01*
X102874760Y-159247238D02*
X102874760Y-158980571D01*
X102874760Y-158980571D02*
X102912856Y-158828190D01*
X102912856Y-158828190D02*
X102989046Y-158752000D01*
X102989046Y-158752000D02*
X103065237Y-158713904D01*
X104169998Y-159513904D02*
X103712855Y-159513904D01*
X103941427Y-159513904D02*
X103941427Y-158713904D01*
X103941427Y-158713904D02*
X103865236Y-158828190D01*
X103865236Y-158828190D02*
X103789046Y-158904380D01*
X103789046Y-158904380D02*
X103712855Y-158942476D01*
X104436665Y-158713904D02*
X104969999Y-158713904D01*
X104969999Y-158713904D02*
X104627141Y-159513904D01*
X105846189Y-158675809D02*
X105160475Y-159704380D01*
X105998570Y-158713904D02*
X106455713Y-158713904D01*
X106227141Y-159513904D02*
X106227141Y-158713904D01*
X106646189Y-158713904D02*
X107179523Y-159513904D01*
X107179523Y-158713904D02*
X106646189Y-159513904D01*
X108383332Y-158752000D02*
X108307142Y-158713904D01*
X108307142Y-158713904D02*
X108192856Y-158713904D01*
X108192856Y-158713904D02*
X108078570Y-158752000D01*
X108078570Y-158752000D02*
X108002380Y-158828190D01*
X108002380Y-158828190D02*
X107964285Y-158904380D01*
X107964285Y-158904380D02*
X107926189Y-159056761D01*
X107926189Y-159056761D02*
X107926189Y-159171047D01*
X107926189Y-159171047D02*
X107964285Y-159323428D01*
X107964285Y-159323428D02*
X108002380Y-159399619D01*
X108002380Y-159399619D02*
X108078570Y-159475809D01*
X108078570Y-159475809D02*
X108192856Y-159513904D01*
X108192856Y-159513904D02*
X108269047Y-159513904D01*
X108269047Y-159513904D02*
X108383332Y-159475809D01*
X108383332Y-159475809D02*
X108421428Y-159437714D01*
X108421428Y-159437714D02*
X108421428Y-159171047D01*
X108421428Y-159171047D02*
X108269047Y-159171047D01*
X108726189Y-159475809D02*
X108840475Y-159513904D01*
X108840475Y-159513904D02*
X109030951Y-159513904D01*
X109030951Y-159513904D02*
X109107142Y-159475809D01*
X109107142Y-159475809D02*
X109145237Y-159437714D01*
X109145237Y-159437714D02*
X109183332Y-159361523D01*
X109183332Y-159361523D02*
X109183332Y-159285333D01*
X109183332Y-159285333D02*
X109145237Y-159209142D01*
X109145237Y-159209142D02*
X109107142Y-159171047D01*
X109107142Y-159171047D02*
X109030951Y-159132952D01*
X109030951Y-159132952D02*
X108878570Y-159094857D01*
X108878570Y-159094857D02*
X108802380Y-159056761D01*
X108802380Y-159056761D02*
X108764285Y-159018666D01*
X108764285Y-159018666D02*
X108726189Y-158942476D01*
X108726189Y-158942476D02*
X108726189Y-158866285D01*
X108726189Y-158866285D02*
X108764285Y-158790095D01*
X108764285Y-158790095D02*
X108802380Y-158752000D01*
X108802380Y-158752000D02*
X108878570Y-158713904D01*
X108878570Y-158713904D02*
X109069047Y-158713904D01*
X109069047Y-158713904D02*
X109183332Y-158752000D01*
X109526190Y-159513904D02*
X109526190Y-158713904D01*
X109526190Y-158713904D02*
X109792856Y-159285333D01*
X109792856Y-159285333D02*
X110059523Y-158713904D01*
X110059523Y-158713904D02*
X110059523Y-159513904D01*
X91714285Y-178367380D02*
X91238095Y-178367380D01*
X91238095Y-178367380D02*
X91190476Y-178843571D01*
X91190476Y-178843571D02*
X91238095Y-178795952D01*
X91238095Y-178795952D02*
X91333333Y-178748333D01*
X91333333Y-178748333D02*
X91571428Y-178748333D01*
X91571428Y-178748333D02*
X91666666Y-178795952D01*
X91666666Y-178795952D02*
X91714285Y-178843571D01*
X91714285Y-178843571D02*
X91761904Y-178938809D01*
X91761904Y-178938809D02*
X91761904Y-179176904D01*
X91761904Y-179176904D02*
X91714285Y-179272142D01*
X91714285Y-179272142D02*
X91666666Y-179319761D01*
X91666666Y-179319761D02*
X91571428Y-179367380D01*
X91571428Y-179367380D02*
X91333333Y-179367380D01*
X91333333Y-179367380D02*
X91238095Y-179319761D01*
X91238095Y-179319761D02*
X91190476Y-179272142D01*
X92047619Y-178367380D02*
X92380952Y-179367380D01*
X92380952Y-179367380D02*
X92714285Y-178367380D01*
X90109523Y-151062000D02*
X90033333Y-151023904D01*
X90033333Y-151023904D02*
X89919047Y-151023904D01*
X89919047Y-151023904D02*
X89804761Y-151062000D01*
X89804761Y-151062000D02*
X89728571Y-151138190D01*
X89728571Y-151138190D02*
X89690476Y-151214380D01*
X89690476Y-151214380D02*
X89652380Y-151366761D01*
X89652380Y-151366761D02*
X89652380Y-151481047D01*
X89652380Y-151481047D02*
X89690476Y-151633428D01*
X89690476Y-151633428D02*
X89728571Y-151709619D01*
X89728571Y-151709619D02*
X89804761Y-151785809D01*
X89804761Y-151785809D02*
X89919047Y-151823904D01*
X89919047Y-151823904D02*
X89995238Y-151823904D01*
X89995238Y-151823904D02*
X90109523Y-151785809D01*
X90109523Y-151785809D02*
X90147619Y-151747714D01*
X90147619Y-151747714D02*
X90147619Y-151481047D01*
X90147619Y-151481047D02*
X89995238Y-151481047D01*
X90490476Y-151823904D02*
X90490476Y-151023904D01*
X90490476Y-151023904D02*
X90795238Y-151023904D01*
X90795238Y-151023904D02*
X90871428Y-151062000D01*
X90871428Y-151062000D02*
X90909523Y-151100095D01*
X90909523Y-151100095D02*
X90947619Y-151176285D01*
X90947619Y-151176285D02*
X90947619Y-151290571D01*
X90947619Y-151290571D02*
X90909523Y-151366761D01*
X90909523Y-151366761D02*
X90871428Y-151404857D01*
X90871428Y-151404857D02*
X90795238Y-151442952D01*
X90795238Y-151442952D02*
X90490476Y-151442952D01*
X91290476Y-151823904D02*
X91290476Y-151023904D01*
X91823809Y-151023904D02*
X91976190Y-151023904D01*
X91976190Y-151023904D02*
X92052380Y-151062000D01*
X92052380Y-151062000D02*
X92128571Y-151138190D01*
X92128571Y-151138190D02*
X92166666Y-151290571D01*
X92166666Y-151290571D02*
X92166666Y-151557238D01*
X92166666Y-151557238D02*
X92128571Y-151709619D01*
X92128571Y-151709619D02*
X92052380Y-151785809D01*
X92052380Y-151785809D02*
X91976190Y-151823904D01*
X91976190Y-151823904D02*
X91823809Y-151823904D01*
X91823809Y-151823904D02*
X91747618Y-151785809D01*
X91747618Y-151785809D02*
X91671428Y-151709619D01*
X91671428Y-151709619D02*
X91633332Y-151557238D01*
X91633332Y-151557238D02*
X91633332Y-151290571D01*
X91633332Y-151290571D02*
X91671428Y-151138190D01*
X91671428Y-151138190D02*
X91747618Y-151062000D01*
X91747618Y-151062000D02*
X91823809Y-151023904D01*
X92433332Y-151023904D02*
X92928570Y-151023904D01*
X92928570Y-151023904D02*
X92661904Y-151328666D01*
X92661904Y-151328666D02*
X92776189Y-151328666D01*
X92776189Y-151328666D02*
X92852380Y-151366761D01*
X92852380Y-151366761D02*
X92890475Y-151404857D01*
X92890475Y-151404857D02*
X92928570Y-151481047D01*
X92928570Y-151481047D02*
X92928570Y-151671523D01*
X92928570Y-151671523D02*
X92890475Y-151747714D01*
X92890475Y-151747714D02*
X92852380Y-151785809D01*
X92852380Y-151785809D02*
X92776189Y-151823904D01*
X92776189Y-151823904D02*
X92547618Y-151823904D01*
X92547618Y-151823904D02*
X92471427Y-151785809D01*
X92471427Y-151785809D02*
X92433332Y-151747714D01*
X93195237Y-151023904D02*
X93690475Y-151023904D01*
X93690475Y-151023904D02*
X93423809Y-151328666D01*
X93423809Y-151328666D02*
X93538094Y-151328666D01*
X93538094Y-151328666D02*
X93614285Y-151366761D01*
X93614285Y-151366761D02*
X93652380Y-151404857D01*
X93652380Y-151404857D02*
X93690475Y-151481047D01*
X93690475Y-151481047D02*
X93690475Y-151671523D01*
X93690475Y-151671523D02*
X93652380Y-151747714D01*
X93652380Y-151747714D02*
X93614285Y-151785809D01*
X93614285Y-151785809D02*
X93538094Y-151823904D01*
X93538094Y-151823904D02*
X93309523Y-151823904D01*
X93309523Y-151823904D02*
X93233332Y-151785809D01*
X93233332Y-151785809D02*
X93195237Y-151747714D01*
X94475237Y-151595333D02*
X94856190Y-151595333D01*
X94399047Y-151823904D02*
X94665714Y-151023904D01*
X94665714Y-151023904D02*
X94932380Y-151823904D01*
X95199047Y-151823904D02*
X95199047Y-151023904D01*
X95199047Y-151023904D02*
X95389523Y-151023904D01*
X95389523Y-151023904D02*
X95503809Y-151062000D01*
X95503809Y-151062000D02*
X95579999Y-151138190D01*
X95579999Y-151138190D02*
X95618094Y-151214380D01*
X95618094Y-151214380D02*
X95656190Y-151366761D01*
X95656190Y-151366761D02*
X95656190Y-151481047D01*
X95656190Y-151481047D02*
X95618094Y-151633428D01*
X95618094Y-151633428D02*
X95579999Y-151709619D01*
X95579999Y-151709619D02*
X95503809Y-151785809D01*
X95503809Y-151785809D02*
X95389523Y-151823904D01*
X95389523Y-151823904D02*
X95199047Y-151823904D01*
X96456190Y-151747714D02*
X96418094Y-151785809D01*
X96418094Y-151785809D02*
X96303809Y-151823904D01*
X96303809Y-151823904D02*
X96227618Y-151823904D01*
X96227618Y-151823904D02*
X96113332Y-151785809D01*
X96113332Y-151785809D02*
X96037142Y-151709619D01*
X96037142Y-151709619D02*
X95999047Y-151633428D01*
X95999047Y-151633428D02*
X95960951Y-151481047D01*
X95960951Y-151481047D02*
X95960951Y-151366761D01*
X95960951Y-151366761D02*
X95999047Y-151214380D01*
X95999047Y-151214380D02*
X96037142Y-151138190D01*
X96037142Y-151138190D02*
X96113332Y-151062000D01*
X96113332Y-151062000D02*
X96227618Y-151023904D01*
X96227618Y-151023904D02*
X96303809Y-151023904D01*
X96303809Y-151023904D02*
X96418094Y-151062000D01*
X96418094Y-151062000D02*
X96456190Y-151100095D01*
X99941429Y-163832000D02*
X99865239Y-163793904D01*
X99865239Y-163793904D02*
X99750953Y-163793904D01*
X99750953Y-163793904D02*
X99636667Y-163832000D01*
X99636667Y-163832000D02*
X99560477Y-163908190D01*
X99560477Y-163908190D02*
X99522382Y-163984380D01*
X99522382Y-163984380D02*
X99484286Y-164136761D01*
X99484286Y-164136761D02*
X99484286Y-164251047D01*
X99484286Y-164251047D02*
X99522382Y-164403428D01*
X99522382Y-164403428D02*
X99560477Y-164479619D01*
X99560477Y-164479619D02*
X99636667Y-164555809D01*
X99636667Y-164555809D02*
X99750953Y-164593904D01*
X99750953Y-164593904D02*
X99827144Y-164593904D01*
X99827144Y-164593904D02*
X99941429Y-164555809D01*
X99941429Y-164555809D02*
X99979525Y-164517714D01*
X99979525Y-164517714D02*
X99979525Y-164251047D01*
X99979525Y-164251047D02*
X99827144Y-164251047D01*
X100322382Y-164593904D02*
X100322382Y-163793904D01*
X100322382Y-163793904D02*
X100627144Y-163793904D01*
X100627144Y-163793904D02*
X100703334Y-163832000D01*
X100703334Y-163832000D02*
X100741429Y-163870095D01*
X100741429Y-163870095D02*
X100779525Y-163946285D01*
X100779525Y-163946285D02*
X100779525Y-164060571D01*
X100779525Y-164060571D02*
X100741429Y-164136761D01*
X100741429Y-164136761D02*
X100703334Y-164174857D01*
X100703334Y-164174857D02*
X100627144Y-164212952D01*
X100627144Y-164212952D02*
X100322382Y-164212952D01*
X101122382Y-164593904D02*
X101122382Y-163793904D01*
X101655715Y-163793904D02*
X101808096Y-163793904D01*
X101808096Y-163793904D02*
X101884286Y-163832000D01*
X101884286Y-163832000D02*
X101960477Y-163908190D01*
X101960477Y-163908190D02*
X101998572Y-164060571D01*
X101998572Y-164060571D02*
X101998572Y-164327238D01*
X101998572Y-164327238D02*
X101960477Y-164479619D01*
X101960477Y-164479619D02*
X101884286Y-164555809D01*
X101884286Y-164555809D02*
X101808096Y-164593904D01*
X101808096Y-164593904D02*
X101655715Y-164593904D01*
X101655715Y-164593904D02*
X101579524Y-164555809D01*
X101579524Y-164555809D02*
X101503334Y-164479619D01*
X101503334Y-164479619D02*
X101465238Y-164327238D01*
X101465238Y-164327238D02*
X101465238Y-164060571D01*
X101465238Y-164060571D02*
X101503334Y-163908190D01*
X101503334Y-163908190D02*
X101579524Y-163832000D01*
X101579524Y-163832000D02*
X101655715Y-163793904D01*
X102684286Y-164060571D02*
X102684286Y-164593904D01*
X102493810Y-163755809D02*
X102303333Y-164327238D01*
X102303333Y-164327238D02*
X102798572Y-164327238D01*
X103674762Y-163755809D02*
X102989048Y-164784380D01*
X103941429Y-164593904D02*
X103941429Y-163793904D01*
X104284285Y-163870095D02*
X104322381Y-163832000D01*
X104322381Y-163832000D02*
X104398571Y-163793904D01*
X104398571Y-163793904D02*
X104589047Y-163793904D01*
X104589047Y-163793904D02*
X104665238Y-163832000D01*
X104665238Y-163832000D02*
X104703333Y-163870095D01*
X104703333Y-163870095D02*
X104741428Y-163946285D01*
X104741428Y-163946285D02*
X104741428Y-164022476D01*
X104741428Y-164022476D02*
X104703333Y-164136761D01*
X104703333Y-164136761D02*
X104246190Y-164593904D01*
X104246190Y-164593904D02*
X104741428Y-164593904D01*
X105541429Y-164517714D02*
X105503333Y-164555809D01*
X105503333Y-164555809D02*
X105389048Y-164593904D01*
X105389048Y-164593904D02*
X105312857Y-164593904D01*
X105312857Y-164593904D02*
X105198571Y-164555809D01*
X105198571Y-164555809D02*
X105122381Y-164479619D01*
X105122381Y-164479619D02*
X105084286Y-164403428D01*
X105084286Y-164403428D02*
X105046190Y-164251047D01*
X105046190Y-164251047D02*
X105046190Y-164136761D01*
X105046190Y-164136761D02*
X105084286Y-163984380D01*
X105084286Y-163984380D02*
X105122381Y-163908190D01*
X105122381Y-163908190D02*
X105198571Y-163832000D01*
X105198571Y-163832000D02*
X105312857Y-163793904D01*
X105312857Y-163793904D02*
X105389048Y-163793904D01*
X105389048Y-163793904D02*
X105503333Y-163832000D01*
X105503333Y-163832000D02*
X105541429Y-163870095D01*
X106250000Y-163793904D02*
X106707143Y-163793904D01*
X106478571Y-164593904D02*
X106478571Y-163793904D01*
X107126191Y-163793904D02*
X107278572Y-163793904D01*
X107278572Y-163793904D02*
X107354762Y-163832000D01*
X107354762Y-163832000D02*
X107430953Y-163908190D01*
X107430953Y-163908190D02*
X107469048Y-164060571D01*
X107469048Y-164060571D02*
X107469048Y-164327238D01*
X107469048Y-164327238D02*
X107430953Y-164479619D01*
X107430953Y-164479619D02*
X107354762Y-164555809D01*
X107354762Y-164555809D02*
X107278572Y-164593904D01*
X107278572Y-164593904D02*
X107126191Y-164593904D01*
X107126191Y-164593904D02*
X107050000Y-164555809D01*
X107050000Y-164555809D02*
X106973810Y-164479619D01*
X106973810Y-164479619D02*
X106935714Y-164327238D01*
X106935714Y-164327238D02*
X106935714Y-164060571D01*
X106935714Y-164060571D02*
X106973810Y-163908190D01*
X106973810Y-163908190D02*
X107050000Y-163832000D01*
X107050000Y-163832000D02*
X107126191Y-163793904D01*
X107811905Y-164289142D02*
X108421429Y-164289142D01*
X108802381Y-164593904D02*
X108802381Y-163793904D01*
X108802381Y-163793904D02*
X108992857Y-163793904D01*
X108992857Y-163793904D02*
X109107143Y-163832000D01*
X109107143Y-163832000D02*
X109183333Y-163908190D01*
X109183333Y-163908190D02*
X109221428Y-163984380D01*
X109221428Y-163984380D02*
X109259524Y-164136761D01*
X109259524Y-164136761D02*
X109259524Y-164251047D01*
X109259524Y-164251047D02*
X109221428Y-164403428D01*
X109221428Y-164403428D02*
X109183333Y-164479619D01*
X109183333Y-164479619D02*
X109107143Y-164555809D01*
X109107143Y-164555809D02*
X108992857Y-164593904D01*
X108992857Y-164593904D02*
X108802381Y-164593904D01*
X109754762Y-163793904D02*
X109907143Y-163793904D01*
X109907143Y-163793904D02*
X109983333Y-163832000D01*
X109983333Y-163832000D02*
X110059524Y-163908190D01*
X110059524Y-163908190D02*
X110097619Y-164060571D01*
X110097619Y-164060571D02*
X110097619Y-164327238D01*
X110097619Y-164327238D02*
X110059524Y-164479619D01*
X110059524Y-164479619D02*
X109983333Y-164555809D01*
X109983333Y-164555809D02*
X109907143Y-164593904D01*
X109907143Y-164593904D02*
X109754762Y-164593904D01*
X109754762Y-164593904D02*
X109678571Y-164555809D01*
X109678571Y-164555809D02*
X109602381Y-164479619D01*
X109602381Y-164479619D02*
X109564285Y-164327238D01*
X109564285Y-164327238D02*
X109564285Y-164060571D01*
X109564285Y-164060571D02*
X109602381Y-163908190D01*
X109602381Y-163908190D02*
X109678571Y-163832000D01*
X109678571Y-163832000D02*
X109754762Y-163793904D01*
X107278571Y-156212000D02*
X107202381Y-156173904D01*
X107202381Y-156173904D02*
X107088095Y-156173904D01*
X107088095Y-156173904D02*
X106973809Y-156212000D01*
X106973809Y-156212000D02*
X106897619Y-156288190D01*
X106897619Y-156288190D02*
X106859524Y-156364380D01*
X106859524Y-156364380D02*
X106821428Y-156516761D01*
X106821428Y-156516761D02*
X106821428Y-156631047D01*
X106821428Y-156631047D02*
X106859524Y-156783428D01*
X106859524Y-156783428D02*
X106897619Y-156859619D01*
X106897619Y-156859619D02*
X106973809Y-156935809D01*
X106973809Y-156935809D02*
X107088095Y-156973904D01*
X107088095Y-156973904D02*
X107164286Y-156973904D01*
X107164286Y-156973904D02*
X107278571Y-156935809D01*
X107278571Y-156935809D02*
X107316667Y-156897714D01*
X107316667Y-156897714D02*
X107316667Y-156631047D01*
X107316667Y-156631047D02*
X107164286Y-156631047D01*
X107659524Y-156973904D02*
X107659524Y-156173904D01*
X107659524Y-156173904D02*
X107964286Y-156173904D01*
X107964286Y-156173904D02*
X108040476Y-156212000D01*
X108040476Y-156212000D02*
X108078571Y-156250095D01*
X108078571Y-156250095D02*
X108116667Y-156326285D01*
X108116667Y-156326285D02*
X108116667Y-156440571D01*
X108116667Y-156440571D02*
X108078571Y-156516761D01*
X108078571Y-156516761D02*
X108040476Y-156554857D01*
X108040476Y-156554857D02*
X107964286Y-156592952D01*
X107964286Y-156592952D02*
X107659524Y-156592952D01*
X108459524Y-156973904D02*
X108459524Y-156173904D01*
X108992857Y-156173904D02*
X109145238Y-156173904D01*
X109145238Y-156173904D02*
X109221428Y-156212000D01*
X109221428Y-156212000D02*
X109297619Y-156288190D01*
X109297619Y-156288190D02*
X109335714Y-156440571D01*
X109335714Y-156440571D02*
X109335714Y-156707238D01*
X109335714Y-156707238D02*
X109297619Y-156859619D01*
X109297619Y-156859619D02*
X109221428Y-156935809D01*
X109221428Y-156935809D02*
X109145238Y-156973904D01*
X109145238Y-156973904D02*
X108992857Y-156973904D01*
X108992857Y-156973904D02*
X108916666Y-156935809D01*
X108916666Y-156935809D02*
X108840476Y-156859619D01*
X108840476Y-156859619D02*
X108802380Y-156707238D01*
X108802380Y-156707238D02*
X108802380Y-156440571D01*
X108802380Y-156440571D02*
X108840476Y-156288190D01*
X108840476Y-156288190D02*
X108916666Y-156212000D01*
X108916666Y-156212000D02*
X108992857Y-156173904D01*
X110059523Y-156173904D02*
X109678571Y-156173904D01*
X109678571Y-156173904D02*
X109640475Y-156554857D01*
X109640475Y-156554857D02*
X109678571Y-156516761D01*
X109678571Y-156516761D02*
X109754761Y-156478666D01*
X109754761Y-156478666D02*
X109945237Y-156478666D01*
X109945237Y-156478666D02*
X110021428Y-156516761D01*
X110021428Y-156516761D02*
X110059523Y-156554857D01*
X110059523Y-156554857D02*
X110097618Y-156631047D01*
X110097618Y-156631047D02*
X110097618Y-156821523D01*
X110097618Y-156821523D02*
X110059523Y-156897714D01*
X110059523Y-156897714D02*
X110021428Y-156935809D01*
X110021428Y-156935809D02*
X109945237Y-156973904D01*
X109945237Y-156973904D02*
X109754761Y-156973904D01*
X109754761Y-156973904D02*
X109678571Y-156935809D01*
X109678571Y-156935809D02*
X109640475Y-156897714D01*
X106516666Y-146032000D02*
X106440476Y-145993904D01*
X106440476Y-145993904D02*
X106326190Y-145993904D01*
X106326190Y-145993904D02*
X106211904Y-146032000D01*
X106211904Y-146032000D02*
X106135714Y-146108190D01*
X106135714Y-146108190D02*
X106097619Y-146184380D01*
X106097619Y-146184380D02*
X106059523Y-146336761D01*
X106059523Y-146336761D02*
X106059523Y-146451047D01*
X106059523Y-146451047D02*
X106097619Y-146603428D01*
X106097619Y-146603428D02*
X106135714Y-146679619D01*
X106135714Y-146679619D02*
X106211904Y-146755809D01*
X106211904Y-146755809D02*
X106326190Y-146793904D01*
X106326190Y-146793904D02*
X106402381Y-146793904D01*
X106402381Y-146793904D02*
X106516666Y-146755809D01*
X106516666Y-146755809D02*
X106554762Y-146717714D01*
X106554762Y-146717714D02*
X106554762Y-146451047D01*
X106554762Y-146451047D02*
X106402381Y-146451047D01*
X106897619Y-146793904D02*
X106897619Y-145993904D01*
X106897619Y-145993904D02*
X107202381Y-145993904D01*
X107202381Y-145993904D02*
X107278571Y-146032000D01*
X107278571Y-146032000D02*
X107316666Y-146070095D01*
X107316666Y-146070095D02*
X107354762Y-146146285D01*
X107354762Y-146146285D02*
X107354762Y-146260571D01*
X107354762Y-146260571D02*
X107316666Y-146336761D01*
X107316666Y-146336761D02*
X107278571Y-146374857D01*
X107278571Y-146374857D02*
X107202381Y-146412952D01*
X107202381Y-146412952D02*
X106897619Y-146412952D01*
X107697619Y-146793904D02*
X107697619Y-145993904D01*
X108230952Y-145993904D02*
X108383333Y-145993904D01*
X108383333Y-145993904D02*
X108459523Y-146032000D01*
X108459523Y-146032000D02*
X108535714Y-146108190D01*
X108535714Y-146108190D02*
X108573809Y-146260571D01*
X108573809Y-146260571D02*
X108573809Y-146527238D01*
X108573809Y-146527238D02*
X108535714Y-146679619D01*
X108535714Y-146679619D02*
X108459523Y-146755809D01*
X108459523Y-146755809D02*
X108383333Y-146793904D01*
X108383333Y-146793904D02*
X108230952Y-146793904D01*
X108230952Y-146793904D02*
X108154761Y-146755809D01*
X108154761Y-146755809D02*
X108078571Y-146679619D01*
X108078571Y-146679619D02*
X108040475Y-146527238D01*
X108040475Y-146527238D02*
X108040475Y-146260571D01*
X108040475Y-146260571D02*
X108078571Y-146108190D01*
X108078571Y-146108190D02*
X108154761Y-146032000D01*
X108154761Y-146032000D02*
X108230952Y-145993904D01*
X108878570Y-146070095D02*
X108916666Y-146032000D01*
X108916666Y-146032000D02*
X108992856Y-145993904D01*
X108992856Y-145993904D02*
X109183332Y-145993904D01*
X109183332Y-145993904D02*
X109259523Y-146032000D01*
X109259523Y-146032000D02*
X109297618Y-146070095D01*
X109297618Y-146070095D02*
X109335713Y-146146285D01*
X109335713Y-146146285D02*
X109335713Y-146222476D01*
X109335713Y-146222476D02*
X109297618Y-146336761D01*
X109297618Y-146336761D02*
X108840475Y-146793904D01*
X108840475Y-146793904D02*
X109335713Y-146793904D01*
X110097618Y-146793904D02*
X109640475Y-146793904D01*
X109869047Y-146793904D02*
X109869047Y-145993904D01*
X109869047Y-145993904D02*
X109792856Y-146108190D01*
X109792856Y-146108190D02*
X109716666Y-146184380D01*
X109716666Y-146184380D02*
X109640475Y-146222476D01*
%TO.C,R2*%
X129617380Y-171726666D02*
X129141190Y-172059999D01*
X129617380Y-172298094D02*
X128617380Y-172298094D01*
X128617380Y-172298094D02*
X128617380Y-171917142D01*
X128617380Y-171917142D02*
X128665000Y-171821904D01*
X128665000Y-171821904D02*
X128712619Y-171774285D01*
X128712619Y-171774285D02*
X128807857Y-171726666D01*
X128807857Y-171726666D02*
X128950714Y-171726666D01*
X128950714Y-171726666D02*
X129045952Y-171774285D01*
X129045952Y-171774285D02*
X129093571Y-171821904D01*
X129093571Y-171821904D02*
X129141190Y-171917142D01*
X129141190Y-171917142D02*
X129141190Y-172298094D01*
X128712619Y-171345713D02*
X128665000Y-171298094D01*
X128665000Y-171298094D02*
X128617380Y-171202856D01*
X128617380Y-171202856D02*
X128617380Y-170964761D01*
X128617380Y-170964761D02*
X128665000Y-170869523D01*
X128665000Y-170869523D02*
X128712619Y-170821904D01*
X128712619Y-170821904D02*
X128807857Y-170774285D01*
X128807857Y-170774285D02*
X128903095Y-170774285D01*
X128903095Y-170774285D02*
X129045952Y-170821904D01*
X129045952Y-170821904D02*
X129617380Y-171393332D01*
X129617380Y-171393332D02*
X129617380Y-170774285D01*
%TO.C,R1*%
X120833333Y-177867380D02*
X120500000Y-177391190D01*
X120261905Y-177867380D02*
X120261905Y-176867380D01*
X120261905Y-176867380D02*
X120642857Y-176867380D01*
X120642857Y-176867380D02*
X120738095Y-176915000D01*
X120738095Y-176915000D02*
X120785714Y-176962619D01*
X120785714Y-176962619D02*
X120833333Y-177057857D01*
X120833333Y-177057857D02*
X120833333Y-177200714D01*
X120833333Y-177200714D02*
X120785714Y-177295952D01*
X120785714Y-177295952D02*
X120738095Y-177343571D01*
X120738095Y-177343571D02*
X120642857Y-177391190D01*
X120642857Y-177391190D02*
X120261905Y-177391190D01*
X121785714Y-177867380D02*
X121214286Y-177867380D01*
X121500000Y-177867380D02*
X121500000Y-176867380D01*
X121500000Y-176867380D02*
X121404762Y-177010238D01*
X121404762Y-177010238D02*
X121309524Y-177105476D01*
X121309524Y-177105476D02*
X121214286Y-177153095D01*
%TO.C,G\u002A\u002A\u002A*%
G36*
X96933333Y-137280790D02*
G01*
X96900000Y-137314211D01*
X96866666Y-137280790D01*
X96900000Y-137247369D01*
X96933333Y-137280790D01*
G37*
G36*
X103466666Y-136679211D02*
G01*
X103433333Y-136712632D01*
X103400000Y-136679211D01*
X103433333Y-136645790D01*
X103466666Y-136679211D01*
G37*
G36*
X103244444Y-136668070D02*
G01*
X103252423Y-136747396D01*
X103244444Y-136757193D01*
X103204811Y-136748018D01*
X103200000Y-136712632D01*
X103224392Y-136657613D01*
X103244444Y-136668070D01*
G37*
G36*
X97708374Y-136315085D02*
G01*
X98366666Y-136315085D01*
X98633333Y-136441605D01*
X98797861Y-136519156D01*
X98901323Y-136566956D01*
X98916666Y-136573537D01*
X98930193Y-136522107D01*
X98931784Y-136483166D01*
X98998948Y-136483166D01*
X99078784Y-136638180D01*
X99276274Y-136815123D01*
X99295311Y-136828758D01*
X99506170Y-137004753D01*
X99727475Y-137230324D01*
X99845311Y-137371723D01*
X100009438Y-137567419D01*
X100142226Y-137659827D01*
X100279120Y-137661365D01*
X100454400Y-137585078D01*
X100463833Y-137513959D01*
X100398431Y-137376480D01*
X100278437Y-137200007D01*
X100124092Y-137011905D01*
X99955640Y-136839539D01*
X99821329Y-136729240D01*
X99614751Y-136596477D01*
X99399740Y-136478986D01*
X99209780Y-136392664D01*
X99078354Y-136353412D01*
X99041588Y-136359004D01*
X98998948Y-136483166D01*
X98931784Y-136483166D01*
X98933333Y-136445263D01*
X98912720Y-136360039D01*
X98827853Y-136321436D01*
X98650000Y-136313332D01*
X98366666Y-136315085D01*
X97708374Y-136315085D01*
X97985131Y-136148593D01*
X98328887Y-136060095D01*
X98678847Y-136066630D01*
X98721515Y-136075029D01*
X98870835Y-136090133D01*
X98940000Y-136036755D01*
X98953264Y-135998142D01*
X98979057Y-135921172D01*
X98991101Y-135972129D01*
X98992266Y-135987698D01*
X99050816Y-136076246D01*
X99195605Y-136196605D01*
X99368626Y-136306879D01*
X99688844Y-136522494D01*
X100023937Y-136804403D01*
X100325159Y-137108576D01*
X100506283Y-137334455D01*
X100636830Y-137521805D01*
X101831722Y-137116096D01*
X102209870Y-136990259D01*
X102546255Y-136883165D01*
X102819986Y-136801070D01*
X103010174Y-136750234D01*
X103095930Y-136736914D01*
X103096639Y-136737148D01*
X103109309Y-136777304D01*
X103066666Y-136801879D01*
X102968885Y-136838820D01*
X102773376Y-136912546D01*
X102507232Y-137012845D01*
X102197547Y-137129503D01*
X102153293Y-137146169D01*
X101814633Y-137275302D01*
X101491702Y-137401255D01*
X101220788Y-137509702D01*
X101038180Y-137586317D01*
X101036546Y-137587041D01*
X100733172Y-137721590D01*
X100834964Y-137918953D01*
X100936757Y-138116316D01*
X102385045Y-138131624D01*
X103833333Y-138146933D01*
X102416666Y-138166375D01*
X101949200Y-138175709D01*
X101560355Y-138189394D01*
X101263601Y-138206635D01*
X101072410Y-138226638D01*
X101000250Y-138248606D01*
X101000000Y-138250000D01*
X101064419Y-138272063D01*
X101248696Y-138292209D01*
X101539362Y-138309643D01*
X101922946Y-138323569D01*
X102385977Y-138333193D01*
X102416666Y-138333626D01*
X103833333Y-138353068D01*
X102426276Y-138368376D01*
X101019220Y-138383684D01*
X101020640Y-138834869D01*
X100988825Y-139256601D01*
X100883634Y-139585559D01*
X100694944Y-139846652D01*
X100562423Y-139962373D01*
X100416746Y-140063114D01*
X100278765Y-140121143D01*
X100103408Y-140147930D01*
X99845600Y-140154943D01*
X99805349Y-140155000D01*
X99545149Y-140150748D01*
X99327692Y-140139534D01*
X99195718Y-140123671D01*
X99187705Y-140121579D01*
X99082634Y-140124416D01*
X99054371Y-140154344D01*
X99096127Y-140212365D01*
X99226057Y-140261802D01*
X99233333Y-140263409D01*
X99433333Y-140306289D01*
X99247851Y-140314197D01*
X99073423Y-140371503D01*
X99002077Y-140472500D01*
X98941784Y-140622895D01*
X98937559Y-140477400D01*
X98900154Y-140373831D01*
X98779057Y-140273359D01*
X98564585Y-140162643D01*
X98331168Y-140029581D01*
X98062356Y-139837953D01*
X97813279Y-139627343D01*
X97795182Y-139610215D01*
X97394528Y-139227049D01*
X97180597Y-139350365D01*
X97029992Y-139441173D01*
X96805449Y-139581313D01*
X96544718Y-139747100D01*
X96414372Y-139831051D01*
X96145658Y-139999909D01*
X95949343Y-140105728D01*
X95789067Y-140162801D01*
X95628469Y-140185422D01*
X95505259Y-140188421D01*
X95267243Y-140208081D01*
X94962016Y-140260099D01*
X94648678Y-140334030D01*
X94593830Y-140349481D01*
X94333378Y-140423390D01*
X94184249Y-140459388D01*
X94130354Y-140458960D01*
X94155606Y-140423588D01*
X94202944Y-140385531D01*
X94377305Y-140267429D01*
X94644298Y-140104933D01*
X94977062Y-139912957D01*
X95348738Y-139706418D01*
X95732464Y-139500232D01*
X96101381Y-139309314D01*
X96428628Y-139148582D01*
X96440609Y-139142927D01*
X96709529Y-139015497D01*
X96930090Y-138909607D01*
X97076635Y-138837664D01*
X97123611Y-138812673D01*
X97121843Y-138742960D01*
X97084858Y-138605099D01*
X97022495Y-138417105D01*
X96027914Y-138380957D01*
X95033333Y-138344809D01*
X95983333Y-138330826D01*
X96353508Y-138321017D01*
X96646665Y-138304431D01*
X96845110Y-138282538D01*
X96931149Y-138256809D01*
X96933333Y-138251835D01*
X96869748Y-138225387D01*
X96691311Y-138201527D01*
X96416504Y-138181918D01*
X96063803Y-138168225D01*
X95983333Y-138166295D01*
X95033333Y-138145761D01*
X95972151Y-138131039D01*
X96910969Y-138116316D01*
X96892136Y-137731974D01*
X96873302Y-137347632D01*
X96934031Y-137730186D01*
X97091061Y-138337068D01*
X97354809Y-138894251D01*
X97712113Y-139382844D01*
X98149809Y-139783956D01*
X98528723Y-140018974D01*
X98742068Y-140125119D01*
X98863190Y-140174296D01*
X98918109Y-140171303D01*
X98932850Y-140120942D01*
X98933333Y-140093610D01*
X98881070Y-140000197D01*
X98751527Y-139887660D01*
X98712087Y-139861701D01*
X98558987Y-139746554D01*
X98356425Y-139567426D01*
X98144085Y-139359742D01*
X98109757Y-139324026D01*
X97769722Y-138901820D01*
X97715627Y-138805857D01*
X98266666Y-138805857D01*
X98312195Y-138884374D01*
X98431071Y-139020721D01*
X98583333Y-139171740D01*
X98900000Y-139467822D01*
X98910094Y-139239629D01*
X99007742Y-139239629D01*
X99016280Y-139411464D01*
X99045173Y-139510644D01*
X99099952Y-139567520D01*
X99126715Y-139583291D01*
X99449450Y-139703102D01*
X99797464Y-139745309D01*
X100126606Y-139709564D01*
X100392723Y-139595518D01*
X100395880Y-139593300D01*
X100643305Y-139364361D01*
X100780081Y-139091421D01*
X100823546Y-138776267D01*
X100833333Y-138417105D01*
X100607655Y-138395486D01*
X100459246Y-138390418D01*
X100413044Y-138426178D01*
X100430504Y-138495749D01*
X100463857Y-138628920D01*
X100497252Y-138839586D01*
X100514566Y-138992296D01*
X100529305Y-139212481D01*
X100513438Y-139343354D01*
X100456257Y-139427792D01*
X100393550Y-139476901D01*
X100225062Y-139574954D01*
X100143681Y-139572137D01*
X100150284Y-139469102D01*
X100207186Y-139338762D01*
X100287745Y-139110512D01*
X100327798Y-138851899D01*
X100323159Y-138615584D01*
X100276674Y-138464473D01*
X100202030Y-138420250D01*
X100036702Y-138397401D01*
X99763224Y-138394129D01*
X99627695Y-138397631D01*
X99033333Y-138417105D01*
X99014031Y-138964787D01*
X99007742Y-139239629D01*
X98910094Y-139239629D01*
X98919892Y-139018110D01*
X98925458Y-138786580D01*
X98920876Y-138613164D01*
X98907276Y-138535804D01*
X98826494Y-138534796D01*
X98675955Y-138579691D01*
X98502137Y-138650896D01*
X98351515Y-138728817D01*
X98270569Y-138793861D01*
X98266666Y-138805857D01*
X97715627Y-138805857D01*
X97515384Y-138450630D01*
X97443204Y-138250000D01*
X97933333Y-138250000D01*
X97992476Y-138291857D01*
X98140224Y-138315138D01*
X98200000Y-138316842D01*
X98366987Y-138302018D01*
X98459866Y-138264983D01*
X98466666Y-138250000D01*
X99500000Y-138250000D01*
X99534332Y-138290074D01*
X99685956Y-138312811D01*
X99829398Y-138316842D01*
X100031420Y-138305964D01*
X100166026Y-138277877D01*
X100200000Y-138250000D01*
X100400000Y-138250000D01*
X100457931Y-138296932D01*
X100597511Y-138316837D01*
X100600000Y-138316842D01*
X100740426Y-138297481D01*
X100799984Y-138250832D01*
X100800000Y-138250000D01*
X100742068Y-138203068D01*
X100602488Y-138183163D01*
X100600000Y-138183158D01*
X100459573Y-138202519D01*
X100400015Y-138249169D01*
X100400000Y-138250000D01*
X100200000Y-138250000D01*
X100140082Y-138211678D01*
X99987059Y-138187497D01*
X99870601Y-138183158D01*
X99671781Y-138195644D01*
X99533321Y-138227443D01*
X99500000Y-138250000D01*
X98466666Y-138250000D01*
X98407523Y-138208143D01*
X98259775Y-138184863D01*
X98200000Y-138183158D01*
X98033012Y-138197983D01*
X97940133Y-138235017D01*
X97933333Y-138250000D01*
X97443204Y-138250000D01*
X97349238Y-137988812D01*
X97273776Y-137534717D01*
X97279962Y-137385282D01*
X97748256Y-137385282D01*
X97751292Y-137668772D01*
X97782643Y-137910257D01*
X97830535Y-138044935D01*
X97916019Y-138080156D01*
X98103669Y-138105173D01*
X98362467Y-138116125D01*
X98403934Y-138116316D01*
X98933333Y-138116316D01*
X98933333Y-138098231D01*
X99880977Y-138098231D01*
X99947191Y-138114549D01*
X99983333Y-138115292D01*
X100100381Y-138090930D01*
X100133333Y-138049474D01*
X100091365Y-137987277D01*
X99969942Y-138027089D01*
X99933333Y-138049474D01*
X99880977Y-138098231D01*
X98933333Y-138098231D01*
X98933333Y-137447895D01*
X99000000Y-137447895D01*
X99005524Y-137712812D01*
X99020320Y-137918207D01*
X99041727Y-138034258D01*
X99053721Y-138049474D01*
X99140441Y-138029460D01*
X99314220Y-137977183D01*
X99323260Y-137974222D01*
X100243097Y-137974222D01*
X100244949Y-138022300D01*
X100323368Y-138084641D01*
X100463190Y-138114244D01*
X100611194Y-138109968D01*
X100714161Y-138070670D01*
X100732312Y-138032763D01*
X100697746Y-137904266D01*
X100671803Y-137854992D01*
X100579241Y-137807888D01*
X100443459Y-137825180D01*
X100314673Y-137887186D01*
X100243097Y-137974222D01*
X99323260Y-137974222D01*
X99520388Y-137909653D01*
X99731382Y-137826347D01*
X99880220Y-137744925D01*
X99933333Y-137685881D01*
X99887038Y-137602506D01*
X99767153Y-137460914D01*
X99602182Y-137288873D01*
X99420627Y-137114153D01*
X99250990Y-136964524D01*
X99121773Y-136867755D01*
X99071615Y-136846316D01*
X99034055Y-136911231D01*
X99009835Y-137099385D01*
X99000133Y-137400888D01*
X99000000Y-137447895D01*
X98933333Y-137447895D01*
X98933333Y-137420380D01*
X98933333Y-136724444D01*
X98517864Y-136589541D01*
X98260246Y-136515173D01*
X98091937Y-136505599D01*
X97978624Y-136575530D01*
X97885995Y-136739673D01*
X97827621Y-136885431D01*
X97773659Y-137108073D01*
X97748256Y-137385282D01*
X97279962Y-137385282D01*
X97291493Y-137106701D01*
X97404882Y-136723115D01*
X97616436Y-136402316D01*
X97701514Y-136319212D01*
X97708374Y-136315085D01*
G37*
D14*
%TO.C,D2*%
X81500000Y-141960772D02*
G75*
G03*
X79432018Y-141901253I-1000000J1210772D01*
G01*
%TO.C,D1*%
X80750000Y-179289228D02*
G75*
G03*
X82817982Y-179348747I1000000J-1210772D01*
G01*
%TO.C,C1*%
X121445000Y-133091000D02*
X115555000Y-133091000D01*
X122542000Y-130810000D02*
X114458000Y-130810000D01*
X117460000Y-131091000D02*
X114506000Y-131091000D01*
X122576000Y-130450000D02*
X114424000Y-130450000D01*
X122561000Y-130650000D02*
X114439000Y-130650000D01*
X117460000Y-131531000D02*
X114623000Y-131531000D01*
X120787000Y-133651000D02*
X116213000Y-133651000D01*
X122350000Y-131611000D02*
X119540000Y-131611000D01*
X122447000Y-131291000D02*
X119540000Y-131291000D01*
X120145000Y-134011000D02*
X116855000Y-134011000D01*
X121005000Y-133491000D02*
X115995000Y-133491000D01*
X122577000Y-130410000D02*
X114423000Y-130410000D01*
X117460000Y-132291000D02*
X114960000Y-132291000D01*
X117460000Y-131211000D02*
X114533000Y-131211000D01*
X117460000Y-131811000D02*
X114726000Y-131811000D01*
X121407000Y-133131000D02*
X115593000Y-133131000D01*
X122186000Y-132011000D02*
X119540000Y-132011000D01*
X122240000Y-131891000D02*
X119540000Y-131891000D01*
X121197000Y-133331000D02*
X115803000Y-133331000D01*
X122502000Y-131051000D02*
X119540000Y-131051000D01*
X117460000Y-131011000D02*
X114490000Y-131011000D01*
X121892000Y-132531000D02*
X119540000Y-132531000D01*
X122290000Y-131771000D02*
X119540000Y-131771000D01*
X117460000Y-131451000D02*
X114598000Y-131451000D01*
X122389000Y-131491000D02*
X119540000Y-131491000D01*
X122467000Y-131211000D02*
X119540000Y-131211000D01*
X117460000Y-132371000D02*
X115007000Y-132371000D01*
X121056000Y-133451000D02*
X115944000Y-133451000D01*
X120313000Y-133931000D02*
X116687000Y-133931000D01*
X122510000Y-131011000D02*
X119540000Y-131011000D01*
X122530000Y-130890000D02*
X114470000Y-130890000D01*
X122580000Y-130290000D02*
X114420000Y-130290000D01*
X121969000Y-132411000D02*
X119540000Y-132411000D01*
X122436000Y-131331000D02*
X119540000Y-131331000D01*
X117460000Y-131571000D02*
X114637000Y-131571000D01*
X121326000Y-133211000D02*
X115674000Y-133211000D01*
X120666000Y-133731000D02*
X116334000Y-133731000D01*
X121624000Y-132891000D02*
X119540000Y-132891000D01*
X117460000Y-132771000D02*
X115280000Y-132771000D01*
X122565000Y-130610000D02*
X114435000Y-130610000D01*
X119729000Y-134171000D02*
X117271000Y-134171000D01*
X117460000Y-132211000D02*
X114916000Y-132211000D01*
X122476000Y-131171000D02*
X119540000Y-131171000D01*
X121215000Y-126240302D02*
X120415000Y-126240302D01*
X122425000Y-131371000D02*
X119540000Y-131371000D01*
X117460000Y-131051000D02*
X114498000Y-131051000D01*
X122457000Y-131251000D02*
X119540000Y-131251000D01*
X117460000Y-131931000D02*
X114778000Y-131931000D01*
X117460000Y-132491000D02*
X115082000Y-132491000D01*
X122571000Y-130530000D02*
X114429000Y-130530000D01*
X122335000Y-131651000D02*
X119540000Y-131651000D01*
X122106000Y-132171000D02*
X119540000Y-132171000D01*
X117460000Y-132051000D02*
X114834000Y-132051000D01*
X117460000Y-132811000D02*
X115311000Y-132811000D01*
X117460000Y-131411000D02*
X114586000Y-131411000D01*
X122494000Y-131091000D02*
X119540000Y-131091000D01*
X117460000Y-132171000D02*
X114894000Y-132171000D01*
X121151000Y-133371000D02*
X115849000Y-133371000D01*
X117460000Y-131891000D02*
X114760000Y-131891000D01*
X117460000Y-131491000D02*
X114611000Y-131491000D01*
X117460000Y-132571000D02*
X115135000Y-132571000D01*
X117460000Y-130971000D02*
X114483000Y-130971000D01*
X117460000Y-132251000D02*
X114938000Y-132251000D01*
X117460000Y-132851000D02*
X115344000Y-132851000D01*
X117460000Y-132971000D02*
X115445000Y-132971000D01*
X121241000Y-133291000D02*
X115759000Y-133291000D01*
X122017000Y-132331000D02*
X119540000Y-132331000D01*
X117460000Y-131651000D02*
X114665000Y-131651000D01*
X122040000Y-132291000D02*
X119540000Y-132291000D01*
X117460000Y-132891000D02*
X115376000Y-132891000D01*
X121519000Y-133011000D02*
X119540000Y-133011000D01*
X122548000Y-130770000D02*
X114452000Y-130770000D01*
X117460000Y-131971000D02*
X114796000Y-131971000D01*
X117460000Y-131771000D02*
X114710000Y-131771000D01*
X121838000Y-132611000D02*
X119540000Y-132611000D01*
X122524000Y-130930000D02*
X114476000Y-130930000D01*
X117460000Y-131131000D02*
X114515000Y-131131000D01*
X121590000Y-132931000D02*
X119540000Y-132931000D01*
X120464000Y-133851000D02*
X116536000Y-133851000D01*
X120602000Y-133771000D02*
X116398000Y-133771000D01*
X119033000Y-134331000D02*
X117967000Y-134331000D01*
X120900000Y-133571000D02*
X116100000Y-133571000D01*
X117460000Y-132531000D02*
X115108000Y-132531000D01*
X121780000Y-132691000D02*
X119540000Y-132691000D01*
X122363000Y-131571000D02*
X119540000Y-131571000D01*
X120534000Y-133811000D02*
X116466000Y-133811000D01*
X117460000Y-132331000D02*
X114983000Y-132331000D01*
X122062000Y-132251000D02*
X119540000Y-132251000D01*
X122579000Y-130370000D02*
X114421000Y-130370000D01*
X117460000Y-131691000D02*
X114679000Y-131691000D01*
X121483000Y-133051000D02*
X115517000Y-133051000D01*
X117460000Y-133011000D02*
X115481000Y-133011000D01*
X117460000Y-132931000D02*
X115410000Y-132931000D01*
X117460000Y-132131000D02*
X114873000Y-132131000D01*
X122574000Y-130490000D02*
X114426000Y-130490000D01*
X121284000Y-133251000D02*
X115716000Y-133251000D01*
X121555000Y-132971000D02*
X119540000Y-132971000D01*
X122204000Y-131971000D02*
X119540000Y-131971000D01*
X122321000Y-131691000D02*
X119540000Y-131691000D01*
X117460000Y-132611000D02*
X115162000Y-132611000D01*
X117460000Y-131331000D02*
X114564000Y-131331000D01*
X122377000Y-131531000D02*
X119540000Y-131531000D01*
X122222000Y-131931000D02*
X119540000Y-131931000D01*
X117460000Y-132691000D02*
X115220000Y-132691000D01*
X121993000Y-132371000D02*
X119540000Y-132371000D01*
X117460000Y-131251000D02*
X114543000Y-131251000D01*
X120815000Y-125840302D02*
X120815000Y-126640302D01*
X119268000Y-134291000D02*
X117732000Y-134291000D01*
X117460000Y-131731000D02*
X114695000Y-131731000D01*
X122402000Y-131451000D02*
X119540000Y-131451000D01*
X117460000Y-131291000D02*
X114553000Y-131291000D01*
X121367000Y-133171000D02*
X115633000Y-133171000D01*
X122485000Y-131131000D02*
X119540000Y-131131000D01*
X120390000Y-133891000D02*
X116610000Y-133891000D01*
X117460000Y-132731000D02*
X115250000Y-132731000D01*
X121865000Y-132571000D02*
X119540000Y-132571000D01*
X122084000Y-132211000D02*
X119540000Y-132211000D01*
X117460000Y-131371000D02*
X114575000Y-131371000D01*
X117460000Y-131851000D02*
X114743000Y-131851000D01*
X120845000Y-133611000D02*
X116155000Y-133611000D01*
X117460000Y-132451000D02*
X115056000Y-132451000D01*
X122166000Y-132051000D02*
X119540000Y-132051000D01*
X121689000Y-132811000D02*
X119540000Y-132811000D01*
X121720000Y-132771000D02*
X119540000Y-132771000D01*
X122274000Y-131811000D02*
X119540000Y-131811000D01*
X122127000Y-132131000D02*
X119540000Y-132131000D01*
X120052000Y-134051000D02*
X116948000Y-134051000D01*
X122580000Y-130250000D02*
X114420000Y-130250000D01*
X117460000Y-132411000D02*
X115031000Y-132411000D01*
X122305000Y-131731000D02*
X119540000Y-131731000D01*
X117460000Y-131171000D02*
X114524000Y-131171000D01*
X122552000Y-130730000D02*
X114448000Y-130730000D01*
X122517000Y-130971000D02*
X119540000Y-130971000D01*
X121918000Y-132491000D02*
X119540000Y-132491000D01*
X121656000Y-132851000D02*
X119540000Y-132851000D01*
X120728000Y-133691000D02*
X116272000Y-133691000D01*
X121750000Y-132731000D02*
X119540000Y-132731000D01*
X119846000Y-134131000D02*
X117154000Y-134131000D01*
X117460000Y-131611000D02*
X114650000Y-131611000D01*
X122580000Y-130330000D02*
X114420000Y-130330000D01*
X121104000Y-133411000D02*
X115896000Y-133411000D01*
X122537000Y-130850000D02*
X114463000Y-130850000D01*
X122147000Y-132091000D02*
X119540000Y-132091000D01*
X121809000Y-132651000D02*
X119540000Y-132651000D01*
X119598000Y-134211000D02*
X117402000Y-134211000D01*
X120231000Y-133971000D02*
X116769000Y-133971000D01*
X122568000Y-130570000D02*
X114432000Y-130570000D01*
X119953000Y-134091000D02*
X117047000Y-134091000D01*
X117460000Y-132091000D02*
X114853000Y-132091000D01*
X121944000Y-132451000D02*
X119540000Y-132451000D01*
X122257000Y-131851000D02*
X119540000Y-131851000D01*
X117460000Y-132011000D02*
X114814000Y-132011000D01*
X122557000Y-130690000D02*
X114443000Y-130690000D01*
X119448000Y-134251000D02*
X117552000Y-134251000D01*
X120954000Y-133531000D02*
X116046000Y-133531000D01*
X122414000Y-131411000D02*
X119540000Y-131411000D01*
X117460000Y-132651000D02*
X115191000Y-132651000D01*
X122620000Y-130250000D02*
G75*
G03*
X122620000Y-130250000I-4120000J0D01*
G01*
%TO.C,SIM800HAlim1*%
X79170000Y-164920000D02*
X80500000Y-164920000D01*
X79170000Y-167520000D02*
X81830000Y-167520000D01*
X79170000Y-167580000D02*
X81830000Y-167580000D01*
X81830000Y-167520000D02*
X81830000Y-167580000D01*
X79170000Y-167520000D02*
X79170000Y-167580000D01*
X79170000Y-166250000D02*
X79170000Y-164920000D01*
%TO.C,PlacaSolar1*%
X83025000Y-146420000D02*
X84355000Y-146420000D01*
X79155000Y-146420000D02*
X79155000Y-149080000D01*
X81755000Y-146420000D02*
X79155000Y-146420000D01*
X81755000Y-146420000D02*
X81755000Y-149080000D01*
X84355000Y-146420000D02*
X84355000Y-147750000D01*
X81755000Y-149080000D02*
X79155000Y-149080000D01*
%TO.C,I2CADC2*%
X125920000Y-133250000D02*
X125920000Y-131920000D01*
X125920000Y-137120000D02*
X128580000Y-137120000D01*
X125920000Y-134520000D02*
X125920000Y-137120000D01*
X125920000Y-134520000D02*
X128580000Y-134520000D01*
X125920000Y-131920000D02*
X127250000Y-131920000D01*
X128580000Y-134520000D02*
X128580000Y-137120000D01*
%TO.C,I2CADC1*%
X118080000Y-170495000D02*
X118080000Y-173095000D01*
X115420000Y-167895000D02*
X116750000Y-167895000D01*
X115420000Y-170495000D02*
X118080000Y-170495000D01*
X115420000Y-170495000D02*
X115420000Y-173095000D01*
X115420000Y-173095000D02*
X118080000Y-173095000D01*
X115420000Y-169225000D02*
X115420000Y-167895000D01*
%TO.C,GPSUART/RX*%
X118330000Y-142520000D02*
X118330000Y-145120000D01*
X115670000Y-139920000D02*
X117000000Y-139920000D01*
X115670000Y-142520000D02*
X118330000Y-142520000D01*
X115670000Y-142520000D02*
X115670000Y-145120000D01*
X115670000Y-145120000D02*
X118330000Y-145120000D01*
X115670000Y-141250000D02*
X115670000Y-139920000D01*
%TO.C,BateriaPrincipal1+2-1*%
X109920000Y-127750000D02*
X109920000Y-126420000D01*
X109920000Y-131620000D02*
X112580000Y-131620000D01*
X109920000Y-129020000D02*
X109920000Y-131620000D01*
X109920000Y-129020000D02*
X112580000Y-129020000D01*
X109920000Y-126420000D02*
X111250000Y-126420000D01*
X112580000Y-129020000D02*
X112580000Y-131620000D01*
%TO.C,Bat1+2-1*%
X119540000Y-158830000D02*
X118210000Y-158830000D01*
X123410000Y-158830000D02*
X123410000Y-156170000D01*
X120810000Y-158830000D02*
X123410000Y-158830000D01*
X120810000Y-158830000D02*
X120810000Y-156170000D01*
X118210000Y-158830000D02*
X118210000Y-157500000D01*
X120810000Y-156170000D02*
X123410000Y-156170000D01*
%TO.C,AlimGPS1*%
X81670000Y-132520000D02*
X81670000Y-129920000D01*
X84330000Y-135120000D02*
X83000000Y-135120000D01*
X84330000Y-132520000D02*
X81670000Y-132520000D01*
X84330000Y-132520000D02*
X84330000Y-129920000D01*
X84330000Y-129920000D02*
X81670000Y-129920000D01*
X84330000Y-133790000D02*
X84330000Y-135120000D01*
%TO.C,ServoInt1*%
X118270000Y-150330000D02*
X118270000Y-147670000D01*
X115670000Y-150330000D02*
X115670000Y-149000000D01*
X118270000Y-147670000D02*
X123410000Y-147670000D01*
X117000000Y-150330000D02*
X115670000Y-150330000D01*
X118270000Y-150330000D02*
X123410000Y-150330000D01*
X123410000Y-150330000D02*
X123410000Y-147670000D01*
%TO.C,ServoExt1*%
X118270000Y-154580000D02*
X118270000Y-151920000D01*
X115670000Y-154580000D02*
X115670000Y-153250000D01*
X118270000Y-151920000D02*
X123410000Y-151920000D01*
X117000000Y-154580000D02*
X115670000Y-154580000D01*
X118270000Y-154580000D02*
X123410000Y-154580000D01*
X123410000Y-154580000D02*
X123410000Y-151920000D01*
%TO.C,AnalogOzono1*%
X120670000Y-145410000D02*
X123330000Y-145410000D01*
X120670000Y-140270000D02*
X120670000Y-145410000D01*
X120670000Y-139000000D02*
X120670000Y-137670000D01*
X123330000Y-140270000D02*
X123330000Y-145410000D01*
X120670000Y-137670000D02*
X122000000Y-137670000D01*
X120670000Y-140270000D02*
X123330000Y-140270000D01*
%TO.C,PuenteHAspas1*%
X128080000Y-147770000D02*
X128080000Y-160530000D01*
X125420000Y-160530000D02*
X128080000Y-160530000D01*
X125420000Y-147770000D02*
X128080000Y-147770000D01*
X125420000Y-145170000D02*
X126750000Y-145170000D01*
X125420000Y-146500000D02*
X125420000Y-145170000D01*
X125420000Y-147770000D02*
X125420000Y-160530000D01*
%TO.C,I2CADCExterno1*%
X131170000Y-127500000D02*
X131170000Y-126170000D01*
X133830000Y-128770000D02*
X133830000Y-151690000D01*
X131170000Y-128770000D02*
X131170000Y-151690000D01*
X131170000Y-126170000D02*
X132500000Y-126170000D01*
X131170000Y-128770000D02*
X133830000Y-128770000D01*
X131170000Y-151690000D02*
X133830000Y-151690000D01*
%TO.C,SIM800HControl1*%
X133830000Y-181010000D02*
X131170000Y-181010000D01*
X133830000Y-183610000D02*
X132500000Y-183610000D01*
X133830000Y-182280000D02*
X133830000Y-183610000D01*
X133830000Y-181010000D02*
X133830000Y-153010000D01*
X133830000Y-153010000D02*
X131170000Y-153010000D01*
X131170000Y-181010000D02*
X131170000Y-153010000D01*
%TO.C,I2CTempHum1*%
X119880000Y-170495000D02*
X119880000Y-173095000D01*
X119880000Y-170495000D02*
X122480000Y-170495000D01*
X122480000Y-167895000D02*
X125080000Y-167895000D01*
X122480000Y-170495000D02*
X122480000Y-167895000D01*
X119880000Y-167895000D02*
X121210000Y-167895000D01*
X119880000Y-173095000D02*
X125080000Y-173095000D01*
X125080000Y-167895000D02*
X125080000Y-173095000D01*
X119880000Y-169225000D02*
X119880000Y-167895000D01*
%TO.C,AlimOzono5V1*%
X81770000Y-151670000D02*
X84370000Y-151670000D01*
X79170000Y-153000000D02*
X79170000Y-151670000D01*
X79170000Y-154270000D02*
X81770000Y-154270000D01*
X79170000Y-154270000D02*
X79170000Y-159410000D01*
X79170000Y-151670000D02*
X80500000Y-151670000D01*
X84370000Y-151670000D02*
X84370000Y-159410000D01*
X79170000Y-159410000D02*
X84370000Y-159410000D01*
X81770000Y-154270000D02*
X81770000Y-151670000D01*
%TO.C,AZDeliveryESP1*%
X85750000Y-180570000D02*
X114149999Y-180570000D01*
X85750001Y-132650000D02*
X85750000Y-180570000D01*
X90980120Y-126736880D02*
X108963320Y-126736880D01*
X90980120Y-132629680D02*
X90980120Y-126736880D01*
X108963320Y-126736880D02*
X108963320Y-132629680D01*
X114149999Y-180570000D02*
X114150000Y-132650000D01*
X114150000Y-132650000D02*
X85750001Y-132650000D01*
%TO.C,R2*%
X126080000Y-173480000D02*
X127920000Y-173480000D01*
X127920000Y-173480000D02*
X127920000Y-169640000D01*
X126080000Y-169640000D02*
X126080000Y-173480000D01*
X127000000Y-174430000D02*
X127000000Y-173480000D01*
X127920000Y-169640000D02*
X126080000Y-169640000D01*
X127000000Y-168690000D02*
X127000000Y-169640000D01*
%TO.C,R1*%
X117630000Y-175250000D02*
X118580000Y-175250000D01*
X118580000Y-174330000D02*
X118580000Y-176170000D01*
X123370000Y-175250000D02*
X122420000Y-175250000D01*
X118580000Y-176170000D02*
X122420000Y-176170000D01*
X122420000Y-174330000D02*
X118580000Y-174330000D01*
X122420000Y-176170000D02*
X122420000Y-174330000D01*
%TD*%
M02*
