M48
; DRILL file {KiCad (7.0.0)} date Tue May  9 09:10:48 2023
; FORMAT={-:-/ absolute / metric / decimal}
; #@! TF.CreationDate,2023-05-09T09:10:48+02:00
; #@! TF.GenerationSoftware,Kicad,Pcbnew,(7.0.0)
; #@! TF.FileFunction,Plated,1,2,PTH
FMAT,2
METRIC
; #@! TA.AperFunction,Plated,PTH,ComponentDrill
T1C0.700
; #@! TA.AperFunction,Plated,PTH,ComponentDrill
T2C0.800
; #@! TA.AperFunction,Plated,PTH,ComponentDrill
T3C1.000
%
G90
G05
T1
X116.69Y-175.25
X124.31Y-175.25
X127.0Y-167.75
X127.0Y-175.37
T2
X87.25Y-133.75
X87.25Y-136.29
X87.25Y-138.83
X87.25Y-141.37
X87.25Y-143.91
X87.25Y-146.45
X87.25Y-148.99
X87.25Y-151.53
X87.25Y-154.07
X87.25Y-156.61
X87.25Y-159.15
X87.25Y-161.69
X87.25Y-164.23
X87.25Y-166.77
X87.25Y-169.31
X87.25Y-171.85
X87.25Y-174.39
X87.25Y-176.93
X87.25Y-179.47
X112.646Y-176.927
X112.646Y-179.467
X112.65Y-133.75
X112.65Y-136.29
X112.65Y-138.83
X112.65Y-141.37
X112.65Y-143.91
X112.65Y-146.45
X112.65Y-148.99
X112.65Y-151.53
X112.65Y-154.07
X112.65Y-156.61
X112.65Y-159.15
X112.65Y-161.69
X112.65Y-164.23
X112.65Y-166.77
X112.65Y-169.31
X112.65Y-171.85
X112.65Y-174.39
X118.5Y-128.5
X118.5Y-132.0
T3
X77.25Y-153.0
X77.25Y-155.54
X77.25Y-158.08
X77.25Y-162.0
X79.75Y-177.96
X79.75Y-180.5
X79.79Y-153.0
X79.79Y-155.54
X79.79Y-158.08
X80.5Y-140.75
X80.5Y-143.29
X83.0Y-131.25
X83.0Y-133.79
X83.75Y-153.0
X83.75Y-155.54
X111.25Y-127.75
X111.25Y-130.29
X116.75Y-169.225
X116.75Y-171.765
X117.0Y-141.25
X117.0Y-143.79
X117.0Y-149.0
X117.0Y-153.25
X119.54Y-149.0
X119.54Y-153.25
X119.54Y-157.5
X121.21Y-169.225
X121.21Y-171.765
X122.0Y-139.0
X122.0Y-141.54
X122.0Y-144.08
X122.08Y-149.0
X122.08Y-153.25
X122.08Y-157.5
X123.75Y-169.225
X123.75Y-171.765
X126.75Y-146.5
X126.75Y-149.04
X126.75Y-151.58
X126.75Y-154.12
X126.75Y-156.66
X126.75Y-159.2
X127.25Y-133.25
X127.25Y-135.79
X132.5Y-127.5
X132.5Y-130.04
X132.5Y-132.58
X132.5Y-135.12
X132.5Y-137.66
X132.5Y-140.2
X132.5Y-142.74
X132.5Y-145.28
X132.5Y-147.82
X132.5Y-150.36
X132.5Y-154.34
X132.5Y-156.88
X132.5Y-159.42
X132.5Y-161.96
X132.5Y-164.5
X132.5Y-167.04
X132.5Y-169.58
X132.5Y-172.12
X132.5Y-174.66
X132.5Y-177.2
X132.5Y-179.74
X132.5Y-182.28
T0
M30
